<?xml version="1.0" encoding="UTF-8" standalone="no"?>
<svg width="320px" height="320px" viewBox="0 0 320 320" version="1.1" xmlns="http://www.w3.org/2000/svg" xmlns:xlink="http://www.w3.org/1999/xlink" xmlns:sketch="http://www.bohemiancoding.com/sketch/ns">
    <!-- Generator: Sketch 3.4 (15575) - http://www.bohemiancoding.com/sketch -->
    <title>icon--complete</title>
    <desc>Created with Sketch.</desc>
    <defs></defs>
    <g id="Page-1" stroke="none" stroke-width="1" fill="none" fill-rule="evenodd" sketch:type="MSPage">
        <g id="icon--complete" sketch:type="MSLayerGroup">
            <circle id="Oval-1" fill="#EFEFEF" sketch:type="MSShapeGroup" cx="160" cy="160" r="160"></circle>
            <g id="Group" transform="translate(76.000000, 85.000000)" sketch:type="MSShapeGroup">
                <path d="M0.847875,72.2361707 L0.847875,68.3636098 C0.91734375,68.2247317 0.98146875,68.0858537 1.0545,67.9505366 C2.32275,65.6180976 4.1325,64.1260488 6.93084375,64.1509756 C10.2564375,64.1830244 13.5820313,64.1812439 16.907625,64.1954878 C26.084625,64.2382195 35.2634063,64.2221951 44.4421875,64.2293171 C49.198125,64.232878 53.9558438,64.2417805 58.7135625,64.2489024 C59.3387813,64.2489024 59.9248125,64.2578049 60.3113438,64.9148049 C60.5892188,65.3848537 60.6462188,65.3474634 61.06125,64.9646585 C63.1025625,63.0862439 64.8980625,60.9852683 66.576,58.7863659 C73.2432188,50.0548537 78.73125,40.6075854 83.5637813,30.7614878 C83.9449688,29.9851951 84.1284375,29.2284878 84.0856875,28.3524878 C83.9859375,26.2372683 84.039375,24.1184878 83.9984063,21.9997073 C83.904,17.1336341 83.8701563,12.267561 83.8024688,7.39970732 C83.7989063,7.04717073 83.88975,6.74982927 84.08925,6.45960976 C86.2570313,3.28143902 89.240625,1.32468293 92.9848125,0.487853659 C94.014375,0.258170732 95.0653125,0.197634146 96.109125,0.0854634146 L97.3720313,0.0854634146 C97.9438125,0.135317073 98.517375,0.172707317 99.087375,0.238585366 C101.634563,0.541268293 104.071313,1.20182927 106.313906,2.48378049 C107.085188,2.92534146 107.689031,3.51646341 108.145031,4.29453659 C110.914875,9.03419512 113.228719,13.9821707 115.008188,19.1758537 C116.604188,23.8407317 117.646219,28.5892927 117.289969,33.5782195 C117.085125,36.4376829 116.766281,39.274 116.219438,42.0853902 C115.512281,45.7229268 114.505875,49.2892439 113.636625,52.8876098 C113.44425,53.6870488 113.446031,53.6870488 114.267188,53.6870488 C128.109281,53.6870488 141.947812,53.6941707 155.789906,53.6799268 C157.825875,53.6781463 159.703313,54.1802439 161.450719,55.1969024 C167.120438,58.5014878 169.655156,65.6982195 167.384063,71.9655366 C166.31175,74.9175854 164.466375,77.3176829 162.161438,79.3955122 C161.878219,79.6519024 161.844375,79.8352927 162.026063,80.1718049 C163.310344,82.566561 163.730719,85.118 163.287188,87.7922927 C162.665531,91.5259756 160.786313,94.5741707 158.041406,97.1131463 C157.629938,97.4941707 157.535531,97.8039756 157.697625,98.338122 C158.458219,100.85039 158.752125,103.412512 158.33175,106.026268 C157.751063,109.651341 156.028594,112.642561 153.289031,115.058683 C153.009375,115.307951 152.941688,115.52339 153.032531,115.891951 C153.944531,119.531268 153.932063,123.145659 152.601469,126.69239 C151.190719,130.45278 148.693406,133.346073 145.33575,135.496902 C142.544531,137.284512 139.523531,138.424024 136.156969,138.424024 C114.990375,138.427585 93.822,138.425805 72.6554063,138.429366 C71.91975,138.429366 71.1983438,138.33678 70.4965313,138.124902 C67.9493438,137.355732 65.8225313,135.911756 63.96825,134.033341 C63.8489063,133.912268 63.7562813,133.748463 63.4392188,133.643415 C63.4392188,134.72239 63.4534688,135.731927 63.4356563,136.737902 C63.4214063,137.49461 63.4303125,138.26022 63.31275,139.002683 C62.9582813,141.228293 60.6925313,143.047951 58.3288125,143.047951 C42.7054688,143.051512 27.082125,143.049732 11.4587813,143.047951 C11.2343438,143.047951 11.008125,143.040829 10.78725,143.00878 C8.53040625,142.665146 6.33590625,140.443098 5.97965625,138.060805 C5.81578125,136.969366 5.7819375,135.856561 5.69465625,134.752659 C5.5040625,132.322293 5.31703125,129.890146 5.13,127.45622 C4.97859375,125.497683 4.83253125,123.542707 4.681125,121.584171 C4.495875,119.178732 4.3070625,116.776854 4.1218125,114.371415 C3.97040625,112.402195 3.82434375,110.429415 3.6729375,108.458415 C3.4876875,106.052976 3.29709375,103.651098 3.11184375,101.245659 C2.9604375,99.276439 2.81615625,97.3036585 2.66475,95.3326585 C2.4795,92.9414634 2.28890625,90.5520488 2.1054375,88.1626341 C1.95225,86.1649268 1.80796875,84.165439 1.6565625,82.1659512 C1.46953125,79.7053171 1.2789375,77.2446829 1.08478125,74.7858293 C1.00996875,73.9365366 0.92625,73.0872439 0.847875,72.2361707 L0.847875,72.2361707 Z M105.309281,131.72939 L105.309281,131.756098 C115.75275,131.756098 126.196219,131.750756 136.639688,131.76678 C137.507156,131.76678 138.305156,131.585171 139.069313,131.202366 C141.60225,129.932878 143.707688,128.159512 145.360688,125.860902 C146.335031,124.507732 147.024375,123.021024 147.111656,121.32778 C147.225656,119.09861 146.242406,117.344829 144.633938,115.893732 C143.794969,115.135244 143.584781,114.166659 144.085313,113.169585 C144.267,112.811707 144.518156,112.560659 144.926063,112.471634 C145.367813,112.375488 145.784625,112.209902 146.181844,111.990902 C148.764656,110.580756 150.492469,108.419244 151.500656,105.704 C152.653125,102.597049 151.937063,99.9743902 149.466469,97.7594634 C148.379906,96.7837561 148.702313,95.0566829 150.084563,94.4388537 C151.810594,93.6643415 153.338906,92.6102927 154.580438,91.173439 C156.329625,89.1490244 157.090219,86.804122 156.625313,84.1494146 C156.295781,82.2603171 155.492438,80.5795366 154.079906,79.2299268 C153.212438,78.4002195 153.517031,76.8191463 154.619625,76.4986585 C155.536969,76.2333659 156.363469,75.8007073 157.161469,75.3003902 C160.392656,73.2741951 162.132938,69.5921463 161.513063,65.9830976 C160.884281,62.3277561 158.037844,60.2873171 155.08275,60.2463659 C148.586531,60.155561 142.08675,60.217878 135.58875,60.2160976 C125.818594,60.2143171 116.048438,60.2125366 106.280062,60.2071951 C105.743906,60.2071951 105.722531,60.1733659 105.836531,59.6499024 C105.849,59.5947073 105.859687,59.5395122 105.872156,59.4860976 C107.405813,52.6703902 108.857531,45.8386585 109.771313,38.9072195 C110.091938,36.4857561 110.287875,34.0536098 110.385844,31.616122 C110.473125,29.492 110.0385,27.4301951 109.509469,25.3897561 C108.009656,19.6085122 105.7635,14.1068049 103.235906,8.71370732 C103.123688,8.47334146 102.95625,8.30419512 102.737156,8.1617561 C100.888219,6.96170732 98.8682813,6.43646341 96.6630937,6.56465854 C94.8230625,6.6714878 93.145125,7.20563415 91.6043437,8.2205122 C91.1447812,8.52319512 90.9613125,8.85970732 90.9630937,9.42056098 C90.9826875,16.4071951 90.9737812,23.3956098 90.9773437,30.3822439 C90.9773437,30.7525854 90.9345937,31.0962195 90.75825,31.4362927 C88.5690937,35.6738537 86.3069062,39.8758049 83.91825,44.0065366 C78.9841875,52.5332927 73.5585,60.7253171 67.41675,68.4366098 C67.1495625,68.7713415 66.8378437,69.0419756 66.4887187,69.2823415 C63.9290625,71.0343415 61.3836562,72.8041463 58.8079687,74.533 C58.318125,74.8623902 58.1364375,75.2078049 58.1382188,75.7971463 C58.15425,92.4927805 58.1506875,109.190195 58.1524688,125.885829 C58.1524688,126.026488 58.1578125,126.167146 58.1524688,126.306024 C58.1417813,126.592683 58.2878438,126.710195 58.5621562,126.711976 C59.8802813,126.72622 61.2055312,126.825927 62.5165312,126.736902 C63.6636562,126.65678 64.630875,126.879341 65.607,127.506073 C67.6251563,128.800488 69.7145625,129.989854 71.8378125,131.10622 C72.2991562,131.350146 72.7711875,131.558463 73.309125,131.572707 C74.178375,131.595854 75.047625,131.640366 75.916875,131.651049 C79.3546875,131.69378 82.7942812,131.699122 86.2320938,131.722268 C92.5911563,131.759659 98.952,131.72939 105.309281,131.72939 L105.309281,131.72939 Z M40.0905938,130.828463 C42.6484688,130.833805 44.7040313,128.793366 44.7165,126.245488 C44.7271875,123.69939 42.6627188,121.609098 40.1333438,121.601976 C37.57725,121.594854 35.4860625,123.672683 35.4807188,126.225902 C35.4771563,128.757756 37.5434063,130.823122 40.0905938,130.828463 L40.0905938,130.828463 Z" id="Shape" fill="#006C68"></path>
                <path d="M96.109125,0.0836829268 C95.0653125,0.195853659 94.014375,0.256390244 92.9848125,0.486073171 C89.240625,1.32290244 86.2588125,3.27965854 84.08925,6.45782927 C83.88975,6.74982927 83.7989062,7.04539024 83.8024687,7.39792683 C83.8701562,12.264 83.904,17.1318537 83.9984062,21.9979268 C84.039375,24.1149268 83.9859375,26.2354878 84.0856875,28.3507073 C84.1266562,29.2267073 83.9431875,29.9834146 83.5637812,30.7597073 C78.73125,40.6058049 73.2432187,50.0530732 66.576,58.7845854 C64.8980625,60.9834878 63.1007812,63.0844634 61.06125,64.962878 C60.6444375,65.3456829 60.5874375,65.3830732 60.3113437,64.9130244 C59.9248125,64.2578049 59.337,64.247122 58.7135625,64.247122 C53.9558437,64.2417805 49.198125,64.232878 44.4421875,64.2275366 C35.2634063,64.2204146 26.084625,64.236439 16.907625,64.1937073 C13.5820312,64.1776829 10.2564375,64.1794634 6.93084375,64.1491951 C4.1325,64.1242683 2.32453125,65.6180976 1.0545,67.9487561 C0.98146875,68.0840732 0.91734375,68.2247317 0.847875,68.3618293 C0.847875,45.7282683 0.847875,23.0947073 0.84075,0.461146341 C0.84075,0.146 0.912,0.0747804878 1.22728125,0.0747804878 C32.853375,0.0836829268 64.48125,0.0836829268 96.109125,0.0836829268 L96.109125,0.0836829268 Z" id="Shape"></path>
                <path d="M0.847875,72.2361707 C0.92446875,73.0872439 1.00996875,73.9365366 1.07765625,74.7893902 C1.2718125,77.2482439 1.460625,79.708878 1.6494375,82.1695122 C1.80084375,84.169 1.945125,86.1684878 2.0983125,88.1661951 C2.28178125,90.5573902 2.47415625,92.9468049 2.657625,95.3362195 C2.80903125,97.3072195 2.95509375,99.28 3.10471875,101.24922 C3.28996875,103.654659 3.4805625,106.056537 3.6658125,108.461976 C3.81721875,110.432976 3.96328125,112.405756 4.1146875,114.374976 C4.2999375,116.780415 4.48875,119.182293 4.674,121.587732 C4.82540625,123.546268 4.97146875,125.501244 5.122875,127.45978 C5.30990625,129.891927 5.4969375,132.324073 5.68753125,134.75622 C5.7748125,135.860122 5.80865625,136.972927 5.97253125,138.064366 C6.32878125,140.446659 8.52328125,142.668707 10.780125,143.012341 C11.001,143.046171 11.2272187,143.051512 11.4516562,143.051512 C27.075,143.053293 42.6983437,143.055073 58.3216875,143.051512 C60.6871875,143.051512 62.9511562,141.231854 63.305625,139.006244 C63.4231875,138.26378 63.4142812,137.49639 63.4285312,136.741463 C63.448125,135.735488 63.4320937,134.725951 63.4320937,133.646976 C63.7491562,133.752024 63.8417812,133.914049 63.961125,134.036902 C65.8154062,135.915317 67.9422187,137.359293 70.4894062,138.128463 C71.1912187,138.340341 71.912625,138.432927 72.6482812,138.432927 C93.8166562,138.429366 114.985031,138.431146 136.149844,138.427585 C139.518188,138.427585 142.537406,137.288073 145.328625,135.500463 C148.686281,133.349634 151.183594,130.456341 152.594344,126.695951 C153.924937,123.14922 153.937406,119.534829 153.025406,115.895512 C152.932781,115.526951 153.000469,115.311512 153.281906,115.062244 C156.021469,112.646122 157.743938,109.654902 158.324625,106.029829 C158.743219,103.414293 158.449313,100.853951 157.6905,98.3416829 C157.528406,97.8075366 157.622813,97.4977317 158.034281,97.1167073 C160.779188,94.5759512 162.660188,91.5277561 163.280063,87.7958537 C163.723594,85.121561 163.303219,82.5683415 162.018937,80.1753659 C161.83725,79.8388537 161.871094,79.6554634 162.154313,79.3990732 C164.45925,77.3212439 166.304625,74.9193659 167.376937,71.9690976 C169.648031,65.7017805 167.113313,58.5032683 161.443594,55.2004634 C159.697969,54.1838049 157.81875,53.6817073 155.782781,53.6834878 C141.940688,53.6977317 128.102156,53.6906098 114.260063,53.6906098 C113.437125,53.6906098 113.435344,53.6906098 113.6295,52.8911707 C114.49875,49.2928049 115.505156,45.7264878 116.212313,42.0889512 C116.759156,39.277561 117.076219,36.4412439 117.282844,33.5817805 C117.639094,28.5928537 116.597063,23.8442927 115.001063,19.1794146 C113.221594,13.9857317 110.90775,9.0377561 108.137906,4.29809756 C107.681906,3.52002439 107.076281,2.92890244 106.306781,2.48734146 C104.064188,1.20539024 101.627437,0.544829268 99.08025,0.242146341 C98.51025,0.174487805 97.9366875,0.138878049 97.3649063,0.0890243902 C121.242562,0.0890243902 145.122,0.0890243902 169.001438,0.081902439 C169.316719,0.081902439 169.387969,0.153121951 169.387969,0.468268293 C169.379063,48.2886098 169.379063,96.1089512 169.387969,143.931073 C169.387969,144.24622 169.316719,144.317439 169.001438,144.317439 C113.07375,144.308537 57.1478438,144.308537 1.22015625,144.317439 C0.904875,144.317439 0.833625,144.24622 0.833625,143.931073 C0.84965625,120.028024 0.847875,96.1320976 0.847875,72.2361707 L0.847875,72.2361707 Z" id="Shape"></path>
                <path d="M105.309281,131.72939 C98.952,131.72939 92.5911562,131.759659 86.233875,131.715146 C82.7960625,131.692 79.3564687,131.686659 75.9186562,131.643927 C75.0494062,131.633244 74.1801562,131.588732 73.3109062,131.565585 C72.7729687,131.551341 72.3009375,131.343024 71.8395937,131.099098 C69.7163437,129.980951 67.6269375,128.791585 65.6087812,127.498951 C64.6326562,126.87222 63.6654375,126.649659 62.5183125,126.72978 C61.2073125,126.820585 59.8838437,126.719098 58.5639375,126.704854 C58.2878438,126.703073 58.1417812,126.587341 58.15425,126.298902 C58.1595938,126.160024 58.15425,126.019366 58.15425,125.878707 C58.15425,109.183073 58.1560312,92.4856585 58.14,75.7900244 C58.14,75.2006829 58.3216875,74.8552683 58.80975,74.525878 C61.3836562,72.7970244 63.9308437,71.0272195 66.4905,69.2752195 C66.839625,69.0348537 67.1513437,68.766 67.4185313,68.4294878 C73.5602813,60.7181951 78.98775,52.5261707 83.9200312,43.9994146 C86.3086875,39.8686829 88.5690938,35.6685122 90.7600312,31.4291707 C90.936375,31.0890976 90.979125,30.7454634 90.979125,30.375122 C90.9755625,23.3867073 90.9844688,16.4000732 90.964875,9.41343902 C90.9630938,8.85258537 91.1483438,8.51607317 91.606125,8.21339024 C93.1469063,7.20029268 94.8248437,6.66436585 96.664875,6.55753659 C98.8700625,6.43112195 100.89,6.95458537 102.738937,8.15463415 C102.958031,8.29707317 103.12725,8.46621951 103.237687,8.70658537 C105.767063,14.0996829 108.013219,19.6031707 109.51125,25.3826341 C110.040281,27.4230732 110.474906,29.484878 110.387625,31.609 C110.289656,34.0482683 110.093719,36.4786341 109.773094,38.9000976 C108.857531,45.8333171 107.407594,52.6632683 105.873938,59.4789756 C105.861469,59.5341707 105.850781,59.5893659 105.838313,59.6427805 C105.726094,60.1662439 105.745688,60.2000732 106.281844,60.2000732 C116.050219,60.2036341 125.820375,60.2071951 135.590531,60.2089756 C142.088531,60.2107561 148.588313,60.148439 155.084531,60.2392439 C158.039625,60.2801951 160.887844,62.3206341 161.514844,65.9759756 C162.134719,69.5850244 160.394438,73.2688537 157.16325,75.2932683 C156.36525,75.7935854 155.53875,76.2262439 154.621406,76.4915366 C153.518813,76.8120244 153.214219,78.3930976 154.081688,79.2228049 C155.494219,80.5724146 156.297563,82.2549756 156.627094,84.1422927 C157.092,86.797 156.331406,89.1436829 154.582219,91.1663171 C153.340688,92.6031707 151.810594,93.6572195 150.086344,94.4317317 C148.705875,95.0513415 148.381688,96.7766341 149.46825,97.7523415 C151.938844,99.9672683 152.654906,102.589927 151.502438,105.696878 C150.49425,108.412122 148.766438,110.573634 146.183625,111.98378 C145.786406,112.201 145.369594,112.368366 144.927844,112.464512 C144.519938,112.553537 144.268781,112.802805 144.087094,113.162463 C143.586563,114.161317 143.79675,115.128122 144.635719,115.88661 C146.242406,117.335927 147.227438,119.091488 147.113438,121.320659 C147.024375,123.013902 146.335031,124.50061 145.362469,125.85378 C143.709469,128.15239 141.604031,129.925756 139.071094,131.195244 C138.305156,131.579829 137.508938,131.759659 136.641469,131.759659 C126.196219,131.750756 115.75275,131.756098 105.309281,131.756098 L105.309281,131.72939 L105.309281,131.72939 Z" id="Shape"></path>
                <path d="M40.0905938,130.828463 C37.5434063,130.823122 35.4771563,128.759537 35.4807188,126.224122 C35.4860625,123.670902 37.57725,121.593073 40.1333438,121.600195 C42.6627188,121.607317 44.7289687,123.69939 44.7165,126.243707 C44.7058125,128.793366 42.6484688,130.832024 40.0905938,130.828463 L40.0905938,130.828463 Z M39.0966563,127.926268 C39.4457813,127.920927 39.7022813,127.660976 39.7005,127.312 C39.7005,126.977268 39.422625,126.694171 39.0913125,126.688829 C38.7439688,126.685268 38.4589688,126.980829 38.4696563,127.338707 C38.482125,127.691244 38.7404062,127.93339 39.0966563,127.926268 L39.0966563,127.926268 Z M41.0916562,125.891171 C41.4265312,125.894732 41.70975,125.625878 41.7204375,125.292927 C41.731125,124.943951 41.4407813,124.655512 41.0863125,124.660854 C40.7389687,124.667976 40.4878125,124.926146 40.4895937,125.278683 C40.4895938,125.624098 40.747875,125.88761 41.0916562,125.891171 L41.0916562,125.891171 Z M41.0987813,127.926268 C41.4443438,127.928049 41.7150938,127.666317 41.7204375,127.328024 C41.7275625,126.98439 41.4211875,126.679927 41.0809688,126.69061 C40.7496563,126.701293 40.4878125,126.98439 40.4895938,127.324463 C40.491375,127.680561 40.74075,127.926268 41.0987813,127.926268 L41.0987813,127.926268 Z M39.7005,125.273341 C39.7005,124.93861 39.4315313,124.666195 39.0930938,124.660854 C38.7510938,124.655512 38.4803438,124.913683 38.4696562,125.253756 C38.4589688,125.611634 38.738625,125.894732 39.0930938,125.88939 C39.42975,125.884049 39.7005,125.609854 39.7005,125.273341 L39.7005,125.273341 Z" id="Shape" fill="#FA8D3E"></path>
                <path d="M39.0966563,127.926268 C38.7404062,127.93339 38.482125,127.691244 38.4714375,127.340488 C38.46075,126.98261 38.7439688,126.687049 39.0930938,126.69061 C39.4244063,126.695951 39.7005,126.977268 39.7022812,127.31378 C39.7022812,127.659195 39.4457812,127.920927 39.0966563,127.926268 L39.0966563,127.926268 Z" id="Shape" fill="#006C68"></path>
                <path d="M41.0916562,125.891171 C40.747875,125.88761 40.4895937,125.624098 40.4895937,125.276902 C40.4878125,124.926146 40.7389687,124.666195 41.0863125,124.659073 C41.4407812,124.653732 41.731125,124.942171 41.7204375,125.291146 C41.7115312,125.625878 41.4265312,125.894732 41.0916562,125.891171 L41.0916562,125.891171 Z" id="Shape" fill="#006C68"></path>
                <path d="M41.0987812,127.926268 C40.74075,127.926268 40.4931562,127.680561 40.4895937,127.324463 C40.4878125,126.98439 40.7496563,126.699512 41.0809687,126.69061 C41.4211875,126.679927 41.7275625,126.98439 41.7204375,127.328024 C41.7133125,127.666317 41.4443437,127.928049 41.0987812,127.926268 L41.0987812,127.926268 Z" id="Shape" fill="#006C68"></path>
                <path d="M39.7005,125.273341 C39.7005,125.608073 39.42975,125.884049 39.094875,125.891171 C38.7404063,125.896512 38.46075,125.613415 38.4714375,125.255537 C38.482125,124.915463 38.752875,124.657293 39.094875,124.662634 C39.4315313,124.667976 39.7005,124.93861 39.7005,125.273341 L39.7005,125.273341 Z" id="Shape" fill="#006C68"></path>
            </g>
        </g>
    </g>
</svg>