<?xml version="1.0" encoding="UTF-8" standalone="no"?>
<svg width="320px" height="320px" viewBox="0 0 320 320" version="1.1" xmlns="http://www.w3.org/2000/svg" xmlns:xlink="http://www.w3.org/1999/xlink" xmlns:sketch="http://www.bohemiancoding.com/sketch/ns">
    <!-- Generator: Sketch 3.3.3 (12072) - http://www.bohemiancoding.com/sketch -->
    <title>icon--book</title>
    <desc>Created with Sketch.</desc>
    <defs></defs>
    <g id="Page-1" stroke="none" stroke-width="1" fill="none" fill-rule="evenodd" sketch:type="MSPage">
        <g id="icon--book" sketch:type="MSLayerGroup">
            <circle id="Oval-1" fill="#EFEFEF" sketch:type="MSShapeGroup" cx="160" cy="160" r="160"></circle>
            <g id="Shape-+-Path-Copy" transform="translate(61.000000, 82.000000)" sketch:type="MSShapeGroup">
                <path d="M109.374792,0.251602564 C108.870307,0.324064103 108.148752,0.438794872 107.78898,0.525346154 C107.429208,0.597807692 106.476515,0.625987179 105.684614,0.583717949 C103.636525,0.468987179 102.71398,0.770910256 100.464901,2.25838462 C96.8028614,4.68383333 44.639901,41.4439744 8.29486139,67.2302179 C6.75125743,68.3272051 6.56433663,68.5143974 5.72821782,69.7865 C3.03294059,73.8584359 1.0129901,79.4882949 0.321584158,84.8605128 C-0.456247525,90.8385897 0.221089109,100.194179 1.87925743,106.691564 C2.72944554,109.982526 3.59571287,112.03359 4.34540594,112.524718 C4.63282178,112.71191 4.83582178,112.726 5.45487129,112.611269 C5.87293069,112.538808 6.33520792,112.424077 6.46384158,112.365705 C6.65076238,112.293244 6.75125743,112.393885 6.92611881,112.784372 C7.43060396,113.982 9.44854455,115.642577 12.1297525,117.0435 C12.7648812,117.389705 18.473,120.147269 24.8162475,123.194679 C36.2787129,128.695718 36.3490594,128.723897 36.5661287,128.421974 C37.1429703,127.598731 37.9348713,126.876128 39.665396,125.650321 C40.6884356,124.913628 41.6833366,124.148756 41.8561881,123.961564 L42.1737525,123.629449 L37.1711089,121.044987 C29.515396,117.103885 23.2143564,113.696179 15.2993663,109.249859 L11.2634851,106.983423 L11.0182772,105.336936 C10.5137921,101.870859 10.3992277,99.7050641 10.3992277,94.1758462 C10.3992277,88.8921923 10.5298713,86.4365513 10.9901386,81.8312179 C11.2936337,78.6972564 11.9267525,74.1221154 12.057396,73.9912821 C12.6342376,73.3854231 44.8991782,87.9099359 87.0990594,107.748295 C93.5005941,110.765513 94.8834059,111.329103 97.5525545,112.035603 C100.595545,112.844756 102.742119,112.613282 105.409257,111.17009 C106.028307,110.837974 114.08801,104.630436 125.954465,95.3312051 C142.433644,82.4229872 178.895257,53.9234615 182.872851,50.8176795 C183.52205,50.3124615 184.054673,49.9360641 184.054673,49.9803462 C184.054673,50.0387179 183.895891,50.3265513 183.70897,50.6163974 C183.52205,50.9203333 183.059772,51.7858462 182.685931,52.5366282 C179.918297,58.0235769 179.341455,63.4380641 180.985554,68.3755128 C181.461901,69.8327949 182.513079,71.8556795 183.365277,72.9949359 C183.755198,73.5001538 184.056683,73.947 184.042614,74.0053718 C184.042614,74.0637436 182.989426,74.9876282 181.707109,76.0705256 C166.353475,89.0210128 118.515822,130.171115 101.244743,145.259218 C99.3554356,146.919795 97.7274158,148.306628 97.6269208,148.334808 C97.4259307,148.421359 96.5596634,148.075154 89.6978614,145.245128 C80.7879703,141.563679 70.2641287,136.972436 62.5219901,133.391628 C59.782495,132.121538 59.7101386,132.091346 59.4227228,132.353013 C59.2639406,132.497936 58.6730297,132.902513 58.1243267,133.262808 C57.5615545,133.623103 56.8982871,134.172603 56.6691584,134.476538 C56.2792376,134.967667 54.8381386,137.580308 54.9245644,137.652769 C54.9386337,137.652769 60.3452673,140.251321 66.9196535,143.413462 C76.1330396,147.831603 80.7176238,149.939026 86.8156634,152.553679 C97.7877129,157.231474 96.6923168,156.826897 98.1334158,156.826897 C100.165426,156.826897 102.430584,155.888923 105.039436,153.92441 C107.433228,152.135013 112.580584,147.716872 115.362287,145.074038 C117.410376,143.125628 133.77298,128.643385 170.148168,96.5469487 C176.82305,90.6554231 184.420475,83.7977436 188.486505,79.9713718 C195.032752,73.8201923 195.450812,73.4015256 195.724158,72.6507436 C196.083931,71.7127692 196.10001,71.2800128 195.824653,70.7305128 C195.579446,70.2675641 194.080059,68.8384615 193.302228,68.3332436 C193.014812,68.1460513 190.908436,67.3952692 188.603079,66.6726667 C186.309782,65.9359744 184.408416,65.3301154 184.378267,65.3019359 C184.350129,65.2878462 184.277772,64.6960769 184.205416,64.0016538 C183.946139,61.5480256 184.422485,58.4140641 185.53195,55.1231026 C186.237426,53.0156795 188.243307,48.9296538 189.640188,46.7054872 C190.476307,45.3911154 190.779802,45.0449103 191.702347,44.3525 C194.110208,42.5329103 200.35296,36.7138462 200.742881,35.9207949 C201.132802,35.1277436 201.074515,34.4192308 200.57003,33.8858333 C199.993188,33.2658846 198.349089,32.1970769 196.879851,31.4885641 C195.798525,30.9551667 115.032663,0.821230769 113.633772,0.416653846 C112.833832,0.179141026 110.498327,0.0925897436 109.374792,0.251602564 L109.374792,0.251602564 Z M111.623871,4.59728205 C112.532347,4.82875641 113.26797,5.54934615 113.26797,6.19948718 C113.26797,7.19583333 111.999723,7.90233333 110.196842,7.90233333 C108.898446,7.90233333 108.164832,7.67085897 107.529703,7.07908974 C107.083505,6.66042308 107.039287,6.54569231 107.111644,6.06865385 C107.169931,5.78082051 107.328713,5.41851282 107.487495,5.2595 C108.162822,4.56910256 110.22498,4.25107692 111.623871,4.59728205 L111.623871,4.59728205 Z M123.373752,11.932 C142.389426,18.8339615 158.191267,24.8402179 167.259941,28.6223077 C171.816386,30.5284487 174.58402,31.7844487 174.642307,31.971641 C174.670446,32.0581923 174.425238,32.4345897 174.109683,32.8230641 C173.460485,33.6020256 172.956,34.8016667 172.956,35.5222564 C172.970069,36.7500769 174.16797,38.0785385 176.141693,39.0446923 L177.309446,39.6223718 L173.042426,43.2454487 C149.470307,63.3434615 125.480129,82.3142949 111.467099,91.9597308 L109.881287,93.0567179 L107.79099,92.3502179 C103.351119,90.8627436 101.461812,91.0358462 96.790802,93.3747436 L94.7869307,94.3710897 L65.000198,80.6396282 C48.6074455,73.0875256 34.8818317,66.7652564 34.4939208,66.5921538 L33.7884455,66.2882179 L34.4939208,65.8695513 C36.8012871,64.5410897 37.6233366,63.1844487 36.8736436,61.9425385 C36.5862277,61.4655 35.7641782,60.8455513 34.7250594,60.3262436 C34.3934257,60.153141 34.1200792,59.9659487 34.1200792,59.9075769 C34.1341485,59.7928462 35.8787426,58.5207436 44.7886337,52.1682821 C54.2894356,45.3971538 97.4540693,14.9029231 103.178267,10.9175385 C103.53804,10.6719744 103.568188,10.6719744 104.54701,11.1631026 C106.060465,11.8997949 107.59,12.2600897 109.376802,12.2600897 C111.85702,12.2741795 113.88903,11.5535897 115.432634,10.1083846 C115.864762,9.68971795 116.240614,9.35760256 116.240614,9.34351282 C116.250663,9.34753846 119.466505,10.5169872 123.373752,11.932 L123.373752,11.932 Z M186.908733,32.5352308 C189.057317,33.5899487 188.854317,36.0576667 186.54896,36.9251923 C185.063644,37.4746923 183.30498,37.1848462 182.324149,36.2025897 C181.429743,35.3068846 181.387535,34.1817179 182.209584,33.227641 C183.290911,32.0018333 185.208356,31.714 186.908733,32.5352308 L186.908733,32.5352308 Z M28.0180198,63.0435513 C28.826,63.4481282 29.2139109,63.9815256 29.2139109,64.6598462 C29.2139109,66.5659872 25.1056733,67.2302179 23.3470099,65.6119103 C22.655604,64.9919615 22.8284554,63.8366026 23.6927129,63.2730128 C24.7740396,62.5665128 26.8643366,62.4517821 28.0180198,63.0435513 L28.0180198,63.0435513 Z M105.509752,97.9418333 C107.340772,98.5336026 107.873396,99.9627051 106.649366,101.075795 C105.899673,101.754115 105.208267,101.9715 103.751089,101.9715 C102.293911,101.9715 101.429653,101.683667 100.738248,100.989244 C99.815703,100.021077 100.103119,98.8516282 101.473871,98.1733077 C102.697901,97.5654359 104.054584,97.4929744 105.509752,97.9418333 L105.509752,97.9418333 Z M115.963248,11.4267821 C115.185416,12.1191923 113.66995,12.8840641 112.329347,13.2745513 C111.406802,13.5342051 110.82996,13.5925769 109.445139,13.5925769 C107.541762,13.5784872 106.446366,13.3751923 104.659564,12.6827821 L103.564168,12.2500256 L90.4294653,21.5049744 C61.7099901,41.762 37.331901,59.0299872 36.5661287,59.6942179 C36.5379901,59.7223974 36.8113366,60.0122436 37.1711089,60.3302692 C38.8433465,61.7593718 38.8714851,63.6936923 37.2575347,65.4549103 C36.925901,65.8313077 36.7088317,66.1614103 36.7811881,66.1916026 C36.8676139,66.2197821 49.9299604,72.242141 65.832297,79.5748462 L94.7246238,92.9017308 L96.6139307,91.9919359 C97.6369703,91.4867179 99.1082178,90.880859 99.8579109,90.6212051 C102.366267,89.7838718 104.760059,89.8986026 108.060317,91.0398718 L109.690347,91.6034615 L112.66098,89.5101282 C122.276347,82.7530897 135.19599,72.8057308 149.814,60.893859 C157.411426,54.7004103 174.698584,40.2322564 174.78501,39.9866923 C174.813149,39.9283205 174.539802,39.7129487 174.194099,39.4814744 C173.400188,38.9762564 172.493723,38.0080897 172.059584,37.1848462 C171.800307,36.6937179 171.72795,36.3334231 171.72795,35.482 C171.72795,34.5581154 171.800307,34.2541795 172.204297,33.4027564 C172.463574,32.8532564 172.650495,32.3923205 172.636426,32.3782308 C172.218366,32.0903974 163.770752,28.5800385 158.492752,26.5168974 C147.550851,22.2134872 117.215416,10.9235769 116.668723,10.9376667 C116.582297,10.9517564 116.264733,11.1671282 115.963248,11.4267821 L115.963248,11.4267821 Z M183.622545,33.777141 C182.945208,34.2541795 182.814564,34.5138333 183.017564,34.9747692 C183.290911,35.5524487 184.344099,35.9711154 185.339,35.8704744 C186.55097,35.739641 187.256446,35.1056026 187.011238,34.3689103 C186.693673,33.4752179 184.603376,33.1129103 183.622545,33.777141 L183.622545,33.777141 Z M24.9750297,64.1264487 C24.1670495,64.4303846 24.0665545,64.5732949 24.5127525,64.863141 C25.0755248,65.2395385 26.4884851,65.3099872 27.2663168,65.0221538 C27.6260891,64.8772308 27.9155149,64.7041282 27.9155149,64.6316667 C27.9155149,64.0982692 25.9558614,63.7661538 24.9750297,64.1264487 L24.9750297,64.1264487 Z M102.396416,99.1535513 C101.877861,99.3125641 101.445733,99.7030513 101.532158,99.9486154 C101.576376,100.049256 101.877861,100.252551 102.209495,100.395462 C103.31896,100.900679 105.495683,100.655115 105.943891,99.9627051 C106.102673,99.7312308 105.656475,99.3125641 105.063554,99.1535513 C104.442495,98.9804487 102.973257,98.9804487 102.396416,99.1535513 L102.396416,99.1535513 Z M98.8489406,115.22391 C95.9808119,117.504436 94.1196436,121.028885 93.5005941,125.402744 C93.2553861,127.208244 93.400099,131.871949 93.7880099,133.949179 C94.1759208,136.02641 94.7688416,138.294859 95.5044653,140.446564 C96.0953762,142.179603 97.277198,145.23909 97.3354851,145.182731 C97.3636238,145.154551 97.0902772,143.449692 96.7445743,141.384538 C95.2009703,132.202051 94.9416931,127.393423 95.7637426,123.092026 C96.2541584,120.521654 97.3214158,117.923103 98.6620198,116.089423 C99.0519406,115.570115 99.4398515,115.020615 99.5564257,114.875692 C99.8438416,114.473128 99.7292772,114.529487 98.8489406,115.22391 L98.8489406,115.22391 Z M111.607792,6.18539744 C111.607792,6.65639744 110.952564,7.03883333 110.144584,7.03883333 C109.336604,7.03883333 108.681376,6.65639744 108.681376,6.18539744 C108.681376,5.71439744 109.336604,5.33196154 110.144584,5.33196154 C110.954574,5.33196154 111.607792,5.71439744 111.607792,6.18539744 L111.607792,6.18539744 Z" id="Shape" fill="#006D5B"></path>
                <path d="M37.2876347,91.5030883 C40.3004763,92.9321909 50.2635555,97.8998319 50.2635555,97.9722935 C50.2635555,98.0306653 49.9459911,98.2762294 49.542001,98.5358832 C47.2346347,100.037447 45.5061198,102.476986 44.8267733,105.162088 C44.6398525,105.898781 44.5815654,106.750204 44.5815654,108.728806 C44.5815654,111.601101 44.6961297,112.62764 45.5181792,117.679819 C46.1090901,121.361268 46.1955159,122.67564 45.8940307,123.426422 C45.6488228,124.004101 44.9272683,124.654242 43.168605,125.88005 C40.9476644,127.439986 40.4291099,127.959293 39.6070604,129.589678 C38.3669515,132.001037 37.2273377,133.011473 33.9692881,134.599588 C32.8296743,135.163178 31.6759911,135.94214 29.2842089,137.761729 C23.314803,142.294601 20.3602485,143.98537 16.8127733,144.879063 L15.7314466,145.152806 L16.5816347,145.253447 C17.0439119,145.311819 18.3121594,145.325909 19.3934862,145.281627 C23.2725951,145.122614 26.6592782,143.924986 34.7049119,139.895319 L38.2664565,138.120011 L36.6223575,140.57364 C33.9411495,144.615383 32.0518426,148.731601 31.4609317,151.907832 C31.1735159,153.453678 31.0428723,155.547011 31.1875852,156.066319 C31.3182287,156.484986 31.332298,156.484986 32.3131297,155.055883 C35.2837634,150.796755 38.6563773,146.624178 40.5014664,144.977691 C42.0732089,143.562678 42.722407,143.099729 45.461902,141.483434 C50.233407,138.639319 51.4152287,137.598691 52.6131297,135.203434 C53.5075357,133.414037 53.9255951,132.936999 55.4390505,131.89637 C57.0972188,130.769191 58.1343278,129.758755 58.5101792,128.907332 C59.0146644,127.810345 58.9282386,125.717011 58.2649713,122.58305 C57.3142881,118.092447 57.1695753,117.154473 57.0831495,114.771293 C57.0248624,112.893332 57.0550109,112.231114 57.2419317,111.349499 C57.5293476,110.035127 58.3513971,108.332281 59.2739416,107.062191 C60.0959911,105.951114 62.0717238,103.88596 62.3008525,103.88596 C62.4013476,103.88596 63.8283773,104.536101 65.4865456,105.343242 C73.2568228,109.111242 84.4459416,114.324447 84.5323674,114.221793 C84.7052188,114.048691 77.5680604,109.197793 73.8356743,106.959537 C63.1088327,100.520524 50.5811198,95.0778576 38.7287337,91.6983319 C36.6826545,91.114614 36.3650901,91.0703319 37.2876347,91.5030883 L37.2876347,91.5030883 Z" id="Path-Copy" fill="#FA8D3E"></path>
            </g>
        </g>
    </g>
</svg>