<?xml version="1.0" encoding="UTF-8" standalone="no"?>
<svg width="320px" height="320px" viewBox="0 0 320 320" version="1.1" xmlns="http://www.w3.org/2000/svg" xmlns:xlink="http://www.w3.org/1999/xlink" xmlns:sketch="http://www.bohemiancoding.com/sketch/ns">
    <!-- Generator: Sketch 3.4.2 (15855) - http://www.bohemiancoding.com/sketch -->
    <title>icon--wales</title>
    <desc>Created with Sketch.</desc>
    <defs></defs>
    <g id="Page-1" stroke="none" stroke-width="1" fill="none" fill-rule="evenodd" sketch:type="MSPage">
        <g id="icon--wales" sketch:type="MSLayerGroup">
            <g id="Page-1" fill="#EFEFEF" sketch:type="MSShapeGroup">
                <g id="icon--london">
                    <circle id="Oval-1" cx="160" cy="160" r="160"></circle>
                </g>
            </g>
            <path d="M103.595961,126.856222 L103.954995,126.676705 L104.314029,125.958637 L104.134512,125.599604 L103.416444,125.420087 L103.057411,126.676705 L103.057411,127.394772 L103.416444,126.856222 L103.595961,126.856222 L103.595961,126.856222 Z M74.3347101,203.509929 L73.9756764,203.509929 L73.4371257,203.868963 L73.6166426,204.407513 L73.4371257,204.766547 L73.4371257,205.484615 L73.7961595,205.664132 L73.7961595,205.843648 L73.7961595,205.843648 L73.9756764,205.664132 L74.1551933,205.125581 L74.1551933,204.407513 L74.3347101,203.689446 L74.3347101,203.509929 L74.3347101,203.509929 Z M76.6684296,215.358043 L75.7708452,215.53756 L75.5913283,215.717077 L75.7708452,216.255627 L76.1298789,216.255627 L76.3093958,216.435144 L76.3093958,216.614661 L76.3093958,216.614661 L76.8479464,216.435144 L77.0274633,216.255627 L77.3864971,216.255627 L77.9250477,215.896594 L77.3864971,215.717077 L76.6684296,215.358043 L76.6684296,215.358043 Z M108.083883,223.974853 L108.083883,224.333887 L108.2634,224.692921 L108.442917,224.872438 L108.801951,224.872438 L109.160985,225.231471 L109.699535,225.231471 L109.879052,224.692921 L109.160985,224.15437 L108.083883,223.974853 L108.083883,223.974853 Z M110.058569,79.6432828 L111.674221,79.4637659 L112.212772,79.6432828 L112.751322,80.3613503 L113.828423,82.336036 L114.905525,83.2336204 L115.444075,83.4131372 L115.982626,83.2336204 L116.34166,82.336036 L115.982626,81.6179684 L115.444075,81.0794178 L115.264558,80.5408672 L115.085042,79.284249 L114.546491,78.2071477 L113.828423,77.3095634 L113.110356,76.5914958 L112.751322,76.2324621 L111.853738,76.411979 L111.315187,76.411979 L110.776637,76.0529452 L109.340501,77.3095634 L109.340501,77.848114 L110.238086,79.4637659 L110.058569,79.6432828 L110.058569,79.6432828 Z M217.230146,211.588189 L218.486764,209.79302 L218.845797,208.536402 L218.12773,208.895435 L217.050629,208.177368 L216.153044,207.279783 L215.794011,207.100267 L215.434977,207.100267 L214.537392,207.100267 L214.178359,206.92075 L213.998842,206.741233 L213.819325,206.561716 L213.639808,206.023165 L213.460291,205.843648 L212.742224,204.946064 L212.562707,204.58703 L212.024156,203.868963 L206.818167,199.201524 L206.279616,199.201524 L205.741065,199.381041 L204.125413,200.637659 L203.586863,200.817176 L203.227829,200.817176 L202.689278,200.817176 L202.150728,200.637659 L201.073626,199.560558 L200.714593,199.201524 L200.535076,198.84249 L200.535076,198.124423 L200.535076,197.765389 L200.355559,197.585872 L200.176042,197.406355 L198.56039,195.97022 L197.303772,194.175051 L195.68812,191.302781 L195.508603,190.764231 L195.508603,190.046163 L195.508603,189.507613 L195.508603,188.789545 L195.329086,188.430511 L195.149569,188.071477 L194.251985,186.994376 L193.713434,186.635342 L193.354401,186.455826 L193.354401,186.276309 L193.354401,186.096792 L193.713434,184.660657 L193.892951,183.942589 L194.072468,183.583556 L194.251985,183.404039 L194.431502,183.224522 L194.431502,183.045005 L194.431502,182.865488 L193.533918,182.326937 L193.174884,181.788387 L193.174884,181.429353 L193.354401,181.249836 L193.892951,180.890802 L195.329086,180.352252 L195.508603,180.172735 L195.68812,179.813701 L195.867637,179.27515 L195.68812,179.095634 L195.508603,178.916117 L195.329086,178.916117 L194.970053,178.916117 L194.611019,178.7366 L194.251985,178.198049 L194.251985,177.839015 L194.251985,177.479982 L196.406188,174.248678 L196.765221,173.710127 L196.944738,172.633026 L197.124255,172.273992 L197.303772,172.094475 L197.483289,171.914958 L198.201356,171.555925 L198.380873,171.376408 L198.56039,171.196891 L198.919424,170.65834 L199.098941,170.478823 L199.278458,170.299306 L199.817008,170.11979 L201.612177,170.11979 L201.971211,169.940273 L202.330245,169.581239 L202.330245,169.222205 L202.150728,169.042688 L201.971211,168.863171 L200.714593,168.504138 L200.535076,168.145104 L200.355559,167.78607 L200.176042,166.888486 L200.176042,166.708969 L200.355559,166.170418 L200.535076,165.631868 L200.89411,165.272834 L201.971211,164.554766 L202.330245,164.016216 L202.509761,163.657182 L202.330245,162.759598 L196.226671,162.221047 L195.867637,161.862013 L194.431502,160.246361 L192.456816,158.810226 L191.020681,157.553608 L189.225512,156.29699 L189.045996,156.117473 L188.866479,155.937956 L188.686962,155.578922 L188.507445,155.219889 L188.327928,154.860855 L188.148411,154.142787 L188.148411,153.783754 L188.148411,153.42472 L188.148411,153.065686 L188.686962,151.988585 L189.045996,151.629551 L189.225512,151.450034 L191.738749,150.55245 L193.174884,149.475349 L193.713434,149.295832 L197.842323,149.116315 L198.201356,148.936798 L198.739907,147.68018 L200.176042,146.423562 L200.535076,145.885011 L200.714593,145.525977 L200.714593,145.166943 L200.714593,144.80791 L200.535076,144.448876 L199.278458,142.833224 L199.098941,142.833224 L198.739907,142.833224 L198.56039,143.012741 L197.483289,144.089842 L196.047154,144.987427 L195.867637,145.166943 L195.68812,145.34646 L195.329086,145.885011 L195.149569,146.064528 L194.970053,146.244045 L194.611019,146.423562 L194.251985,146.423562 L193.713434,146.423562 L193.533918,146.244045 L193.533918,146.064528 L193.892951,145.525977 L193.892951,145.166943 L193.892951,144.80791 L193.892951,144.448876 L193.713434,144.089842 L193.354401,143.371775 L193.174884,142.833224 L193.174884,142.47419 L193.174884,141.93564 L193.354401,141.576606 L193.533918,141.217572 L193.713434,141.038055 L195.149569,140.140471 L195.508603,139.781437 L195.867637,139.242886 L196.047154,138.883853 L196.047154,138.524819 L196.226671,137.268201 L196.406188,136.72965 L196.585705,136.370616 L196.765221,136.1911 L197.842323,135.652549 L198.02184,135.473032 L198.201356,135.113998 L198.380873,134.216414 L198.380873,133.139313 L198.380873,132.600762 L198.380873,132.241728 L198.739907,131.523661 L198.919424,130.626076 L199.098941,130.267043 L199.278458,130.087526 L199.457975,129.908009 L199.817008,129.908009 L200.89411,129.908009 L201.253143,129.728492 L201.612177,129.369458 L201.971211,128.651391 L201.971211,128.292357 L201.971211,128.11284 L201.073626,127.574289 L200.89411,127.394772 L200.714593,127.035739 L200.176042,126.138154 L200.176042,126.138154 L199.817008,125.958637 L198.56039,125.599604 L197.124255,125.420087 L196.765221,125.24057 L196.585705,125.061053 L196.226671,124.342986 L196.047154,124.163469 L195.867637,123.983952 L194.251985,123.804435 L193.354401,123.445401 L192.81585,122.906851 L192.097783,120.932165 L192.097783,120.573131 L192.097783,120.03458 L192.277299,119.675547 L192.636333,119.136996 L192.81585,118.957479 L193.533918,118.239412 L193.892951,117.700861 L193.892951,117.341827 L193.892951,116.982794 L193.713434,116.62376 L193.533918,116.264726 L193.354401,115.546659 L193.354401,115.187625 L193.533918,114.828591 L194.072468,114.649074 L194.431502,114.469557 L194.790536,114.110523 L195.149569,113.212939 L195.508603,112.674388 L195.867637,112.315355 L196.585705,111.776804 L196.765221,111.597287 L196.944738,111.597287 L197.124255,111.41777 L199.817008,109.263568 L200.355559,108.904534 L201.253143,108.904534 L201.971211,109.084051 L202.150728,109.263568 L203.048312,110.340669 L203.227829,110.520186 L203.407346,110.699703 L203.76638,110.699703 L204.30493,110.699703 L206.459133,109.981635 L207.1772,109.981635 L207.895268,110.161152 L208.254302,110.340669 L211.126572,113.392456 L211.485605,113.571973 L212.024156,113.75149 L212.38319,113.571973 L213.460291,112.674388 L213.998842,112.494872 L214.716909,112.315355 L215.075943,112.135838 L215.25546,111.776804 L215.25546,111.41777 L215.25546,109.981635 L215.25546,109.622602 L215.25546,109.263568 L214.896426,108.365983 L214.716909,107.647916 L212.562707,106.211781 L210.588021,105.852747 L210.228987,105.67323 L209.869954,105.493713 L209.51092,104.596129 L208.254302,103.159994 L208.074785,102.621443 L207.895268,102.262409 L207.895268,101.903376 L207.895268,101.544342 L207.536234,99.9286901 L207.1772,98.6720719 L205.741065,95.4407681 L205.382032,95.0817343 L202.689278,92.2094643 L202.330245,91.6709136 L202.330245,91.3118799 L202.330245,90.9528461 L202.509761,90.7733293 L204.484447,89.5167111 L204.663964,89.1576773 L204.663964,88.7986436 L204.484447,88.0805761 L204.30493,87.5420254 L204.125413,87.1829917 L202.330245,85.208306 L198.919424,82.336036 L198.380873,82.1565191 L196.406188,81.7974853 L195.508603,81.2589347 L195.508603,83.0541035 L195.329086,83.4131372 L194.970053,83.0541035 L194.251985,81.9770022 L193.533918,81.0794178 L186.712276,76.5914958 L186.173726,75.8734283 L185.635175,74.9758439 L184.558074,74.0782595 L182.583388,73.0011583 L180.429185,73.0011583 L170.196723,78.0276309 L168.042521,78.5661815 L161.938947,78.7456984 L161.041363,78.2071477 L160.143778,76.9505296 L159.066677,75.8734283 L157.810059,75.5143946 L156.732957,76.0529452 L156.01489,75.1553608 L155.117306,74.6168102 L154.040204,74.2577764 L153.14262,74.0782595 L153.501654,75.1553608 L155.117306,76.7710127 L155.655856,78.3866646 L153.860687,78.3866646 L147.93663,80.8999009 L146.141462,82.5155528 L144.884843,82.8745866 L143.628225,83.4131372 L142.910158,83.9516879 L142.551124,83.772171 L142.19209,83.5926541 L141.833057,83.4131372 L140.217405,83.5926541 L138.601753,84.1312047 L137.165618,85.0287891 L135.909,86.4649242 L134.831898,88.7986436 L134.113831,89.8757449 L133.216246,90.2347786 L132.677696,90.5938124 L130.523493,93.2865656 L130.523493,93.6455993 L130.164459,94.7227006 L129.625909,95.4407681 L129.446392,94.9022175 L129.266875,94.3636668 L128.907841,94.1841499 L128.548807,94.5431837 L128.369291,95.620285 L128.189774,99.3901394 L128.010257,101.005791 L127.651223,102.082893 L124.060886,104.416612 L122.983784,106.211781 L118.675379,109.622602 L117.598278,110.161152 L116.521177,110.520186 L115.444075,110.699703 L114.546491,111.238253 L107.006782,120.03458 L106.288715,121.470716 L105.929681,121.829749 L106.109198,122.3683 L106.109198,122.727334 L105.570647,123.624918 L106.468231,124.163469 L107.186299,123.804435 L107.904366,122.906851 L108.622434,122.3683 L111.674221,122.727334 L112.930839,122.3683 L113.289873,122.009266 L113.648907,121.650232 L114.00794,121.291199 L114.726008,121.111682 L115.264558,121.291199 L116.34166,122.188783 L117.418761,122.547817 L118.136829,123.445401 L118.854896,123.445401 L119.21393,123.265884 L119.572964,122.906851 L120.291031,122.188783 L119.572964,121.291199 L119.572964,120.214097 L120.111514,119.136996 L121.009099,118.598445 L120.829582,118.239412 L120.650065,118.059895 L122.62475,115.905692 L123.701852,115.008108 L124.778953,114.469557 L128.548807,114.469557 L129.625909,113.75149 L130.523493,113.212939 L134.472864,111.956321 L137.524651,112.494872 L138.960786,112.315355 L140.396921,111.238253 L140.755955,112.315355 L141.294506,112.494872 L141.833057,112.135838 L142.371607,111.41777 L142.551124,111.776804 L142.730641,111.956321 L143.089675,112.135838 L139.858371,114.469557 L139.499337,114.828591 L139.31982,115.367142 L139.31982,116.62376 L139.499337,117.16231 L139.858371,118.598445 L140.037888,120.03458 L139.499337,120.573131 L138.601753,120.932165 L138.422236,121.650232 L138.601753,122.547817 L139.678854,124.702019 L143.807742,129.728492 L144.705327,129.548975 L145.602911,128.830908 L147.039046,128.651391 L146.320978,129.548975 L144.166776,131.344144 L143.628225,131.523661 L143.448708,131.703178 L143.269192,132.062211 L143.089675,133.318829 L142.910158,133.498346 L142.012573,134.216414 L140.935472,135.832066 L140.037888,137.986268 L139.858371,140.140471 L140.396921,141.576606 L142.910158,144.987427 L143.807742,145.705494 L145.243877,145.525977 L147.93663,144.448876 L149.372765,144.448876 L149.372765,145.166943 L146.680012,147.141629 L145.782428,147.500663 L145.243877,147.321146 L144.166776,146.782595 L143.807742,146.962112 L143.448708,147.68018 L143.448708,148.757281 L143.628225,149.834382 L143.987259,150.731967 L143.448708,151.988585 L142.910158,153.783754 L142.551124,155.758439 L142.012573,159.528294 L141.294506,161.502979 L139.678854,164.554766 L136.627067,169.042688 L130.164459,174.607712 L129.087358,174.966745 L128.010257,174.966745 L127.112672,175.146262 L126.394605,175.684813 L124.778953,177.659499 L123.701852,178.557083 L122.62475,179.27515 L121.009099,179.813701 L120.650065,180.352252 L120.470548,180.890802 L120.111514,181.249836 L119.572964,181.429353 L112.930839,181.249836 L110.956153,182.326937 L111.13567,184.840174 L109.340501,183.404039 L108.622434,183.404039 L107.545333,184.48114 L106.288715,186.635342 L105.570647,187.532927 L104.493546,188.250994 L102.698377,188.610028 L102.339343,188.969062 L102.339343,189.687129 L102.51886,190.584714 L102.51886,191.482298 L101.980309,191.841332 L100.723691,191.661815 L98.5694888,190.764231 L97.4923875,190.584714 L97.8514212,191.841332 L96.2357693,192.559399 L95.1586681,192.559399 L92.286398,190.943748 L91.7478474,190.764231 L90.3117123,190.584714 L89.4141279,190.764231 L88.8755773,191.302781 L88.8755773,191.841332 L89.5936448,192.379883 L89.5936448,192.918433 L88.8755773,192.918433 L88.6960604,195.072636 L87.0804085,196.508771 L84.926206,197.406355 L83.3105541,197.585872 L82.5924866,197.944906 L80.9768347,199.560558 L79.8997334,199.919591 L77.9250477,200.099108 L77.3864971,200.637659 L77.7455308,201.71476 L77.7455308,202.253311 L77.2069802,202.612345 L77.0274633,202.791862 L77.2069802,203.150895 L77.3864971,203.509929 L77.3864971,204.227997 L77.0274633,204.407513 L76.6684296,204.766547 L77.7455308,204.766547 L80.7973178,204.227997 L81.5153853,203.689446 L82.4129697,204.407513 L84.5671722,204.766547 L85.4647566,205.664132 L85.8237904,205.125581 L86.5418579,205.843648 L87.0804085,206.92075 L87.2599254,208.177368 L87.2599254,209.433986 L87.6189592,211.588189 L87.4394423,212.485773 L86.5418579,213.383357 L85.6442735,213.742391 L83.8491047,214.101425 L83.1310372,214.819492 L82.4129697,215.717077 L81.874419,216.076111 L81.1563515,216.255627 L80.0792503,216.255627 L81.1563515,216.614661 L83.8491047,218.589347 L83.8491047,219.127897 L83.6695878,220.025482 L84.3876553,220.025482 L84.926206,219.307414 L84.3876553,217.871279 L85.2852397,217.512246 L92.8249486,218.589347 L94.0815668,218.589347 L98.210455,217.691762 L98.9285225,216.794178 L99.1080394,215.896594 L98.3899719,215.178526 L98.7490056,213.921908 L98.5694888,213.20384 L97.8514212,212.844807 L96.9538369,212.844807 L97.6719044,212.485773 L100.723691,212.126739 L102.339343,211.408672 L103.057411,211.049638 L103.057411,211.767705 L101.082725,212.306256 L100.185141,214.101425 L100.544174,216.255627 L102.159826,217.871279 L102.159826,218.40983 L101.441759,218.050796 L100.903208,218.230313 L99.64659,219.127897 L97.1333537,219.666448 L95.3381849,220.743549 L94.6201174,220.923066 L93.9020499,220.743549 L92.4659149,220.204999 L91.7478474,220.204999 L91.9273642,220.564033 L92.1068811,221.2821 L92.286398,221.641134 L88.1575098,221.102583 L87.798476,221.641134 L88.8755773,222.897752 L91.5683305,223.615819 L92.286398,225.231471 L91.7478474,226.129056 L93.0044655,227.02664 L96.4152862,228.103741 L96.9538369,228.462775 L97.3128706,228.462775 L97.8514212,228.283258 L98.210455,227.385674 L99.2875563,226.847123 L99.8261069,226.308573 L100.185141,225.590505 L100.723691,224.872438 L101.621276,224.333887 L102.51886,224.15437 L107.365816,224.333887 L108.2634,223.436303 L108.622434,223.077269 L109.340501,223.795336 L109.879052,223.974853 L110.776637,221.461617 L110.956153,220.743549 L110.956153,220.384516 L111.13567,220.204999 L111.674221,220.204999 L111.853738,218.050796 L113.648907,216.794178 L115.982626,216.255627 L117.598278,216.076111 L121.727166,216.614661 L123.701852,216.614661 L125.497021,215.53756 L124.778953,214.819492 L124.419919,213.921908 L124.599436,213.383357 L125.676537,213.20384 L126.215088,213.921908 L126.753639,214.280942 L127.292189,214.460459 L127.651223,214.280942 L128.010257,213.562874 L128.369291,213.20384 L128.728324,212.306256 L129.087358,211.947222 L129.446392,212.485773 L129.446392,213.20384 L129.266875,214.101425 L128.907841,214.639976 L128.728324,214.819492 L129.266875,215.896594 L130.164459,216.435144 L131.062044,216.614661 L131.959628,216.614661 L131.421078,217.332729 L130.523493,217.512246 L128.369291,217.153212 L129.087358,218.768864 L130.343976,220.384516 L131.780111,221.461617 L133.036729,222.000168 L137.345135,221.2821 L138.063202,220.743549 L140.935472,222.359201 L143.089675,222.538718 L143.628225,222.538718 L143.987259,222.179684 L144.52581,221.461617 L144.705327,221.641134 L144.705327,222.179684 L144.705327,222.718235 L143.628225,224.692921 L141.114989,225.410988 L138.422236,225.590505 L136.806584,226.129056 L136.44755,225.770022 L136.088516,225.410988 L136.088516,224.872438 L136.44755,224.872438 L136.088516,224.15437 L135.729483,224.692921 L135.190932,225.770022 L135.011415,226.129056 L133.216246,226.667606 L133.216246,227.924225 L133.754797,229.001326 L133.934314,229.89891 L132.857213,230.616978 L133.036729,231.155528 L133.216246,231.335045 L133.395763,231.694079 L134.293348,231.694079 L137.524651,233.130214 L138.242719,233.130214 L138.422236,232.23263 L138.960786,232.23263 L139.499337,232.591663 L140.037888,232.77118 L140.576438,232.412147 L141.294506,231.514562 L141.833057,230.976011 L142.371607,230.796495 L142.910158,230.796495 L144.166776,231.155528 L144.705327,231.514562 L145.06436,231.694079 L145.243877,231.514562 L145.782428,230.796495 L145.961945,230.616978 L146.320978,230.616978 L146.680012,230.796495 L147.039046,230.976011 L147.218563,231.335045 L147.39808,231.873596 L147.757114,231.694079 L147.93663,231.335045 L147.93663,231.155528 L150.27035,231.155528 L149.911316,230.437461 L149.372765,229.539876 L149.013732,228.642292 L149.013732,227.744708 L149.552282,227.206157 L150.27035,226.667606 L150.988417,226.308573 L156.732957,225.590505 L157.451025,225.770022 L157.989576,226.308573 L158.88716,227.924225 L159.425711,228.642292 L160.323295,229.180843 L160.682329,229.719393 L161.400396,230.796495 L161.938947,232.23263 L162.477498,233.848282 L162.836531,235.463933 L162.657014,235.463933 L162.477498,235.463933 L162.297981,235.64345 L162.297981,236.002484 L162.836531,236.900068 L163.913633,237.97717 L165.170251,238.51572 L166.247352,237.97717 L166.96542,237.97717 L170.196723,240.669923 L172.70996,244.080744 L173.607544,244.619294 L187.07131,245.875912 L190.841164,244.260261 L191.738749,244.439777 L192.81585,244.798811 L193.713434,243.72171 L194.072468,241.926541 L193.354401,240.131372 L193.713434,239.951855 L194.431502,239.772339 L194.790536,239.592822 L194.970053,239.233788 L195.329086,238.156687 L195.508603,237.797653 L196.944738,236.361518 L197.842323,235.64345 L198.739907,235.284417 L201.791694,233.309731 L202.150728,232.77118 L203.586863,230.976011 L204.125413,230.616978 L204.484447,230.976011 L204.843481,231.514562 L205.202515,232.053113 L205.920582,232.412147 L210.408504,232.053113 L212.742224,231.155528 L215.794011,229.001326 L218.307247,228.462775 L219.384348,227.565191 L220.820483,225.770022 L220.461449,223.974853 L220.461449,223.077269 L220.102416,222.538718 L219.743382,222.179684 L219.743382,221.820651 L219.922899,221.641134 L220.820483,221.2821 L221,220.923066 L221,221.102583 L220.820483,220.743549 L220.640966,220.204999 L220.281932,218.768864 L219.743382,217.512246 L219.743382,217.153212 L219.743382,216.794178 L220.102416,216.255627 L220.281932,215.896594 L220.461449,215.178526 L220.461449,214.639976 L220.102416,213.921908 L219.922899,213.383357 L219.922899,212.66529 L220.102416,212.126739 L217.230146,211.588189 L217.230146,211.588189 Z M118.136829,85.0287891 L119.21393,86.1058904 L119.393447,86.8239579 L119.393447,87.5420254 L119.393447,87.7215423 L119.393447,87.9010592 L119.393447,88.6191267 L119.393447,88.7986436 L119.572964,88.7986436 L119.931997,88.6191267 L120.111514,88.6191267 L121.906683,90.2347786 L121.906683,90.5938124 L122.62475,90.2347786 L123.881369,88.4396098 L124.778953,88.0805761 L125.317504,88.4396098 L124.95847,89.3371942 L124.419919,90.2347786 L124.060886,90.5938124 L123.881369,90.9528461 L123.881369,91.6709136 L123.881369,92.568498 L123.881369,93.1070487 L124.240402,93.2865656 L124.599436,93.1070487 L124.95847,92.7480149 L124.95847,92.568498 L126.394605,93.1070487 L127.112672,93.2865656 L127.651223,93.1070487 L131.062044,91.132363 L131.959628,90.0552617 L133.934314,88.6191267 L134.113831,88.7986436 L134.293348,88.7986436 L134.293348,88.0805761 L134.293348,87.3625086 L134.293348,87.0034748 L134.472864,86.8239579 L134.652381,86.4649242 L135.729483,85.208306 L136.986101,84.1312047 L138.422236,83.4131372 L139.678854,83.0541035 L140.935472,82.336036 L142.730641,78.7456984 L143.807742,77.4890802 L143.089675,76.9505296 L142.371607,76.7710127 L140.755955,76.7710127 L140.576438,76.5914958 L139.858371,76.0529452 L139.499337,75.8734283 L139.140303,76.0529452 L138.601753,76.9505296 L138.242719,77.1300465 L137.524651,77.3095634 L136.268033,77.6685971 L135.549966,77.6685971 L134.831898,77.4890802 L134.652381,76.9505296 L134.472864,76.2324621 L134.113831,75.1553608 L133.216246,74.0782595 L133.216246,73.8987427 L133.036729,73.7192258 L133.036729,73.1806751 L133.036729,72.6421245 L133.036729,72.1035739 L132.677696,72.1035739 L131.959628,71.7445401 L131.241561,71.2059895 L131.241561,71.0264726 L131.062044,70.487922 L130.882527,69.4108207 L130.70301,68.3337194 L130.164459,67.7951688 L128.189774,66.7180675 L127.112672,66.7180675 L123.342818,66 L122.62475,66 L115.803109,68.3337194 L114.905525,69.0517869 L115.444075,70.3084051 L115.623592,71.5650232 L115.444075,74.6168102 L115.444075,76.5914958 L115.264558,78.0276309 L114.905525,78.9252153 L114.905525,79.6432828 L115.803109,80.8999009 L118.136829,85.0287891 L118.136829,85.0287891 Z" id="Shape" fill="#006D5B" sketch:type="MSShapeGroup"></path>
            <circle id="Oval-2" fill="#FA8D3E" sketch:type="MSShapeGroup" cx="193.5" cy="241.5" r="7.5"></circle>
        </g>
    </g>
</svg>