<?xml version="1.0" encoding="UTF-8" standalone="no"?>
<svg width="320px" height="320px" viewBox="0 0 320 320" version="1.1" xmlns="http://www.w3.org/2000/svg" xmlns:xlink="http://www.w3.org/1999/xlink" xmlns:sketch="http://www.bohemiancoding.com/sketch/ns">
    <!-- Generator: Sketch 3.3.3 (12072) - http://www.bohemiancoding.com/sketch -->
    <title>icon--law</title>
    <desc>Created with Sketch.</desc>
    <defs></defs>
    <g id="Page-1" stroke="none" stroke-width="1" fill="none" fill-rule="evenodd" sketch:type="MSPage">
        <g id="icon--law" sketch:type="MSLayerGroup">
            <g id="Page-1" sketch:type="MSShapeGroup">
                <g id="icon-law">
                    <circle id="Oval-1" fill="#EFEFEF" cx="160" cy="160" r="160"></circle>
                    <path d="M143.114754,211.510638 L97.2131148,211.510638 C95.6295082,211.510638 94.3442623,210.226702 94.3442623,208.638298 L94.3442623,197.148936 C94.3442623,195.560532 95.6295082,194.276596 97.2131148,194.276596 L143.114754,194.276596 C144.698361,194.276596 145.983607,195.560532 145.983607,197.148936 L145.983607,208.638298 C145.983607,210.226702 144.698361,211.510638 143.114754,211.510638 L143.114754,211.510638 L143.114754,211.510638 Z M100.081967,205.765957 L140.245902,205.765957 L140.245902,200.021277 L100.081967,200.021277 L100.081967,205.765957 L100.081967,205.765957 Z" id="Shape" fill="#006D5B"></path>
                    <path d="M157.459016,223 L82.8688525,223 C81.2852459,223 80,221.716064 80,220.12766 C80,215.161383 83.597541,205.765957 97.2131148,205.765957 L143.114754,205.765957 C156.730328,205.765957 160.327869,215.161383 160.327869,220.12766 C160.327869,221.716064 159.042623,223 157.459016,223 L157.459016,223 L157.459016,223 Z M86.3745902,217.255319 L153.95041,217.255319 C152.917623,214.730532 150.20082,211.510638 143.120492,211.510638 L97.2188525,211.510638 C90.1098361,211.510638 87.407377,214.747766 86.3745902,217.255319 L86.3745902,217.255319 L86.3745902,217.255319 Z" id="Shape" fill="#006D5B"></path>
                    <g id="Group" transform="translate(92.475410, 90.000000)" fill="#006D5B">
                        <path d="M151.04918,118.638298 C150.57582,118.638298 150.105328,118.520532 149.677869,118.290745 L56.8360656,67.8151064 C55.4618852,67.0682979 54.9397541,65.3621277 55.6569672,63.9719149 L60.9270492,53.7664894 C61.2770492,53.0857447 61.8852459,52.5744681 62.6139344,52.3446809 C63.3454918,52.117766 64.1344262,52.1867021 64.8114754,52.5428723 L158.12377,101.731702 C159.50082,102.461277 160.051639,104.161702 159.354508,105.55766 L153.616803,117.047021 C153.269672,117.742128 152.652869,118.270638 151.912705,118.50617 C151.628689,118.59234 151.338934,118.638298 151.04918,118.638298 L151.04918,118.638298 L151.04918,118.638298 Z M62.0430328,64.1097872 L149.809836,111.827979 L152.965574,105.511702 L64.6909836,58.9769149 L62.0430328,64.1097872 L62.0430328,64.1097872 Z" id="Shape"></path>
                        <path d="M47.3516393,88.4184043 C46.9127049,88.4184043 46.4565574,88.3178723 46.0377049,88.1053191 L12.9110656,70.9459574 C12.2397541,70.5984043 11.7262295,69.9923404 11.4938525,69.2685106 C11.2643443,68.5389362 11.3303279,67.7547872 11.6803279,67.0769149 L38.0364754,16.0469149 C38.7622951,14.6394681 40.4922131,14.0879787 41.9065574,14.8089362 L75.0360656,31.9625532 C75.707377,32.3129787 76.2209016,32.9190426 76.4532787,33.6428723 C76.6827869,34.3695745 76.6168033,35.1537234 76.2668033,35.8344681 L49.9106557,86.8615957 C49.3942623,87.8496809 48.3959016,88.4184043 47.3516393,88.4184043 L47.3516393,88.4184043 L47.3516393,88.4184043 Z M18.095082,67.1659574 L46.1266393,81.6741489 L69.8463115,35.7482979 L41.8147541,21.237234 L18.095082,67.1659574 L18.095082,67.1659574 Z" id="Shape"></path>
                        <path d="M47.1852459,101.263511 C46.7319672,101.263511 46.2786885,101.151489 45.8684426,100.944681 L2.54303279,78.5145745 C1.14016393,77.785 0.58360656,76.0529787 1.31229508,74.6369149 L6.58237705,64.4343617 C6.93237705,63.7564894 7.53483607,63.2480851 8.26065574,63.0154255 C8.9807377,62.7856383 9.7696721,62.8517021 10.452459,63.1992553 L53.775,85.6264894 C55.1807377,86.3560638 55.7344262,88.0880851 55.0057377,89.5041489 L49.7356557,99.709574 C49.3856557,100.381702 48.7831967,100.892979 48.057377,101.128511 C47.7704918,101.220426 47.475,101.263511 47.1852459,101.263511 L47.1852459,101.263511 L47.1852459,101.263511 Z M7.72991803,74.7288298 L45.9545082,94.5221277 L48.5881148,89.4237234 L10.3635246,69.6304255 L7.72991803,74.7288298 L7.72991803,74.7288298 Z" id="Shape"></path>
                        <path d="M78.8028689,40.0280851 C78.3639344,40.0280851 77.9106557,39.9275532 77.4918033,39.7121277 L34.9811475,17.7875532 C33.5840164,17.0694681 33.0245902,15.3575532 33.7245902,13.9501064 L39.4622951,2.46074468 C39.8122951,1.76276596 40.4290984,1.23425532 41.1778689,1.00159574 C41.9209016,0.76606383 42.7327869,0.85223404 43.4127049,1.22851064 L85.4586066,24.4312766 C86.8213115,25.1838298 87.3348361,26.8842553 86.6204918,28.2658511 L81.3504098,38.4741489 C80.8454918,39.462234 79.8471311,40.0280851 78.8028689,40.0280851 L78.8028689,40.0280851 L78.8028689,40.0280851 Z M40.1278689,13.9788298 L77.575,33.2924468 L80.2459016,28.1164894 L43.2606557,7.70276596 L40.1278689,13.9788298 L40.1278689,13.9788298 Z" id="Shape"></path>
                    </g>
                </g>
            </g>
        </g>
    </g>
</svg>