<?xml version="1.0" encoding="UTF-8" standalone="no"?>
<svg width="320px" height="320px" viewBox="0 0 320 320" version="1.1" xmlns="http://www.w3.org/2000/svg" xmlns:xlink="http://www.w3.org/1999/xlink" xmlns:sketch="http://www.bohemiancoding.com/sketch/ns">
    <!-- Generator: Sketch 3.3.3 (12072) - http://www.bohemiancoding.com/sketch -->
    <title>icon--mortarboard</title>
    <desc>Created with Sketch.</desc>
    <defs></defs>
    <g id="Page-1" stroke="none" stroke-width="1" fill="none" fill-rule="evenodd" sketch:type="MSPage">
        <g id="icon--mortarboard" sketch:type="MSLayerGroup">
            <g id="Page-1" sketch:type="MSShapeGroup">
                <g id="icon--mortarboard">
                    <circle id="Oval-1" fill="#EFEFEF" cx="160" cy="160" r="160"></circle>
                    <g id="Page-1" transform="translate(59.000000, 89.000000)" fill="#006D5B">
                        <path d="M192.965664,33.4166746 C192.965664,31.2715413 191.580438,29.4082504 189.518295,28.7799768 L99.3942318,1.31600673 C97.8363426,0.840397786 96.1391467,0.836483309 94.5753716,1.31600673 L4.45130768,28.7799768 C2.39505141,29.406293 1.00982534,31.2676268 1.00393911,33.4108029 C0.992166648,36.3955916 0.423164437,39.5663179 3.72926349,41.0420757 C3.87445716,41.1066645 42.8432603,53.8463297 42.9923781,53.8952607 C42.5901524,67.8581998 41.785701,80.2612199 37.0374756,90.3938434 C35.764088,93.1124477 37.5986296,96.2655587 40.5692135,96.5376149 C43.5908115,96.8175003 46.8969105,97.5299353 50.3364308,98.5281267 L50.3364308,116.29398 C47.2383119,117.415477 45.6921955,120.854345 46.9518487,123.893937 C43.0787095,126.360058 41.4639205,130.812775 42.2075475,137.210988 C42.7471185,141.879001 45.5666226,151.46164 52.7026951,157.76982 C53.6150608,158.574245 55.0650354,157.987073 55.1474425,156.769672 C55.5771374,150.402774 61.8106546,142.213689 62.3894673,137.210988 C63.1899945,130.32738 61.6752714,126.035155 57.694218,123.725614 C58.8910847,120.566631 57.1624952,117.345017 54.2586219,116.29398 L54.2586219,99.7592292 C68.197214,104.509447 82.5439179,112.606542 93.766996,119.02237 C95.7506555,120.145825 98.2130613,120.145825 100.196721,119.02237 C112.271341,112.113319 136.756095,98.0720898 153.394504,96.5376149 C156.380784,96.259687 158.199629,93.1085332 156.928204,90.3918862 C152.460555,80.8581776 151.267613,69.7508494 150.806524,53.948106 L190.046095,41.1144936 C190.110843,41.0929639 190.171668,41.069477 190.236416,41.0420757 C193.509159,39.5858903 192.965664,36.489539 192.965664,33.4166746 L192.965664,33.4166746 L192.965664,33.4166746 Z M40.9321977,92.6387959 C40.6476966,92.6133518 40.4750338,92.3099798 40.5947205,92.0516244 C45.5214949,81.5392966 46.4495571,69.0990889 46.8792518,55.1655084 L50.340355,56.2967923 L50.340355,94.4805573 C47.0499525,93.5743559 43.8694264,92.9088948 40.9321977,92.6387959 L40.9321977,92.6387959 L40.9321977,92.6387959 Z M52.3004694,124.535911 C49.6183108,124.535911 48.4135957,121.14206 50.5640317,119.472535 C51.2998104,120.924806 53.3070147,120.920892 54.0388693,119.472535 C56.1814569,121.138145 54.9865523,124.535911 52.3004694,124.535911 L52.3004694,124.535911 L52.3004694,124.535911 Z M54.262546,95.6607721 L54.262546,57.5807406 C97.5577283,71.7413609 94.714679,70.9095346 96.0037634,71.0778571 L96.0037634,115.738124 C94.0416868,114.931742 73.3005752,101.876962 54.262546,95.6607721 L54.262546,95.6607721 L54.262546,95.6607721 Z M153.374883,92.0516244 C153.502417,92.3178089 153.317982,92.6113946 153.037406,92.6387959 C132.343384,94.5490606 100.679392,114.624455 97.9658398,115.740082 L97.9658398,71.0778571 C99.2568859,70.9095346 95.7447693,71.9586144 146.925537,55.2183539 C147.335611,68.4708155 148.295066,81.2104805 153.374883,92.0516244 L153.374883,92.0516244 L153.374883,92.0516244 Z M188.70011,37.4368424 L98.1326168,67.0576893 C97.3831037,67.3023441 96.5806139,67.3003869 95.8428731,67.0596465 L54.5058435,53.5390432 C54.7667997,52.5643385 55.2455464,51.6679233 55.8910696,50.9065575 L95.1326013,63.6716668 C96.3961787,64.0866013 97.8324192,64.108131 99.160745,63.6716668 L185.908075,35.4052289 C187.152031,35.0020378 186.522205,33.1348323 185.297869,33.5458524 L98.5525012,61.8142474 C97.6538702,62.1078332 96.6453624,62.1097904 95.7428072,61.8142474 L57.7118767,49.4425432 C57.9551742,49.3035793 58.1788509,49.1411284 58.4437312,49.0315231 L97.744125,32.5887628 C100.133935,31.5866567 98.6290214,27.977509 96.2274401,28.9776579 L56.927046,45.4204181 C55.4966922,46.0193331 54.2605839,46.9059621 53.2481524,47.988315 L8.34210555,33.3814444 C7.11188353,32.9802104 6.4938294,34.8376298 7.73386181,35.2427782 L51.9845751,49.6363098 C51.4646248,50.4681361 51.0467025,51.3645514 50.7700497,52.3177265 L5.26949361,37.4368424 C5.04189273,37.3076647 4.90258529,37.0649672 4.90847152,36.7968255 C4.92024397,36.2546704 4.9261302,33.9607869 4.92809228,33.4205891 C4.92809228,33.0056546 5.19885885,32.6455227 5.5971604,32.5241739 L95.7212244,5.0602039 C96.5394103,4.80967738 97.4282311,4.80967738 98.2464167,5.0602039 L188.372443,32.5241739 C188.772707,32.6455227 189.041511,33.0056546 189.041511,33.4166746 C189.041511,35.0705412 189.047397,36.2918579 189.059169,36.7987827 C189.065056,37.0649672 188.925749,37.3096219 188.70011,37.4368424 Z M56.0354112,126.143871 C58.1544539,127.265369 60.36179,129.572953 59.5082868,136.914554 C59.1708096,139.813225 56.055032,144.753294 53.9457996,150.080898 C54.0497896,146.418905 55.2289977,143.839264 56.6024513,139.852369 C56.6848585,139.588142 56.3159881,139.453093 56.2041497,139.691876 C54.1282727,143.880366 51.7070702,147.765484 51.9680264,152.699682 C47.4905676,147.172441 45.5598843,140.257518 45.1733551,136.914554 C44.5513769,131.561507 45.7521678,128.085452 48.7992727,126.271091 C50.1275986,127.308428 51.7894774,127.74685 53.5219911,127.390632 C53.5376877,127.410205 53.5435739,127.431734 53.5631947,127.449349 L53.573005,127.459135 C54.4932189,128.359465 55.7960378,129.608183 56.2021877,130.827543 L56.2100359,130.854944 C56.2963673,131.117214 56.6887827,131.046754 56.6828964,130.774697 C56.6554274,129.253923 55.9510418,127.9093 55.3310257,126.656667 C55.5802094,126.50596 55.8117344,126.331766 56.0354112,126.143871 Z" id="Shape"></path>
                    </g>
                </g>
            </g>
        </g>
    </g>
</svg>