<?xml version="1.0" encoding="UTF-8" standalone="no"?>
<svg width="320px" height="320px" viewBox="0 0 320 320" version="1.1" xmlns="http://www.w3.org/2000/svg" xmlns:xlink="http://www.w3.org/1999/xlink" xmlns:sketch="http://www.bohemiancoding.com/sketch/ns">
    <!-- Generator: Sketch 3.3.3 (12072) - http://www.bohemiancoding.com/sketch -->
    <title>Shape + Path Copy</title>
    <desc>Created with Sketch.</desc>
    <defs></defs>
    <g id="Page-1" stroke="none" stroke-width="1" fill="none" fill-rule="evenodd" sketch:type="MSPage">
        <g id="Shape-+-Path-Copy" sketch:type="MSLayerGroup">
            <circle id="Oval-1" fill="#EFEFEF" sketch:type="MSShapeGroup" cx="160" cy="160" r="160"></circle>
            <path d="M151.595009,74.2861634 C124.52927,74.2861634 102.205795,95.1699717 99.9023281,121.659843 C83.3461585,125.978844 70.973661,141.230675 70.973661,159.226512 C70.973661,180.245649 87.6737973,197.233718 108.405001,198.097519 L132.430163,198.097519 L154.475782,160.666179 L176.521402,198.097519 L229.339902,198.097519 C243.592604,198.097519 255.253906,186.436217 255.253906,172.183514 C255.253906,157.930811 243.592604,146.269509 229.339902,146.269509 L226.325239,146.404838 C225.029539,134.311636 215.383771,124.665868 203.290568,123.370167 C201.994868,96.0164959 179.239493,74.2861634 151.597888,74.2861634 L151.595009,74.2861634 Z" id="Shape" fill="#006D5B" sketch:type="MSShapeGroup"></path>
            <path d="M154.474342,169.405141 L134.319006,203.957147 L148.715675,203.957147 L148.715675,234.325481 C145.280629,236.31942 142.957007,240.010726 142.957007,244.267821 C142.957007,250.628269 148.113894,255.785156 154.474342,255.785156 C160.834791,255.785156 165.991678,250.628269 165.991678,244.267821 C165.991678,240.010726 163.668055,236.31798 160.23301,234.325481 L160.23301,203.957147 L174.629679,203.957147 L154.474342,169.405141 L154.474342,169.405141 Z" id="Path-Copy" fill="#FA8D3E" sketch:type="MSShapeGroup"></path>
        </g>
    </g>
</svg>