<?xml version="1.0" encoding="UTF-8" standalone="no"?>
<svg width="320px" height="320px" viewBox="0 0 320 320" version="1.1" xmlns="http://www.w3.org/2000/svg" xmlns:xlink="http://www.w3.org/1999/xlink" xmlns:sketch="http://www.bohemiancoding.com/sketch/ns">
    <!-- Generator: Sketch 3.3.3 (12072) - http://www.bohemiancoding.com/sketch -->
    <title>icon--eye</title>
    <desc>Created with Sketch.</desc>
    <defs></defs>
    <g id="Page-1" stroke="none" stroke-width="1" fill="none" fill-rule="evenodd" sketch:type="MSPage">
        <g id="icon--eye" sketch:type="MSLayerGroup">
            <circle id="Oval-1" fill="#EFEFEF" sketch:type="MSShapeGroup" cx="160" cy="160" r="160"></circle>
            <g id="Path-Copy-+-Group" transform="translate(60.000000, 108.000000)" sketch:type="MSShapeGroup">
                <path d="M82.325,41.9047619 C82.325,37.7231775 85.7164431,34.3333333 89.9,34.3333333 C94.0835569,34.3333333 97.475,37.7231775 97.475,41.9047619 C97.475,46.0863463 94.0835569,49.4761905 89.9,49.4761905 C85.7164431,49.4761905 82.325,46.0863463 82.325,41.9047619 L82.325,41.9047619 Z M101,75 C113.550671,75 123.725,64.8304678 123.725,52.2857143 C123.725,39.7409608 113.550671,29.5714286 101,29.5714286 C88.4493292,29.5714286 78.275,39.7409608 78.275,52.2857143 C78.275,64.8304678 88.4493292,75 101,75 L101,75 Z" id="Path-Copy" fill="#FA8D3E"></path>
                <g id="Group" fill="#006D5B">
                    <g id="Shape">
                        <path d="M146.45,53 C146.45,27.9104928 126.101342,7.57142857 101,7.57142857 C75.8986581,7.57142857 55.55,27.9104928 55.55,53 C55.55,78.0895072 75.8986581,98.4285714 101,98.4285714 C126.101342,98.4285714 146.45,78.0895072 146.45,53 L146.45,53 Z M63.125,53 C63.125,32.0920774 80.0822152,15.1428571 101,15.1428571 C121.917785,15.1428571 138.875,32.0920774 138.875,53 C138.875,73.9079226 121.917785,90.8571429 101,90.8571429 C80.0822152,90.8571429 63.125,73.9079226 63.125,53 L63.125,53 Z M171.013752,80.695522 C178.767487,75.2013275 185.801945,69.3192252 191.995843,63.4333998 C194.168205,61.3690869 196.082742,59.4490264 197.723877,57.7211403 C198.71992,56.672446 199.410662,55.9123641 199.780365,55.4888214 L201.952813,53 L199.780365,50.5111786 C199.410662,50.0876359 198.71992,49.327554 197.723877,48.2788597 C196.082742,46.5509736 194.168205,44.6309131 191.995843,42.5666002 C185.801945,36.6807748 178.767487,30.7986725 171.013752,25.304478 C148.724864,9.51086666 125.06169,0 100.976407,0 C76.8911238,0 53.2279489,9.51086666 30.9390613,25.304478 C23.1853259,30.7986725 16.1508683,36.6807748 9.95697011,42.5666002 C7.78460833,44.6309131 5.87007152,46.5509736 4.22893666,48.2788597 C3.2328936,49.327554 2.54215106,50.0876359 2.17244814,50.5111786 L0,53 L2.17244814,55.4888214 C2.54215106,55.9123641 3.2328936,56.672446 4.22893666,57.7211403 C5.87007152,59.4490264 7.78460833,61.3690869 9.95697011,63.4333998 C16.1508683,69.3192252 23.1853259,75.2013275 30.9390613,80.695522 C53.2279489,96.4891333 76.8911238,106 100.976407,106 C125.06169,106 148.724864,96.4891333 171.013752,80.695522 L171.013752,80.695522 Z M35.3199606,74.5187637 C27.8806033,69.2473332 21.1207337,63.5948373 15.1762964,57.9460645 C13.1002406,55.9732679 11.654215,54.6363717 10.1,53 C11.654215,51.3636283 13.1002406,50.0267321 15.1762964,48.0539355 C21.1207337,42.4051627 27.8806033,36.7526668 35.3199606,31.4812363 C56.43991,16.5159191 78.6939331,7.57142857 100.976407,7.57142857 C123.25888,7.57142857 145.512903,16.5159191 166.632852,31.4812363 C174.07221,36.7526668 180.83208,42.4051627 186.776517,48.0539355 C188.852573,50.0267321 190.675991,51.3636283 192.230206,53 C190.675991,54.6363717 188.852573,55.9732679 186.776517,57.9460645 C180.83208,63.5948373 174.07221,69.2473332 166.632852,74.5187637 C145.512903,89.4840809 123.25888,98.4285714 100.976407,98.4285714 C78.6939331,98.4285714 56.43991,89.4840809 35.3199606,74.5187637 L35.3199606,74.5187637 Z"></path>
                    </g>
                </g>
            </g>
        </g>
    </g>
</svg>