<?xml version="1.0" encoding="UTF-8" standalone="no"?>
<svg width="320px" height="320px" viewBox="0 0 320 320" version="1.1" xmlns="http://www.w3.org/2000/svg" xmlns:xlink="http://www.w3.org/1999/xlink" xmlns:sketch="http://www.bohemiancoding.com/sketch/ns">
    <!-- Generator: Sketch 3.3.3 (12072) - http://www.bohemiancoding.com/sketch -->
    <title>icon--complete</title>
    <desc>Created with Sketch.</desc>
    <defs></defs>
    <g id="Page-1" stroke="none" stroke-width="1" fill="none" fill-rule="evenodd" sketch:type="MSPage">
        <g id="icon--complete" sketch:type="MSLayerGroup">
            <circle id="Oval-1" fill="#EFEFEF" sketch:type="MSShapeGroup" cx="160" cy="160" r="160"></circle>
            <g id="Page-1" transform="translate(79.000000, 88.000000)" sketch:type="MSShapeGroup">
                <g id="complete">
                    <path d="M22.0824742,93.0293638 C33.8362887,93.0293638 43.396701,83.4848557 43.396701,71.750289 C43.396701,71.3877456 43.385567,71.0806937 43.3187629,70.7144509 C43.025567,69.075607 41.4556701,67.9916763 39.807835,68.2654335 C38.1674227,68.5613873 37.057732,70.1114451 37.3509278,71.750289 C37.3509278,80.1553757 30.5035052,87.0030054 22.0824742,87.0030054 C13.6465979,87.0030054 6.78432989,80.1553757 6.78432989,71.750289 C6.78432989,63.36 13.6465979,56.5345665 22.0824742,56.5345665 C23.3962887,56.5345665 24.6581443,56.7084393 25.8346392,57.0487861 C27.4416495,57.5186127 29.1154639,56.5937572 29.5868041,54.9956069 C30.0507217,53.3974566 29.1265979,51.7253179 27.523299,51.2628902 C25.8012371,50.7634682 23.967835,50.5082081 22.0824742,50.5082081 C10.3101031,50.5082081 0.742268041,60.0379191 0.742268041,71.7539884 C0.742268041,83.4848557 10.3138144,93.0293638 22.0824742,93.0293638 L22.0824742,93.0293638 L22.0824742,93.0293638 Z" id="Shape" fill="#006D5B"></path>
                    <path d="M54.4008248,16.7287861 L160.203711,16.7287861 C161.042474,16.7287861 161.717938,16.0517919 161.717938,15.2194219 C161.717938,14.3907515 161.038763,13.7137573 160.203711,13.7137573 L54.4008248,13.7137573 C53.5657732,13.7137573 52.8903093,14.3944508 52.8903093,15.2194219 C52.8903093,16.0517919 53.5657732,16.7287861 54.4008248,16.7287861 L54.4008248,16.7287861 L54.4008248,16.7287861 Z" id="Shape" fill="#006D5B"></path>
                    <path d="M54.4008248,22.7551445 L105.791753,22.7551445 C106.626804,22.7551445 107.302268,22.0781503 107.302268,21.2494798 C107.302268,20.4208092 106.623092,19.743815 105.791753,19.743815 L54.4008248,19.743815 C53.5657732,19.743815 52.8903093,20.4208092 52.8903093,21.2494798 C52.8903093,22.0818497 53.5657732,22.7551445 54.4008248,22.7551445 L54.4008248,22.7551445 L54.4008248,22.7551445 Z" id="Shape" fill="#006D5B"></path>
                    <path d="M160.207422,61.9320231 L54.4008248,61.9320231 C53.5657732,61.9320231 52.8903093,62.6090174 52.8903093,63.4376878 C52.8903093,64.2700578 53.5657732,64.9470521 54.4008248,64.9470521 L160.203711,64.9470521 C161.042474,64.9470521 161.717938,64.2700578 161.717938,63.4376878 C161.72165,62.6053179 161.042474,61.9320231 160.207422,61.9320231 L160.207422,61.9320231 L160.207422,61.9320231 Z" id="Shape" fill="#006D5B"></path>
                    <path d="M54.4008248,70.969711 L105.791753,70.969711 C106.626804,70.969711 107.302268,70.2927168 107.302268,69.4640462 C107.302268,68.6353757 106.623092,67.9583815 105.791753,67.9583815 L54.4008248,67.9583815 C53.5657732,67.9583815 52.8903093,68.6353757 52.8903093,69.4640462 C52.8903093,70.2927168 53.5657732,70.969711 54.4008248,70.969711 L54.4008248,70.969711 L54.4008248,70.969711 Z" id="Shape" fill="#006D5B"></path>
                    <path d="M160.207422,113.157919 L54.4008248,113.157919 C53.5657732,113.157919 52.8903093,113.834913 52.8903093,114.663584 C52.8903093,115.492254 53.5657732,116.169248 54.4008248,116.169248 L160.203711,116.169248 C161.042474,116.169248 161.717938,115.488555 161.717938,114.663584 C161.72165,113.834913 161.042474,113.157919 160.207422,113.157919 L160.207422,113.157919 L160.207422,113.157919 Z" id="Shape" fill="#006D5B"></path>
                    <path d="M105.795464,119.184278 L54.4008248,119.184278 C53.5657732,119.184278 52.8903093,119.861272 52.8903093,120.689943 C52.8903093,121.518613 53.5657732,122.195607 54.4008248,122.195607 L105.791753,122.195607 C106.626804,122.195607 107.302268,121.514914 107.302268,120.689943 C107.305979,119.861272 106.626804,119.184278 105.795464,119.184278 L105.795464,119.184278 L105.795464,119.184278 Z" id="Shape" fill="#006D5B"></path>
                    <path d="M54.4008248,28.7852023 L105.791753,28.7852023 C106.626804,28.7852023 107.302268,28.1082081 107.302268,27.2758382 C107.302268,26.4471676 106.623092,25.7701734 105.791753,25.7701734 L54.4008248,25.7701734 C53.5657732,25.7701734 52.8903093,26.4471676 52.8903093,27.2758382 C52.8903093,28.1082081 53.5657732,28.7852023 54.4008248,28.7852023 L54.4008248,28.7852023 L54.4008248,28.7852023 Z" id="Shape" fill="#006D5B"></path>
                    <path d="M54.4008248,76.9997688 L105.791753,76.9997688 C106.626804,76.9997688 107.302268,76.3227745 107.302268,75.4904046 C107.302268,74.6617341 106.623092,73.9847398 105.791753,73.9847398 L54.4008248,73.9847398 C53.5657732,73.9847398 52.8903093,74.6654335 52.8903093,75.4904046 C52.8903093,76.3227745 53.5657732,76.9997688 54.4008248,76.9997688 L54.4008248,76.9997688 L54.4008248,76.9997688 Z" id="Shape" fill="#006D5B"></path>
                    <path d="M105.795464,125.210636 L54.4008248,125.210636 C53.5657732,125.210636 52.8903093,125.891329 52.8903093,126.716301 C52.8903093,127.548671 53.5657732,128.225665 54.4008248,128.225665 L105.791753,128.225665 C106.626804,128.225665 107.302268,127.544971 107.302268,126.716301 C107.305979,125.891329 106.626804,125.210636 105.795464,125.210636 L105.795464,125.210636 L105.795464,125.210636 Z" id="Shape" fill="#006D5B"></path>
                    <path d="M46.8668041,1.10242774 C45.8350516,0.0739884393 44.1723712,0.0554913295 43.1628866,1.06173411 L21.9006186,22.2557226 L15.502268,15.8779191 C14.585567,14.9641619 13.0713402,14.9974567 12.1212372,15.9482081 L11.3010309,16.7694798 C10.3509279,17.7165318 10.3212371,19.2295954 11.2342268,20.1396532 L20.2490722,29.1255491 C21.1657732,30.0393064 22.68,30.0060116 23.6301031,29.0589595 L23.9381444,28.7519075 L24.457732,28.2339884 L47.4457732,5.31976879 C48.4552578,4.31352601 48.436701,2.6598844 47.4049485,1.63144509 L46.8668041,1.10242774 L46.8668041,1.10242774 Z" id="Shape" fill="#FA8D3E"></path>
                    <path d="M46.8668041,49.3169942 C45.8350516,48.2885549 44.1723712,48.2700578 43.1628866,49.2763006 L21.9006186,70.470289 L15.502268,64.0924855 C14.585567,63.1824278 13.0713402,63.2120231 12.1212372,64.1627745 L11.3010309,64.9840462 C10.3509279,65.9310983 10.3212371,67.4404624 11.2342268,68.3542197 L20.2490722,77.3401156 C21.1657732,78.2538728 22.68,78.220578 23.6301031,77.2698266 L23.9381444,76.966474 L24.457732,76.4448555 L47.4457732,53.5306358 C48.4552578,52.5206937 48.436701,50.8707515 47.4049485,49.8386128 L46.8668041,49.3169942 L46.8668041,49.3169942 Z" id="Shape" fill="#FA8D3E"></path>
                    <path d="M22.0824742,44.8147977 C33.8362887,44.8147977 43.396701,35.2665896 43.396701,23.5357226 C43.396701,23.1731792 43.385567,22.8661272 43.3187629,22.496185 C43.025567,20.8573411 41.4556701,19.7771098 39.807835,20.0471676 C38.1674227,20.3431214 37.057732,21.8968786 37.3509278,23.5357226 C37.3509278,31.9445087 30.5035052,38.7884393 22.0824742,38.7884393 C13.6465979,38.7884393 6.78432989,31.9445087 6.78432989,23.5357226 C6.78432989,15.1454336 13.6465979,8.32 22.0824742,8.32 C23.3962887,8.32 24.6581443,8.49757226 25.8346392,8.83052024 C27.4416495,9.29664741 29.1154639,8.37919078 29.5868041,6.78104047 C30.0507217,5.18289018 29.1265979,3.51075145 27.523299,3.04462428 C25.8012371,2.54520231 23.967835,2.29364162 22.0824742,2.29364162 C10.3101031,2.29364162 0.742268041,11.8233526 0.742268041,23.539422 C0.742268041,35.270289 10.3138144,44.8147977 22.0824742,44.8147977 L22.0824742,44.8147977 L22.0824742,44.8147977 Z" id="Shape" fill="#006D5B"></path>
                    <path d="M46.8668041,99.7023579 C45.8350516,98.6739182 44.1723712,98.6554213 43.1628866,99.6616642 L21.9006186,120.855652 L15.502268,114.477849 C14.585567,113.564092 13.0713402,113.597387 12.1212372,114.548139 L11.3010309,115.36941 C10.3509279,116.316462 10.3212371,117.829526 11.2342268,118.739583 L20.2490722,127.72548 C21.1657732,128.639236 22.68,128.605941 23.6301031,127.65889 L23.9381444,127.351838 L24.457732,126.833919 L47.4457732,103.919699 C48.4552578,102.913456 48.436701,101.259814 47.4049485,100.231376 L46.8668041,99.7023579 L46.8668041,99.7023579 Z" id="Shape-Copy-2" fill="#FA8D3E"></path>
                    <path d="M22.0824742,143.414728 C33.8362887,143.414728 43.396701,133.866519 43.396701,122.135653 C43.396701,121.77311 43.385567,121.466058 43.3187629,121.096115 C43.025567,119.457271 41.4556701,118.37704 39.807835,118.647098 C38.1674227,118.943052 37.057732,120.496809 37.3509278,122.135653 C37.3509278,130.544439 30.5035052,137.38837 22.0824742,137.38837 C13.6465979,137.38837 6.78432989,130.544439 6.78432989,122.135653 C6.78432989,113.745364 13.6465979,106.91993 22.0824742,106.91993 C23.3962887,106.91993 24.6581443,107.097502 25.8346392,107.43045 C27.4416495,107.896577 29.1154639,106.979121 29.5868041,105.38097 C30.0507217,103.78282 29.1265979,102.110681 27.523299,101.644554 C25.8012371,101.145132 23.967835,100.893572 22.0824742,100.893572 C10.3101031,100.893572 0.742268041,110.423283 0.742268041,122.139353 C0.742268041,133.870219 10.3138144,143.414728 22.0824742,143.414728 L22.0824742,143.414728 L22.0824742,143.414728 Z" id="Shape-Copy" fill="#006D5B"></path>
                </g>
            </g>
        </g>
    </g>
</svg>