<?xml version="1.0" encoding="UTF-8" standalone="no"?>
<svg width="320px" height="320px" viewBox="0 0 320 320" version="1.1" xmlns="http://www.w3.org/2000/svg" xmlns:xlink="http://www.w3.org/1999/xlink" xmlns:sketch="http://www.bohemiancoding.com/sketch/ns">
    <!-- Generator: Sketch 3.3.3 (12072) - http://www.bohemiancoding.com/sketch -->
    <title>Oval 1 + icon-parliament</title>
    <desc>Created with Sketch.</desc>
    <defs></defs>
    <g id="Page-1" stroke="none" stroke-width="1" fill="none" fill-rule="evenodd" sketch:type="MSPage">
        <g id="Oval-1-+-icon-parliament" sketch:type="MSLayerGroup">
            <circle id="Oval-1" fill="#EFEFEF" sketch:type="MSShapeGroup" cx="160" cy="160" r="160"></circle>
            <g id="icon-parliament" transform="translate(163.219502, 155.063727) scale(-1, 1) translate(-163.219502, -155.063727) translate(89.135725, 85.000000)" fill="#006D5B" sketch:type="MSShapeGroup">
                <g id="Group" transform="translate(124.456347, 0.346706)">
                    <path d="M11.1387718,31.3647747 L15.8370732,31.3647747 L16.2473578,30.9890933 L16.2164955,23.9806909 L15.8116574,23.4995227 L11.1387718,23.4995227 L10.8719053,23.4995227 L6.2026506,23.4995227 L5.79599701,23.9917949 L5.79599701,30.902113 L5.99387761,31.3647747 L10.8719053,31.3647747 L11.1387718,31.3647747 L11.1387718,31.3647747 Z" id="Shape"></path>
                    <path d="M10.9971691,41.6007065 L20.6243302,41.6007065 L20.6243302,38.824735 L19.489694,38.824735 L19.489694,36.7427564 L18.4676138,36.7427564 L18.4676138,35.8174328 L17.4473489,35.8174328 L17.4473489,34.5460378 L16.3508364,34.5460378 L16.3508364,33.1580522 L15.8588582,33.1580522 L15.8588582,32.1161376 L10.9971691,32.1161376 L10.7520878,32.1161376 L5.89039872,32.1161376 L5.89039872,33.1580522 L5.39842048,33.1580522 L5.39842048,34.5460378 L4.30190808,34.5460378 L4.30190808,35.8174328 L3.28164328,35.8174328 L3.28164328,36.7427564 L2.25956301,36.7427564 L2.25956301,38.824735 L1.12492679,38.824735 L1.12492679,41.6007065 L10.7520878,41.6007065 L10.9971691,41.6007065 L10.9971691,41.6007065 Z" id="Shape"></path>
                    <path d="M11.1678184,42.3816796 L20.793164,42.3816796 L22.0421714,44.2323272 L22.0421714,45.7369036 L11.1678184,45.7369036 L10.9681225,45.7369036 L0.0937694765,45.7369036 L0.0937694765,44.2323272 L1.34096149,42.3816796 L10.9681225,42.3816796 L11.1678184,42.3816796 L11.1678184,42.3816796 Z" id="Shape"></path>
                    <path d="M11.1950497,65.283443 L21.3886209,65.283443 L22.0694028,63.0293544 L11.1950497,63.0293544 L10.9681225,63.0293544 L0.0937694765,63.0293544 L0.774551117,65.283443 L10.9681225,65.283443 L11.1950497,65.283443 L11.1950497,65.283443 Z" id="Shape"></path>
                    <path d="M11.5036708,109.835932 L20.3157091,109.835932 L20.3157091,66.0366566 L11.5036708,66.0366566 L11.1060943,66.0366566 L1.82023187,66.0366566 L1.82023187,109.835932 L11.1060943,109.835932 L11.5036708,109.835932 L11.5036708,109.835932 Z" id="Shape"></path>
                    <path d="M12.0882353,138.18045 L21.9005689,138.18045 L21.8606297,111.995638 L20.4536809,110.607652 L11.1678184,110.607652 L10.9681225,110.607652 L1.68226011,110.607652 L0.302542595,111.995638 L0.0937694765,138.18045 L11.8903549,138.18045 L12.0882353,138.18045 L12.0882353,138.18045 Z" id="Shape"></path>
                    <path d="M15.610146,22.77777 L6.36240738,22.77777 L10.3617729,10.4006392 L10.32728,1.04931716 L11.5363484,1.04931716 L11.6107804,10.4302496 L15.610146,22.77777 L15.610146,22.77777 Z" id="Shape"></path>
                    <path d="M11.3548065,46.6603767 L21.9005689,46.632617 L21.9005689,62.5370821 L11.3838531,62.5666925 L10.9681225,62.5666925 L0.0937694765,62.5666925 L0.0937694765,46.6622274 L10.2492171,46.6622274 L11.3548065,46.6603767 L11.3548065,46.6603767 Z M11.0824938,48.1223883 C7.57510653,48.1223883 4.72853137,51.0223531 4.72853137,54.5996547 C4.72853137,58.1769565 7.57510653,61.0769213 11.0824938,61.0769213 C14.593512,61.0769213 17.4364563,58.1769565 17.4364563,54.5996547 C17.4364563,51.0223531 14.5916964,48.1223883 11.0824938,48.1223883 L11.0824938,48.1223883 L11.0824938,48.1223883 Z" id="Shape"></path>
                    <path d="M11.3548065,46.6603767 L21.9005689,46.632617 L21.9005689,62.5370821 L11.3838531,62.5666925 L10.9681225,62.5666925 L0.0937694765,62.5666925 L0.0937694765,46.6622274 L10.2492171,46.6622274 L11.3548065,46.6603767 L11.3548065,46.6603767 Z M11.0824938,48.1223883 C7.57510653,48.1223883 4.72853137,51.0223531 4.72853137,54.5996547 C4.72853137,58.1769565 7.57510653,61.0769213 11.0824938,61.0769213 C14.593512,61.0769213 17.4364563,58.1769565 17.4364563,54.5996547 C17.4364563,51.0223531 14.5916964,48.1223883 11.0824938,48.1223883 L11.0824938,48.1223883 L11.0824938,48.1223883 Z" id="Shape-13"></path>
                    <rect id="Rectangle-path" x="10.7030715" y="108.642877" width="0.651735015" height="4.71359933"></rect>
                </g>
                <g id="Group" transform="translate(54.878944, 103.196006) scale(-1, 1) translate(-54.878944, -103.196006) translate(0.321124, 67.589849)">
                    <path d="M71.0282239,18.3881717 L69.4397335,2.07101229 L67.2848324,16.5375242 L64.4473342,16.5375242 L58.7741534,16.5375242 L56.7717475,16.5375242 L54.4625359,2.07101229 L52.8740453,18.8508338 L52.8722299,21.164143 L71.0282239,21.164143 L71.0282239,18.3881717 L71.0282239,18.3881717 Z" id="Shape"></path>
                    <path d="M108.925072,16.5375242 L107.336581,0.220364744 L105.294236,16.5375242 L94.4870536,16.5671345 L92.3593839,0.220364744 L90.7708932,17.0001862 L90.7708932,21.164143 L108.925072,21.164143 L108.925072,16.5375242 L108.925072,16.5375242 Z" id="Shape"></path>
                    <path d="M90.7708932,21.5879414 L90.7708932,25.2947885 L90.4023634,25.2947885 L86.2323487,25.2947885 L86.225087,25.1633924 L86.2323487,21.8192723 L83.2822945,21.8192723 L83.2822945,24.8265746 L72.6167146,24.8265746 L71.0282239,24.8265746 L71.0282239,21.5879414 L52.8722299,21.5879414 L52.8667837,29.4531936 L49.2359479,29.4531936 L2.26927232,29.4531936 L0.453854467,29.4531936 L0,70.937309 L108.925072,70.937309 L108.925072,21.5879414 L90.7708932,21.5879414 L90.7708932,21.5879414 Z" id="Shape"></path>
                </g>
                <ellipse id="Oval" cx="135.559746" cy="55.3504964" rx="0.793143728" ry="0.809658305"></ellipse>
            </g>
        </g>
    </g>
</svg>