<?xml version="1.0" encoding="UTF-8" standalone="no"?>
<svg width="320px" height="320px" viewBox="0 0 320 320" version="1.1" xmlns="http://www.w3.org/2000/svg" xmlns:xlink="http://www.w3.org/1999/xlink" xmlns:sketch="http://www.bohemiancoding.com/sketch/ns">
    <!-- Generator: Sketch 3.3.3 (12072) - http://www.bohemiancoding.com/sketch -->
    <title>icon--rossette</title>
    <desc>Created with Sketch.</desc>
    <defs></defs>
    <g id="Page-1" stroke="none" stroke-width="1" fill="none" fill-rule="evenodd" sketch:type="MSPage">
        <g id="icon--rossette" sketch:type="MSLayerGroup">
            <circle id="Oval-1" fill="#EFEFEF" sketch:type="MSShapeGroup" cx="160" cy="160" r="160"></circle>
            <g id="Shape-+-Path-Copy" transform="translate(89.000000, 62.000000)" sketch:type="MSShapeGroup">
                <path d="M128.486567,143.709677 L113.759701,111.987097 L113.973134,110.283871 L121.656716,109.219355 L120.802985,101.554839 L128.059701,99.2129032 L125.925373,91.7612903 L132.755224,88.1419355 L129.340299,81.3290323 L135.316418,76.6451613 L130.834328,70.4709677 L135.956716,64.7225806 L130.407463,59.4 L134.462687,52.8 L128.059701,48.5419355 L130.834328,41.3032258 L123.791045,38.3225806 L125.285075,30.8709677 L117.38806,29.8064516 L117.38806,22.1419355 L109.704478,21.9290323 L108.423881,14.2645161 L100.740299,15.3290323 L98.1791045,8.09032258 L90.9223881,10.6451613 L87.080597,4.04516129 L80.2507463,7.66451613 L75.341791,1.91612903 L69.3656716,6.81290323 L63.3895522,1.91612903 L58.480597,7.66451613 L51.6507463,4.04516129 L47.8089552,10.6451613 L40.5522388,8.09032258 L37.9910448,15.3290323 L30.3074627,14.2645161 L29.0268657,21.9290323 L21.3432836,22.1419355 L21.3432836,29.8064516 L13.8731343,31.5096774 L15.3671642,38.9612903 L8.3238806,41.9419355 L11.0985075,49.1806452 L4.69552239,53.4387097 L8.75074627,60.0387097 L3.20149254,65.3612903 L8.3238806,71.1096774 L3.84179104,77.283871 L9.81791045,81.9677419 L6.40298507,88.7806452 L13.2328358,92.4 L11.0985075,99.8516129 L18.3552239,102.193548 L17.5014925,109.858065 L24.9716418,110.709677 L10.6716418,149.032258 L0.426865672,176.922581 L38.6313433,155.419355 L53.9985075,196.509677 L64.2432836,168.619355 L70.0059701,153.077419 L76.8358209,167.980645 L89.4283582,195.019355 L101.167164,152.864516 L141.079104,171.174194 L128.486567,143.709677 L128.486567,143.709677 Z M16.0074627,96.6580645 L17.9283582,89.8451613 L11.738806,86.6516129 L14.9402985,80.4774194 L9.39104478,76.2193548 L13.6597015,70.683871 L8.9641791,65.3612903 L14.0865672,60.6774194 L10.458209,54.716129 L16.4343284,50.883871 L13.8731343,44.283871 L20.2761194,41.516129 L18.9955224,34.7032258 L25.8253731,33.2129032 L25.8253731,26.1870968 L32.8686567,25.9741935 L34.1492537,19.1612903 L40.9791045,20.2258065 L43.3268657,13.6258065 L49.9432836,15.7548387 L53.358209,9.79354839 L59.5477612,13.2 L64.0298507,7.66451613 L69.3656716,12.1354839 L74.7014925,7.66451613 L79.1835821,12.9870968 L85.3731343,9.58064516 L89.0014925,15.5419355 L95.6179104,13.4129032 L97.9656716,20.0129032 L104.795522,18.9483871 L106.076119,25.7612903 L113.119403,25.9741935 L113.119403,33 L119.949254,34.4903226 L118.668657,41.3032258 L125.071642,44.0709677 L122.510448,50.6709677 L128.486567,54.5032258 L124.858209,60.4645161 L129.980597,65.1483871 L125.285075,70.2580645 L129.553731,75.7935484 L124.004478,80.0516129 L127.20597,86.2258065 L121.016418,89.4193548 L122.937313,96.2322581 L116.320896,98.3612903 L116.961194,105.387097 L109.91791,106.451613 L109.277612,113.477419 L102.234328,113.051613 L100.526866,119.864516 L93.6970149,118.16129 L90.7089552,124.548387 L84.3059701,121.780645 L80.2507463,127.529032 L74.4880597,123.483871 L69.5791045,128.380645 L64.4567164,123.483871 L58.6940299,127.316129 L54.638806,121.567742 L48.2358209,124.335484 L45.2477612,117.948387 L38.4179104,119.864516 L36.7104478,113.051613 L29.6671642,113.477419 L29.0268657,106.451613 L21.9835821,105.6 L22.6238806,98.5741935 L16.0074627,96.6580645 L16.0074627,96.6580645 Z M60.4014925,166.916129 L54.2119403,183.948387 L42.6865672,153.929032 L40.9791045,149.245161 L36.7104478,151.8 L8.53731343,167.767742 L14.7268657,150.735484 L26.6791045,118.16129 L33.5089552,117.735484 L35.4298507,125.187097 L42.9,123.483871 L46.1014925,130.509677 L53.1447761,127.529032 L57.6268657,133.703226 L64.0298507,129.445161 L69.5791045,134.767742 L73.8477612,130.509677 L60.4014925,166.916129 L60.4014925,166.916129 Z M69.7925373,116.670968 C43.5402985,116.670968 21.9835821,95.3806452 21.9835821,68.9806452 C21.9835821,42.7935484 43.3268657,21.2903226 69.7925373,21.2903226 C96.0447761,21.2903226 117.601493,42.5806452 117.601493,68.9806452 C117.601493,95.3806452 96.258209,116.670968 69.7925373,116.670968 L69.7925373,116.670968 Z M69.7925373,31.2967742 C48.8761194,31.2967742 32.0149254,48.3290323 32.0149254,68.9806452 C32.0149254,89.8451613 49.0895522,106.664516 69.7925373,106.664516 C90.7089552,106.664516 107.570149,89.6322581 107.570149,68.9806452 C107.783582,48.3290323 90.7089552,31.2967742 69.7925373,31.2967742 L69.7925373,31.2967742 Z" id="Shape" fill="#006D5B"></path>
                <path d="M72.5671642,43.0064516 L77.4761194,56.8451613 C77.9029851,57.9096774 78.7567164,58.5483871 79.8238806,58.5483871 L94.5507463,58.7612903 C96.8985075,58.7612903 97.9656716,61.7419355 96.0447761,63.2322581 L84.3059701,72.1741935 C83.4522388,72.8129032 83.238806,73.8774194 83.4522388,74.9419355 L87.7208955,88.9935484 C88.361194,91.3354839 85.8,93.0387097 83.8791045,91.7612903 L71.7134328,83.2451613 C70.8597015,82.6064516 69.7925373,82.6064516 68.938806,83.2451613 L56.7731343,91.7612903 C54.8522388,93.0387097 52.2910448,91.3354839 52.9313433,88.9935484 L57.2,74.9419355 C57.4134328,73.8774194 57.2,72.8129032 56.3462687,72.1741935 L44.6074627,63.4451613 C42.6865672,61.9548387 43.7537313,58.9741935 46.1014925,58.9741935 L60.8283582,58.7612903 C61.8955224,58.7612903 62.7492537,58.1225806 63.1761194,57.0580645 L68.0850746,43.2193548 C68.7253731,40.8774194 71.7134328,40.8774194 72.5671642,43.0064516 L72.5671642,43.0064516 Z" id="Path-Copy" fill="#FA8D3E"></path>
            </g>
        </g>
    </g>
</svg>