<?xml version="1.0" encoding="UTF-8" standalone="no"?>
<svg width="320px" height="320px" viewBox="0 0 320 320" version="1.1" xmlns="http://www.w3.org/2000/svg" xmlns:xlink="http://www.w3.org/1999/xlink" xmlns:sketch="http://www.bohemiancoding.com/sketch/ns">
    <!-- Generator: Sketch 3.3.3 (12072) - http://www.bohemiancoding.com/sketch -->
    <title>icon--london</title>
    <desc>Created with Sketch.</desc>
    <defs></defs>
    <g id="Page-1" stroke="none" stroke-width="1" fill="none" fill-rule="evenodd" sketch:type="MSPage">
        <g id="icon--london" sketch:type="MSLayerGroup">
            <circle id="Oval-1" fill="#EFEFEF" sketch:type="MSShapeGroup" cx="160" cy="160" r="160"></circle>
            <g id="Page-1" transform="translate(98.000000, 65.000000)" sketch:type="MSShapeGroup">
                <g id="uk" fill="#006D5B">
                    <path d="M52.9989432,93.3250454 C52.9989432,93.3314873 53.0075437,93.3529609 53.0182945,93.3722874 C53.041946,93.4173824 52.9494898,93.4946883 52.9709913,93.5419304 C52.9666909,93.5311936 52.7086735,93.3636978 52.6957726,93.385172 C52.6850219,93.4044984 52.702223,93.68151 52.7151239,93.7029836 C52.717274,93.7051314 52.6635204,93.8747737 52.7000729,93.8704795 C52.2098397,93.9241635 52.392602,95.7301087 52.4162536,95.715077 C52.3216473,95.7537294 52.5280612,96.4473328 52.5560131,96.5504066 C52.8355321,96.6491862 52.9129373,97.0421567 53.0741983,97.1108723 C53.3580175,97.1924731 54.3879373,97.8538655 54.6696064,97.6412748 C55.1340379,97.5253165 55.2952989,98.3413202 55.5941691,98.2511303 C55.6350219,98.227509 55.9123907,98.0728977 55.9037901,98.0943719 C55.9489432,98.0492769 56.4026239,99.1379974 56.7165452,98.981239 C56.7423469,98.9662073 56.7530976,98.8416593 56.7337464,98.7922695 C56.7057945,98.725701 56.6928936,98.7450269 56.7165452,98.8158909 C56.729446,98.8459541 56.7337464,98.8738697 56.729446,98.8803117 C56.7831997,98.8266277 56.6950437,98.5517632 56.8864067,98.4551314 C56.9100583,98.4400997 56.9122085,98.43151 56.8950073,98.4035939 C56.9659621,98.3305834 57.0562682,98.2833407 57.1659256,98.2661619 C57.1960277,98.2253618 57.2024781,98.1845617 57.1895772,98.1394668 C57.3271866,98.0471292 57.7249636,98.1179926 57.7357143,98.1029609 C57.7658163,98.0750454 58.0883382,98.313404 58.1356414,98.2038876 C58.1399417,98.1867089 58.1420918,98.1630875 58.1356414,98.1502036 C58.1958455,98.2854884 58.3614067,98.1845617 58.2452989,98.0192136 C58.2259475,98.0170659 58.204446,98.0192136 58.1872449,98.0235079 C58.1764942,98.0020343 58.2495991,97.9440554 58.3141035,97.9225812 C58.4130102,97.9054024 58.8064866,97.9290238 58.8301384,97.8646023 C58.8645408,97.8195074 59.0451531,97.9912975 59.0989069,98.010624 C59.107507,98.010624 59.1440599,97.9805607 59.1827621,97.9440554 C59.266618,97.8667495 59.4966837,98.0170659 59.5568878,98.0857822 C59.5740887,98.1759721 59.5891397,98.2683091 59.5998909,98.3606466 C59.6557946,98.3950048 59.5504375,98.3219937 59.6579445,98.476605 C59.7030976,98.4959315 59.7375,98.523847 59.7633017,98.5646471 C59.767602,98.5904162 59.7633017,98.6118898 59.752551,98.6140369 C59.8514579,98.556058 59.9396135,98.9576176 60.1159254,98.8395116 C60.1438776,98.8223328 59.8686588,97.3986213 59.8170555,97.2998418 C59.8084547,97.2912521 59.8170555,97.2869572 59.8364069,97.2955469 C59.829956,97.2933998 60.0643221,97.1001355 60.0643221,97.0485986 C60.0664726,97.0378618 60.0664726,97.0163876 60.0686224,97.0035037 C60.0815236,96.8725137 60.4104955,96.6878391 60.4965013,96.6126809 C60.4857506,96.5804699 60.4685497,96.5568492 60.4427481,96.5375227 C60.4577991,96.5117542 60.4577991,96.5010174 60.4405976,96.4967226 C60.5137028,96.5203433 60.6835644,96.2583634 60.4577991,96.3270797 C60.4685497,96.3013112 60.4879011,96.2819847 60.5137028,96.2691002 L60.5567054,96.3077532 C60.5330542,96.2862796 60.3782436,96.1338154 60.3717927,96.1230786 C60.367493,96.1144889 60.3696429,96.1101947 60.3803935,96.1187837 C60.3588922,96.1080469 60.4040453,95.9061936 60.3287902,95.8761303 C60.3524419,95.8890142 60.3588922,95.8653935 60.3395408,95.8439193 C60.2578354,95.7966772 60.3051384,95.4573913 60.3180395,95.6656872 C60.3180395,95.6785712 60.5481052,96.0608049 60.4534987,96.0608049 C60.6018584,96.0608049 60.17828,95.3500227 60.4986518,95.6506556 C60.4276971,95.5819393 60.4427481,95.5733497 60.5438048,95.6248872 C60.5438048,95.3306962 60.6083093,95.1696429 60.91578,95.0708634 C60.8856779,95.0773053 60.664213,95.163201 60.6513119,95.1503165 C60.6384113,95.1395797 61.0168367,94.9398734 60.9996358,94.9033682 C61.0318878,94.9055153 61.0598399,94.9098101 61.0899419,94.9162521 C61.0813412,94.9463154 61.0834911,94.9527579 61.1006926,94.9463154 C61.1286441,94.9377263 61.2017494,94.7981466 61.1737972,94.7745253 C61.1436952,94.7530517 61.1415453,94.7530517 61.1630466,94.7788202 C61.1737972,94.7959989 61.1802481,94.8131783 61.1737972,94.8174731 C60.8964286,95.092337 61.1458457,94.0401218 61.2254011,94.2097647 C61.2017494,94.160375 61.6102768,93.8146471 61.1415453,93.5655517 C61.0920918,93.5676988 61.0404885,93.5762885 60.993185,93.5870253 C61.304956,93.7953212 60.0772232,94.5039557 60.0944241,94.6242089 C60.0987245,94.665009 60.0901237,94.6843354 60.0535714,94.7229884 C59.989067,94.7809673 59.5912902,94.7616408 59.6987972,94.9033682 C59.7783527,94.9828212 59.2472666,95.3521698 59.1526601,95.3264014 C58.8322889,95.2684225 59.3977768,94.881894 59.0537538,94.7680834 C59.0021499,94.8002938 58.9462462,94.8303571 58.892493,94.8604203 C58.9053935,94.8775997 58.9763482,94.1775543 58.6710274,94.4352394 C58.6344751,94.4631556 58.5269681,94.6327985 58.5398686,94.6156192 C58.4861154,94.8260622 58.4775147,95.0365053 58.5162175,95.249096 C58.380758,95.6485079 58.2237974,94.8002938 58.3162536,94.6220617 C58.2840015,94.6693038 58.2495991,94.7143987 58.2065962,94.7551988 C58.2517493,94.6306508 58.6172742,94.1732595 58.7871358,94.3278708 C58.7677844,94.3106914 58.6237245,94.2076176 58.5979228,94.2162073 C58.5312685,94.2462706 58.0904883,94.3063972 58.0904883,94.2333861 C58.1334913,94.1990279 58.1549927,94.1560807 58.1614432,94.1023961 C58.1313411,94.1023961 57.7679665,94.3021023 57.7163629,94.3321656 C57.7421647,94.3085443 57.761516,94.2827759 57.7787172,94.2527126 C57.7378644,94.2613022 57.6970117,94.2720391 57.6561589,94.2827759 C57.5508017,94.3386076 57.5443513,94.3149863 57.6389577,94.2076176 C57.7292638,94.1560807 57.8023688,94.0873645 57.8625729,94.0036166 C57.6454082,93.975701 57.4325437,93.9671113 57.2196793,93.9026899 C57.1809767,93.8447104 57.1293732,93.8082052 57.0648688,93.7910264 L57.0648688,93.8296788 C56.5466837,93.8167948 52.9989432,93.6900997 52.9989432,93.3250454 C52.9989432,93.3314873 52.9989432,93.3207505 52.9989432,93.3250454 L52.9989432,93.3250454 L52.9989432,93.3250454 Z" id="Shape"></path>
                    <path d="M60.9050293,99.4107141 C60.8663265,99.4558091 60.537354,99.5996835 60.6427111,99.7242316 C60.5717564,99.6340417 60.7588195,99.8487796 60.741618,99.835895 C60.7867711,99.8616635 60.5567054,99.8788428 60.5717564,99.8702532 C60.5072519,99.9024636 60.5008017,99.913201 60.5244534,99.9303797 C60.5416543,99.9647379 60.5610057,99.9948012 60.5803571,100.027012 C60.6233603,100.039896 60.7072156,100.037748 60.741618,100.02057 C60.7674197,100.005538 60.7738705,100.009833 60.7738705,100.065665 C60.7824707,100.200949 60.4169458,100.211686 60.6061588,100.450045 C60.6298106,100.480109 60.649162,100.486551 60.6814139,100.477961 C60.726567,100.514467 60.7394681,100.559562 60.726567,100.613246 L60.77172,100.58533 C60.7975217,100.568151 60.9329809,100.619688 60.9544828,100.598214 C60.9415816,100.613246 60.6169094,101.040574 60.5567054,100.982595 C60.6599126,101.085669 61.2297009,100.578888 61.1243438,100.53594 C61.1114432,100.531646 61.401713,100.078549 61.2211008,100.497287 C61.2985057,100.482256 61.3501091,100.437161 61.371611,100.362003 C61.479118,100.469372 61.9220478,100.355561 62.1134113,100.58533 C62.1155612,100.529498 62.109111,100.473666 62.0919094,100.419982 C62.0811588,100.407098 62.0897596,100.407098 62.1112608,100.428571 C62.1370625,100.467224 62.1456633,100.505877 62.1370625,100.550972 C62.1478132,100.583182 62.2789726,100.664783 62.2639215,100.643309 C62.2553208,100.62613 62.2617711,100.62613 62.2811224,100.645457 C62.3241256,100.677667 62.0596575,100.443603 61.8747449,100.349119 C61.8811952,100.351266 61.6941327,100.27396 61.6962825,100.286844 C61.4898686,99.5739151 61.4533163,99.4643987 61.4124636,99.44722 C61.3673106,99.4300406 60.945882,99.376356 60.9050293,99.4107141 C60.8942787,99.4235986 60.9136295,99.402125 60.9050293,99.4107141 L60.9050293,99.4107141 L60.9050293,99.4107141 Z" id="Shape"></path>
                    <path d="M61.7371358,103.147152 C61.7177844,103.162184 61.0684401,103.572333 61.1006926,103.370479 C61.0705906,103.488585 61.0297379,103.587364 61.0426384,103.711912 C61.1028425,103.707618 61.1565963,103.729091 61.1995989,103.772039 C61.2856052,103.945976 61.2125,104.059787 61.2254011,104.227283 C61.2318514,104.295999 61.2340013,104.304589 61.2727041,104.308883 L61.3178571,104.313178 C61.2038992,104.515032 61.0856416,105.487794 61.5930759,105.20434 C61.6855319,105.15495 61.7220848,104.974571 61.7242347,104.875791 C62.3434764,105.112003 62.1284624,104.291704 62.2553208,103.830018 C62.2381193,103.598101 62.0381562,102.917382 61.7371358,103.147152 C61.7027334,103.17292 61.8016397,103.097762 61.7371358,103.147152 L61.7371358,103.147152 L61.7371358,103.147152 Z" id="Shape"></path>
                    <path d="M82.7526601,97.368558 C82.4430395,97.0443038 81.6410351,96.956261 81.4260204,96.6663655 C81.1637028,96.0092674 80.6261664,96.4838381 80.2025874,96.0350364 C79.4328354,95.2662748 77.3321429,93.2284129 79.1963195,92.8010849 C79.2393221,92.8440327 79.3296282,93.0351493 79.4070338,92.9492542 C79.3446792,92.8676534 79.2780249,92.788201 79.2113705,92.710895 C79.2178208,92.6958634 79.2264215,92.663653 79.2307213,92.6400316 C79.2414726,92.5970838 79.2371722,92.5949367 79.1920191,92.6013787 L79.1468661,92.6078212 L79.2070701,92.5519889 C79.0823616,92.6722421 79.1447156,92.0151445 79.2543731,92.1160712 C78.6824343,91.5448686 77.3557946,91.74028 76.9945701,92.1096292 C76.981669,92.1225137 76.9988705,92.4016724 77.0031703,92.4059673 C76.9924197,92.4016724 76.5000364,92.1998191 76.510787,92.1890823 C76.4763846,92.2191456 76.3624273,92.7452532 76.2850217,92.6872737 C76.2527698,92.6679478 75.9345478,92.2320301 75.9797009,92.2234404 C75.5281703,92.3071883 74.943331,92.8118217 75.1432946,93.1682864 C74.8121722,93.4452985 74.8809764,93.6407099 74.9239796,94.0852167 C74.9884841,94.153933 75.0572889,94.2205016 75.1239432,94.2827759 L75.4507653,94.2827759 C75.3755102,94.3794077 75.3346575,94.4975137 75.3368074,94.6177669 C75.7711371,94.5168402 76.1603132,93.806058 76.6096939,94.2763339 C76.9644681,94.6392405 77.155831,95.1438745 77.4181486,95.4058544 L77.4245989,95.4638339 C77.4719024,96.0436255 78.9081996,96.4838381 79.2049197,96.8102394 C79.3403788,96.9734404 79.6134477,96.8188291 79.6908527,97.2053571 C79.854264,97.3492316 79.9832723,97.4072104 80.1746358,97.3062837 C80.3208457,97.4243898 80.2391397,97.6090644 80.3165453,97.6863697 C80.5079082,97.9096973 80.9486881,97.7014014 80.9486881,98.090077 C80.9486881,98.0664557 81.1314503,99.2861661 81.0561952,99.0757231 C80.9830906,98.8717226 81.2454082,100.505877 81.3572156,99.5137885 C81.3701167,99.0950496 81.8259477,98.9339963 81.9979592,98.6677215 C82.3677844,98.1759721 80.905685,98.0449821 81.7485421,97.3449367 C81.7205906,97.3599684 82.3785351,97.5167268 82.3548833,97.4866635 C82.4580906,97.6155063 82.4645408,97.8903708 82.707507,97.8624546 C82.8408163,97.8495707 82.8085644,97.4286846 82.7526601,97.368558 C82.7139579,97.3277579 82.8171646,97.4372737 82.7526601,97.368558 L82.7526601,97.368558 L82.7526601,97.368558 Z" id="Shape"></path>
                    <path d="M50.9821064,0.0816003618 C50.8079446,0.446654611 51.566946,1.18535262 51.1519679,1.47095389 C50.7584913,1.70931284 48.9459184,0.972762204 48.3159256,1.06295208 C47.5655248,1.17032098 46.7398688,2.09369349 46.049672,1.98632459 C45.1573615,1.87680832 44.3424563,1.65777577 43.4479956,1.86607143 C42.981414,1.97558771 41.2569971,2.65201176 40.9237245,2.30198915 L40.7237609,2.09369349 C40.3238338,2.43083182 39.2853134,3.09007685 39.0982507,3.34561483 C39.3906705,2.920434 39.2358601,1.94552441 38.8875364,1.63844937 C38.3521501,1.17461573 38.0532799,1.21326853 37.4985423,1.82741862 C37.1222668,2.24186257 36.844898,3.56894214 36.4557216,3.80085895 C36.1181487,3.97909132 36.0084913,3.90822785 36.2364067,3.66342676 C36.5524781,3.32414105 36.6255831,2.4823689 36.3955175,1.87680832 C36.1159985,1.16173147 35.8751822,1.75011302 35.3032434,1.54181736 C34.4453353,1.22830018 34.1679665,-0.00858951176 33.069242,0.180379747 C32.508054,0.27056962 32.3059402,1.21756329 32.0543732,1.64918626 C31.5211371,2.58759042 31.1620627,3.57108951 32.2328353,4.24751356 C33.5164723,5.07640144 31.8243076,4.90461121 31.2308673,4.67484177 C30.7191327,5.23745479 30.0203353,6.06849003 30.6739796,6.79645116 C30.9771501,7.15506329 31.6350948,7.88946656 30.9341473,8.14929926 C30.5041181,8.31035264 29.4010933,8.63245934 28.9646137,8.35330016 C26.3543367,6.67834541 29.087172,10.8485533 29.1473761,11.1620705 C29.2376822,11.5378617 29.1280248,11.9737794 28.9001093,12.1820751 C28.7302478,12.340981 28.7022959,12.3323915 28.3324709,12.0038427 C27.3778061,11.1513337 27.0101312,11.3188291 27.169242,12.5578662 C27.2079446,12.8756781 27.0015306,13.7410714 27.169242,14.0051989 C27.4272595,14.3509267 30.2009475,14.4174955 29.603207,15.5319847 C29.2226312,16.2341772 27.2229956,15.5770796 26.4252915,16.1869349 C26.1758746,15.8218806 25.7565962,15.4847423 25.3029154,15.5233951 C24.6084184,15.5749322 24.4772595,16.6572107 24.2299927,17.2090868 C23.7999636,16.7345163 23.099016,16.386641 22.5120262,16.8118219 C22.0862974,17.1489602 22.140051,19.0085895 22.5120262,19.3822333 C22.8452989,19.7344033 23.615051,19.4681284 23.8128644,19.9190777 C24.0665816,20.4580696 22.6238338,20.636302 22.3572158,21.0507459 C21.9637391,21.664896 23.2516764,22.4723101 23.658054,22.8652803 C23.866618,23.0649864 25.5071793,24.7249096 23.909621,24.198802 C23.2774781,23.9905063 22.2712099,22.3821203 21.7164723,23.3312613 C21.0391764,24.4736663 22.021793,26.3655063 21.8949344,27.6560805 C22.2669096,27.7140596 23.260277,27.7119123 23.5139942,27.9524186 C23.8709184,28.3260624 22.2196064,29.0926763 22.9872085,29.8378165 C23.5311953,30.4197559 23.6279519,30.9222423 23.9612245,31.7017405 C24.1461371,32.159132 25.5200802,33.4969485 25.5200802,33.7739602 C25.5200802,34.1948463 24.2987974,33.1941682 24.2923469,33.1898734 C23.569898,32.7496609 22.7141399,33.2006103 21.9465379,33.2006103 C21.3681487,33.2113472 21.3401968,33.3681058 21.8282799,34.0037296 C22.479774,34.8755651 23.290379,34.8390596 24.1762391,35.2642405 C24.7417274,35.5348101 24.1396866,36.0372966 23.7827624,36.0372966 C23.4989432,36.0372966 23.0560131,35.6228526 22.8754009,35.4811257 C22.4582726,35.1568716 21.68207,34.1905515 21.1079811,34.1304249 C20.5381924,34.0702984 20.9768221,34.8948915 21.1832362,35.0666818 C20.8908163,35.8096745 20.561844,36.5376356 20.1597668,37.2290913 C20.4478863,37.858273 20.9166181,37.8325045 21.4305029,38.1803797 C21.9529883,38.5175181 20.9531705,38.4960443 20.7983601,38.5368445 C20.4263848,38.6291818 20.4629373,39.6212704 20.3962828,39.926198 C20.4543367,40.1387885 20.6069971,40.2590416 20.8521137,40.2848101 C21.0413265,40.4437161 21.0499271,40.471632 20.9230685,40.5811483 C20.7854592,40.709991 19.6458819,40.5446429 19.3577624,40.5704114 C18.4783527,40.6412748 17.3882289,40.2826628 16.5518221,40.6434223 C15.605758,41.0149186 16.6313776,42.1487342 17.2592201,42.2389241 C17.7989067,42.3226718 18.5751093,42.3570299 19.0760933,42.5867993 C19.101895,42.5996835 18.7492711,43.6282776 18.7492711,43.8945524 C18.7578717,44.7985986 18.9363338,45.2237794 19.3943149,45.4127486 C20.0565598,45.6661392 20.222121,45.335443 20.7747085,45.8379295 C21.0886297,46.1235308 21.6261662,46.4692586 22.0755466,46.2437839 C23.4709913,45.4299277 24.8320335,43.9718581 26.0834184,42.9389692 C26.6639577,42.460104 27.1305393,41.8609856 27.8400874,41.6870479 C28.510933,41.5216998 28.8614067,39.8080922 29.4032434,39.8080922 C28.8936589,39.8080922 28.5152332,42.3054928 28.1690598,42.5417043 C27.0982872,43.2718128 26.3027332,44.5881555 25.7458455,45.7198237 C25.4964286,46.2287523 25.384621,47.1950723 24.9760933,47.4935579 C24.2084913,48.0862342 23.5612974,49.1663653 23.1527697,50.0424955 C22.7979956,50.8026672 21.6799198,53.3773734 22.9786078,53.3430153 C23.2989796,55.0566229 23.5075437,55.8146474 22.331414,57.0730109 C21.475656,57.9899412 21.3079446,62.1472647 22.7227405,62.5466772 C20.9058673,64.683318 21.2197886,66.9896023 20.2307216,69.4676761 C20.0458091,69.9100364 19.0137391,72.6393534 19.5362245,72.8304699 C20.6564504,73.244914 21.8454811,72.7703433 22.9119534,72.4138787 C23.1463193,71.0159356 22.7012391,70.3588381 23.2043732,69.0553797 C23.5526968,68.1556281 23.8386662,67.1764241 24.322449,66.3346519 C24.7051749,65.6668175 24.3138484,64.9367089 24.558965,64.2023053 C24.7632289,63.6031872 25.5587828,63.3777126 25.7845481,62.6368671 C25.8641035,62.3770343 26.2726312,60.7299952 26.1457726,60.7299952 C24.9330904,60.6849003 25.0298469,58.3206374 24.9760933,57.5669077 C25.739395,57.4316229 29.117274,53.0874774 29.3860423,53.340868 C29.8031705,54.0129973 27.1004373,55.7631103 26.8101677,56.1109856 C26.2016764,56.8367993 25.3738703,59.5704114 25.9501093,60.3842674 C26.1995262,60.7042268 27.0165816,59.3148734 27.7196793,59.5618219 C28.8743076,59.965529 30.207398,62.3877711 30.738484,59.6734856 C30.9083455,58.8037975 31.0223032,57.9233725 31.1384111,57.0450949 C31.1878644,56.6585669 31.41793,54.5476944 31.5318878,54.8290009 L31.6522959,55.1274864 C31.9769679,54.4338834 32.568258,54.1504295 33.260605,53.886302 C34.234621,53.5105109 34.1271137,54.0151447 33.0520408,54.8397378 L32.4779519,55.2863924 C32.4736516,56.0744801 32.3553936,56.920547 32.7854228,57.6162975 C32.950984,57.8739828 34.9678207,59.3320524 34.9205175,59.4909584 C34.9850219,59.2590416 32.0844752,58.9390823 31.5834913,58.9562613 C31.6006924,59.8366862 31.3985787,60.5732368 31.5232872,61.4751355 C31.7060496,62.7420886 30.5385204,64.6403708 31.6931487,65.5207959 C32.4112974,66.0511978 33.5315233,66.1950722 33.998105,67.0282547 C34.2862245,67.5715417 34.3098761,69.0790011 33.9572522,69.6158455 C33.6648323,70.1033001 33.1982507,69.9229203 32.8692784,70.2772379 C32.5661078,70.6014921 32.3790452,71.0932416 32.2113338,71.4905063 C31.697449,72.7016277 31.3706268,73.9879066 30.7492347,75.153933 C30.3170554,75.9656419 29.5602041,76.5024863 29.117274,77.2776899 C28.9173105,77.6255648 28.3883746,80.8659583 28.4034256,80.8659583 C27.9862974,80.8659583 27.7519315,79.2962252 27.1047376,79.942586 C26.5155976,80.5309673 27.3262026,82.9854203 27.6573251,83.6725812 C27.9884475,84.3640369 28.7345481,84.8149863 28.9108601,85.5837479 C29.0742711,86.2966772 28.865707,87.3682189 30.0031341,87.3317136 C31.3276239,87.2973555 29.897777,85.5365053 29.6569607,85.0962927 C29.2570335,84.3661846 29.9472303,83.3290011 30.6288265,82.9983049 C31.3125729,82.6611661 31.6329446,82.7105559 31.830758,83.1765369 C32.0844752,83.7949821 33.4283163,84.4112796 33.909949,84.9116187 C34.4367347,85.4570522 35.4645044,87.0139014 36.3568149,87.0139014 C37.1158163,87.0139014 37.0341108,85.1327985 37.0147595,84.7720391 C36.9889577,84.2910264 36.9954082,83.6897606 36.7631924,83.2452532 C36.5309767,82.7814193 36.8620991,82.154385 36.8255466,81.9568265 C36.8685496,82.2746382 36.9610058,82.6139241 37.0427114,82.9295886 C39.1885568,82.7148507 40.2206268,86.7648053 41.5021137,83.9410037 C43.852223,85.8951176 43.80707,82.3948913 45.6024417,82.9403254 C45.8411078,83.0197785 46.2388848,83.0799051 46.4947522,83.0884947 C48.0385568,83.1121155 46.699016,81.1730332 47.6579811,80.6791366 C48.7524052,80.0692811 50.6746356,81.3426761 51.8572158,81.1257911 C51.9432216,81.123644 52.0292274,81.123644 52.1173834,81.1214963 C52.0184767,81.4070976 51.3261297,81.7034356 51.1519679,82.0534583 C50.7391399,82.8737569 51.0681122,82.3455016 50.15,82.8028935 C49.442602,83.1679478 49.2490889,84.0354884 49.0770772,84.7441229 C48.8384111,85.7276218 48.4857872,85.7061482 47.9418003,86.4126355 C46.9312318,87.7182416 47.3591108,89.6809446 46.3979956,91.0745934 C47.0021866,92.2985986 48.1611152,93.1532547 48.7889577,94.3579341 C49.11793,95.0300633 49.0534256,95.8310353 48.6663994,96.4602167 C49.0813776,96.8768086 49.4920554,97.2976947 49.898433,97.7207278 C50.1822522,97.6799278 51.1347668,97.1838834 51.2508746,97.3320522 C51.6271501,97.9290238 49.6361152,101.001921 51.728207,101.001921 C52.8032799,101.001921 53.1688047,96.8639241 54.6287536,98.5431735 C55.0544825,98.4272152 56.7466473,97.6971065 56.684293,97.5124319 C56.7444971,97.7314647 56.168258,98.214625 56.0091473,98.345615 C56.256414,98.7643534 56.8778061,99.5438518 56.7444971,100.050633 C56.4370262,101.291818 55.0093295,100.381329 54.9770772,102.004747 C54.9706268,102.320411 55.4651603,103.097762 55.2759475,103.235195 C54.8201166,103.593806 53.321465,103.226605 53.2526603,104.025429 C53.1924563,104.832843 52.3452989,107.57934 53.5988338,107.884267 C54.0396137,108.002373 54.4803936,108.122627 54.9168732,108.253617 C54.2073251,109.035262 53.0978499,109.902803 52.7839286,110.929249 C52.5538629,111.695863 52.4141035,112.617089 52.7430758,113.381555 C52.9795918,113.931284 53.5214286,114.350023 52.6054665,114.599119 C51.9324709,114.777351 51.3046283,114.934109 51.0272595,115.62986 C51.3390306,116.082957 52.2829446,117.066456 52.1582362,117.624774 C52.007726,118.451514 49.3479956,116.4158 49.0598761,116.134494 C48.0665087,116.478074 47.0537901,116.909697 46.0260204,117.130877 C45.5228863,117.238246 44.9831997,117.231804 44.4693149,117.208182 C44.2005466,117.195299 42.9470117,116.615506 42.8416545,116.701401 C41.9600948,117.803006 41.6676749,118.075723 40.1948251,118.140144 C38.8273323,118.195976 37.0943149,118.472988 36.3998178,119.8559 C35.9697886,120.693377 36.5739796,121.590981 36.1590015,122.475701 C35.4924563,123.98316 33.2520044,124.309562 31.9769679,125.058996 C31.3426749,125.43264 30.7556851,125.939421 30.6245262,126.699593 C30.5879738,126.903594 29.8612245,128.728866 29.6655612,128.454001 C29.7558673,128.499096 29.8440233,128.539896 29.9343295,128.584991 C30.9405976,128.870592 31.387828,127.238585 32.3080904,127.850588 C32.9617347,128.284358 33.7336371,129.416026 33.894898,128.02882 C34.0239067,126.968015 34.043258,126.907889 34.4517857,126.502034 C34.9398688,126.016727 35.5849126,125.789105 36.7072886,125.731126 C38.6402697,125.61302 38.4166545,126.471971 38.5736152,127.98802 C38.6531705,128.765371 39.5282799,129.119688 39.5282799,129.897039 C39.5282799,130.824706 38.4639577,131.417382 38.4768586,132.257007 C38.4876093,132.907663 39.1778061,133.382233 39.3218659,134.002825 C39.427223,134.453775 39.0552478,135.123757 38.9283892,135.540348 C38.468258,137.056397 38.2231414,138.984742 37.1351677,140.221632 C36.8857507,140.507233 36.7954446,140.558771 36.6470846,140.481465 C34.9656705,139.42066 32.2070335,144.189986 31.0373542,142.353978 C31.0201531,142.326062 29.3881924,144.050407 29.0398688,144.230786 C28.2679665,144.602283 27.4358601,144.853526 26.6274052,145.130538 L26.4489432,144.900768 C26.0812682,144.436935 25.4856779,144.310239 25.2061589,144.615167 C24.7825802,145.083296 25.0384475,145.821994 24.4278061,146.180606 C23.8816691,146.500565 21.873433,146.775429 21.9680394,147.707391 C22.0497449,148.34731 24.027879,148.192699 24.5525146,148.710217 C25.6082362,149.822559 23.4430393,150.595615 22.6044825,150.595615 C20.179118,150.595615 24.1031341,152.027916 24.3633017,152.274864 C24.8728863,152.755877 24.8879373,153.601944 25.3717201,154.012093 C26.0619169,154.59618 27.0058309,154.23542 27.6680758,153.857482 C28.3475219,153.462364 29.0076166,153.430153 29.6677114,153.140258 C30.0912901,152.955583 30.0676385,151.939873 30.2590015,151.546904 C30.5707726,150.95208 32.0457726,151.433092 32.553207,151.559787 C33.3294096,151.742315 34.3335277,150.413088 34.6173469,150.84471 C34.8388119,151.166818 34.5915452,151.680041 34.3700802,151.963495 C34.6840015,152.470276 35.3462464,153.271248 36.0278425,153.15529 C36.6578353,153.037184 35.5247085,154.190325 35.5010568,154.274073 C35.4215015,154.501695 35.8880831,155.175972 36.2665087,155.395005 C36.9911078,155.83307 37.6469024,155.139467 38.3220481,155.364941 C39.4745262,155.777238 40.4571429,154.261189 41.5107143,154.016388 C41.6891764,153.975588 41.8267857,154.024977 42.0267493,154.213947 C42.893258,155.019214 42.5341837,156.425746 43.306086,157.23316 C43.7038629,157.649752 44.2112974,157.200949 44.6262755,157.398508 C45.1014577,157.621835 45.193914,158.618219 45.8389577,158.925294 C46.963484,159.487907 49.4985058,159.597423 50.6531341,159.161505 C51.5841473,158.783567 51.934621,157.761415 52.4055029,156.977622 C52.745226,156.412862 54.4223397,156.002713 55.0007289,155.704227 C55.9940962,155.193151 56.8821064,154.793739 57.9808309,154.606917 C58.7419828,153.279837 59.4622813,151.600588 60.7136664,150.668626 C61.2963559,150.245592 61.289905,150.50113 60.6728132,151.501809 C60.1395772,152.35217 59.3182213,152.904046 58.780685,153.679249 C58.365707,154.27622 58.2259475,156.071429 57.6088557,156.39783 C56.6240889,156.913201 56.1596575,157.155854 55.3662536,158.03628 C54.8803207,158.575271 54.3900874,159.112115 53.6396866,159.22378 C53.5321793,160.306058 53.5644315,162.45773 52.4399052,163.028933 C51.846465,163.34245 50.9262026,163.136302 50.268258,163.265144 C49.5114067,163.411166 48.7674563,163.716094 47.9826531,163.668852 C46.9097303,163.606578 46.6818149,162.6467 45.5422376,162.580131 C44.0779883,162.492089 42.4460277,162.056171 40.990379,162.309562 C39.9798105,162.483499 37.1674198,162.363246 36.4385204,163.069733 C35.3182945,164.252938 36.9846575,165.910714 35.9912901,166.956487 C34.4453353,168.607821 32.2113338,165.573576 31.3534256,167.523395 C30.6868805,169.058771 31.5899417,170.954905 30.886844,172.481691 C30.5062682,173.355674 29.7773688,173.652012 29.014067,174.102961 C28.2529154,174.551763 28.143258,175.582505 27.4810131,176.132233 C26.8811224,176.639014 26.064067,176.054928 25.4168732,176.497287 C24.1869898,177.315438 24.9008382,179.054815 23.8967201,179.911619 C23.5462464,180.199367 22.9915087,180.186483 22.5636297,180.070524 C21.9809402,182.441229 19.9555029,183.308771 18.1063776,184.650881 C17.9537172,184.76684 17.2183673,183.983047 17.0119534,183.918626 C16.4034621,183.697446 14.780102,184.511302 14.5908892,185.204905 C14.322121,186.123983 14.2705175,187.062387 14.4124271,188.005086 C15.0617711,187.891275 16.0207362,187.994349 16.5862245,187.676537 C16.6851312,187.625 16.8936953,187.315777 17.0721575,186.978639 C17.8096575,185.591433 19.1577989,186.802554 20.2006195,187.328662 C20.4543367,188.415235 20.6091473,190.279159 21.9873907,189.508251 C23.4838922,188.705131 23.5096939,188.23915 23.2194242,186.433205 C23.8687682,185.91354 24.5052114,185.357369 25.2083091,184.910714 C25.7737974,184.552102 27.1391399,184.670208 27.4294096,184.281533 C27.8637391,183.712477 27.1541909,183.018874 27.5777697,182.436935 C27.9454446,181.945185 28.9409621,182.565777 29.5258017,182.565777 C30.2159985,182.565777 30.7255831,182.372514 31.3469752,182.076176 C33.4627187,181.071203 34.0948615,180.63958 35.6343659,182.655967 L36.1482507,182.338156 C37.1373178,181.726153 36.6771866,182.763337 37.4426385,182.9974 C38.3134475,183.233612 38.9305394,183.072559 39.6379373,182.597988 C40.2120262,182.213608 40.1840744,184.1033 40.3840379,184.376017 C40.6721575,184.773282 41.3752551,185.088947 42.1213557,185.155515 C42.7276968,185.213495 42.7879009,185.194168 43.2501822,184.887093 C44.5230685,184.008815 44.0242347,182.836347 45.6153425,182.299503 C46.2130831,182.074028 46.2324344,181.537184 45.6755466,180.970276 L45.2584184,180.555832 C45.8518586,179.688291 45.7142493,178.588834 46.2238338,177.704114 C46.7054665,176.868784 47.1806487,176.654046 47.0752915,175.588947 L47.421465,175.737115 C48.9373178,176.351266 50.1758017,174.566795 51.6443513,174.5217 C52.4872085,174.493784 52.5732143,174.785828 53.3408163,174.306962 C54.0912172,173.838834 55.0974854,174.126582 55.8822886,174.328436 C57.540051,174.738585 58.3549563,175.752147 59.722449,176.817247 C60.1073252,177.115733 60.2148323,178.056284 60.7695701,178.056284 C61.7027334,178.056284 61.1135931,176.589625 61.5414726,176.162296 C62.0532073,175.634042 65.6052481,176.864489 66.2416907,177.362681 C66.7104228,177.193038 68.1144681,176.931058 67.9983603,176.280402 C67.912354,175.857369 68.1338195,175.816569 67.9553571,175.387093 C67.6478865,174.691343 66.452405,175.421451 66.3577991,174.646248 C66.3169458,174.317699 66.5835644,173.980561 66.8136295,174.060014 C67.0264943,174.12014 67.3425657,174.435805 67.5188776,174.616185 C69.7055759,173.922581 71.7761664,174.021361 74.0424197,174.100814 C74.7132653,173.548938 75.5862245,173.370705 76.2699707,172.827419 C76.540889,172.610533 76.6419458,172.045773 76.874162,171.751582 C77.2310861,171.30278 78.0588922,172.496723 78.2244534,172.773734 C78.7146868,173.64557 79.8994171,172.76085 80.6949707,172.752261 C82.036662,172.724344 82.4989432,172.696429 83.7245262,173.36641 C88.5258017,171.53255 92.5874273,170.914105 97.3908527,172.939082 C99.7001091,173.913992 100.366654,170.222649 102.523251,170.798147 C103.25215,171.019326 104.275619,169.866185 104.834658,169.516162 C105.812974,168.902012 107.006305,168.39523 108.193185,168.736663 C108.025474,168.693716 109.487573,166.039557 109.990707,165.730334 C111.143185,165.025995 112.463374,164.349571 113.706159,163.817021 C115.170408,163.222197 114.353353,161.81137 113.983527,160.752713 C113.673907,159.874435 115.006997,158.678345 114.529665,158.343354 C113.86957,157.890258 112.891254,158.317586 112.140853,158.377713 C111.181888,158.452871 110.061662,158.345502 109.15,158.721293 C107.604045,159.361211 106.376312,159.393423 105.075474,158.214512 C104.671246,158.497966 103.903644,158.837252 103.445663,158.491524 C103.288703,158.382007 103.288703,158.354091 103.424162,158.156533 C103.647777,157.836573 105.299089,157.853752 105.034621,157.200949 C104.987318,157.054928 103.742383,156.511641 103.047886,156.322672 C102.054519,156.071429 101.448178,157.331939 100.566618,157.331939 C100.125838,157.331939 101.32132,156.034923 101.32132,156.034923 C101.942711,155.493784 102.51895,156.041366 103.060787,155.517405 C103.39406,155.188856 103.555321,154.4566 104.142311,154.4566 C105.275437,154.4566 105.589358,155.412184 106.63433,154.379295 C107.408382,153.619123 107.687901,153.030742 107.687901,152.107369 C107.698652,151.136754 107.576093,151.018648 106.78054,151.166818 C106.466618,151.224796 105.948433,151.34505 105.632362,151.443829 C104.965816,151.643535 104.748652,151.555493 105.036771,151.196881 C105.699016,150.432414 106.535423,151.001469 106.93535,149.798938 C107.52879,148.154046 108.726422,149.848328 109.784293,149.848328 C111.50871,149.848328 112.381669,147.320863 111.472158,146.03029 C110.784111,145.063969 110.760459,146.438291 110.210022,146.732482 C109.872449,146.912862 108.659767,147.013789 108.601713,146.865619 C108.614614,146.89783 110.104665,146.328775 110.308929,146.041026 C110.431487,145.864941 110.816363,145.487003 110.648652,145.246496 C110.594898,145.167043 110.149818,144.754747 110.339031,144.634494 C110.883017,144.329566 111.190489,145.738246 111.648469,145.671677 C112.0957,145.671677 112.54293,145.652351 112.98801,145.633024 C113.248178,145.126243 113.553499,144.65382 113.934075,144.228639 C114.387755,143.724005 115.907908,143.019666 116.142274,142.472084 C116.574453,141.540122 116.180976,140.090642 116.342238,139.07708 C116.512099,138.01198 117.240999,137.082166 117.421611,135.98915 C117.804337,133.665687 117.445262,131.273508 117.197996,128.95434 C115.426276,127.118332 113.420189,125.484177 111.074381,124.438404 C109.775693,123.860759 107.625547,124.618784 106.728936,123.487115 C105.114177,123.744801 103.348907,124.223666 101.716946,123.946655 C100.697777,123.772717 100.609621,123.570863 100.340853,124.730448 C100.084985,125.84279 100.063484,126.965868 98.9733603,127.58646 C98.1348029,128.067473 97.7090746,127.751809 97.1070338,127.066795 C96.7544094,126.665235 94.7633744,125.376809 94.7827258,125.275881 C95.2342564,123.285262 97.4661078,122.636754 98.7153425,121.268874 C97.8724853,118.876695 97.7585274,114.712929 95.3482143,113.287071 C94.1441327,112.576289 92.2068514,111.899864 91.4779522,110.596406 C91.0823252,109.911392 90.4888846,109.194168 89.9943514,108.577871 C89.6739796,108.176311 88.5752551,108.358838 88.9364796,108.197785 C90.067456,107.703888 90.8630102,109.050294 91.6069605,109.784697 C92.079993,109.784697 95.5266766,109.615054 95.5266766,110.139014 C95.5266766,106.718242 90.8587098,104.646022 90.682398,101.162975 C90.6651971,100.802215 90.553389,100.117201 91.00922,99.9454114 C91.2672379,99.8487796 92.7615887,99.2067136 91.6263119,98.9833861 C90.0438048,98.6784583 88.8719751,97.2719256 88.1559764,95.9276672 C87.7151971,95.0987796 87.3324707,93.2885395 86.6164726,92.6464736 C85.4252915,91.5749319 84.2061588,90.4089061 82.7118074,89.7818719 C81.2583093,89.1720164 79.5962462,89.3030063 78.159949,88.7511303 C77.6955172,88.5686028 77.3471939,87.3338608 77.0569241,86.8335216 C76.4785351,85.8371382 76.0291543,84.7763339 75.6421282,83.6940554 C74.7218661,81.1429699 74.1542277,78.4716318 73.1630102,75.9463154 C72.7738336,74.9563745 72.7673833,74.3314873 72.7695338,73.2577985 C72.7716837,72.7982595 72.4620625,72.4611213 72.4427111,72.0252036 C72.4147596,71.4561482 72.7265306,71.0094937 72.6190236,70.4060807 C72.5545191,70.0367316 72.1481416,67.6574367 71.6944605,67.5350364 C71.0537175,67.3331825 69.8367347,66.5322104 69.7894317,65.7698913 C69.7507289,65.3210897 69.0540816,65.5701851 68.7509113,65.3747737 C68.2520772,65.056962 68.0521135,64.3204114 67.7532436,63.8436936 C67.394169,63.2746382 66.8759841,62.8322785 66.564213,62.2331598 C66.1728865,61.4837252 65.9428208,60.352057 65.0720115,59.9870027 C64.2786078,59.6391275 63.8528788,60.3778254 63.1648323,60.135172 C62.5735421,59.9182866 62.5670918,59.0163879 61.7844388,58.750113 C60.9910351,58.4795434 59.9632653,58.5869123 59.6686952,57.5561709 L59.5504375,57.1696429 C58.7075803,57.1696429 57.2648323,56.9055153 56.5531341,57.3929701 C56.1876093,57.6442134 56.4434767,58.1101944 56.1446064,58.3850588 C55.6393221,58.846745 54.7147595,59.4394214 54.0181122,59.516727 C53.4160714,59.5940325 53.0182945,58.9734404 52.6484694,58.574028 C51.698105,58.6126809 50.9670554,58.5418174 50.0747449,58.2132685 C49.0770772,57.8482143 47.582726,58.6728074 46.7592201,57.800972 C46.5614067,57.5819394 46.550656,57.5540235 46.7011662,57.334991 C46.7893221,57.1954114 46.9978863,57.0665687 47.1784985,57.0257685 C47.5934767,56.9463156 48.3976312,57.4810127 48.8276603,57.6162975 C49.6447158,57.8761302 50.0231414,57.852509 50.8552478,57.6141501 C51.6465015,57.3886754 52.4184038,57.4058544 52.893586,56.630651 C53.3537172,55.8812161 53.6719388,54.6658002 54.5470481,54.2599457 C55.5382653,53.772491 56.2585642,54.7323689 57.3099854,54.14184 C57.776567,53.8798599 59.5676384,53.164783 59.6987972,52.6214964 C59.9675657,51.6809448 58.0990889,50.8885624 57.3572886,50.8649412 C57.2605321,50.3130651 57.1680758,49.761189 57.0756195,49.2114602 C57.0734694,49.2050181 56.4993805,47.8586121 56.4993805,48.4641727 C56.4993805,49.0074593 51.6379009,50.22717 51.655102,50.1498644 C51.7905612,49.4605561 53.5386297,49.681736 53.9170554,49.0890596 C54.2266764,48.608047 55.002879,47.7319168 55.637172,47.710443 C56.535933,47.641727 57.2820335,48.1399186 58.1076895,47.738359 C59.2924197,47.1628617 60.8383744,46.6281646 61.3651601,45.3118219 C61.5801748,44.7943038 61.5500727,44.5537975 61.3264579,44.0427215 C61.0899419,43.5123191 61.4275147,43.6239828 61.5694241,43.1837704 C61.9413992,42.0263337 62.0661078,41.8502486 63.12828,41.0149186 C63.8356779,40.454453 64.6828354,39.2776899 64.9451531,38.4080018 C65.0806122,37.9591998 64.9129011,37.5254295 65.0096575,37.0830696 C65.1214649,36.5784358 65.5966473,36.0780967 65.8095115,35.6056736 C66.8114796,33.3788427 66.2137392,31.3259494 67.7704445,29.2966772 C68.572449,28.2637885 70.2237608,26.6811709 70.0732506,25.2209539 C69.9377915,23.6555153 68.7100581,22.5345841 67.6715376,21.4823689 C65.8998176,21.823802 64.1022959,21.3878843 62.3176748,21.3556736 C60.9781339,21.3341998 59.7418004,21.2225362 58.4108603,21.1087252 C56.9272595,20.9798824 55.7726312,21.7014014 54.3664358,21.7894439 C53.0505466,21.7894439 52.0894315,20.3163427 50.8509475,20.2025316 C50.0962464,20.1295208 49.6705175,20.6964286 49.3415452,21.2912523 C49.1931851,21.5897378 49.0168732,21.8710443 48.8147595,22.1351718 C48.3460277,22.5990054 47.7998907,21.8903707 47.3827624,22.0385398 C46.5571064,22.3305832 46.1421283,23.1895343 45.1358601,23.2775768 C44.6112245,23.3226718 44.0607872,23.3054928 43.5340015,23.3054928 C42.9362609,23.9196429 42.3557216,24.5939195 41.6999271,25.147943 C41.3688047,25.4271022 39.3261662,25.4636076 39.3412172,25.4185127 C39.4293732,25.1457957 40.2829811,25.1737115 40.4958455,25.1221745 C40.7646137,25.0577532 40.6872085,24.3877713 40.8656705,24.1472649 C41.536516,23.2453662 42.6416909,22.8931962 43.1039723,21.8087704 C42.4309767,21.7464964 41.6698251,21.5918852 41.0032799,21.72717 C40.5969024,21.8109177 38.4252551,23.3613246 38.453207,23.4042722 C38.0274781,22.9769439 39.8787536,21.2762206 40.1733236,21.1044304 C40.8764213,20.6835443 41.1752915,21.3707052 41.8912901,20.7758815 C42.3836735,20.3657324 43.3275874,19.6570976 43.7683673,20.5289331 L43.9468295,20.8768083 C44.3209548,20.4902803 46.5184038,18.3622287 46.0991254,17.9499322 C45.3164723,17.1618445 43.3168367,19.2856013 42.6266399,18.2269439 C42.4782799,17.988585 42.4782799,17.9391953 42.6051385,17.7008363 C42.7922011,17.3787296 43.9941327,16.9428119 43.7382653,16.5713156 C43.1190233,15.6672695 44.4757653,14.7481917 45.1272595,14.4282324 C45.8045554,14.091094 45.9249636,13.4060805 46.5764577,13.0689421 C48.1955175,12.3109177 50.3241618,10.6230786 51.2938776,9.0125452 C51.7497085,8.30176314 52.7258746,8.43919531 53.2999636,7.65754974 C53.9772595,6.72773507 55.1727405,5.51017179 55.3770044,4.37206148 C55.5253644,3.40788879 54.353535,4.08431284 54.3750364,3.43795208 C54.4072886,2.89681284 56.2607143,0.61415009 55.2372449,0.225474684 C54.8889213,0.0794529836 50.9735058,0.100926763 50.9821064,0.0816003618 C50.945554,0.161053345 51.0638119,-0.13528481 50.9821064,0.0816003618 L50.9821064,0.0816003618 L50.9821064,0.0816003618 Z M88.1624273,108.163427 C88.3838922,108.29227 88.3838922,108.29227 87.9452621,108.719598 C87.2507653,109.398169 87.1454082,108.704566 86.4595115,108.470502 C86.0251824,108.322333 85.0984694,109.447559 84.7737972,108.85703 C84.3093661,108.015258 85.2059764,108.36528 85.580102,108.408228 C86.4272596,108.507007 87.3195701,107.703888 88.1624273,108.163427 C88.3838922,108.29227 87.8356052,107.985195 88.1624273,108.163427 L88.1624273,108.163427 L88.1624273,108.163427 Z" id="Shape"></path>
                    <path d="M17.8354592,1.84674503 C16.2185496,2.98056058 15.132726,4.6233047 13.2040452,5.24389692 C12.5762026,5.44575045 11.1227041,5.75926763 11.1227041,6.6461347 C11.1227041,7.03695749 10.1830904,7.52226493 9.87131926,7.87658228 L9.61330172,7.67902353 C8.36621722,6.70196656 7.75342564,9.7748644 7.62656703,10.4963834 C7.80932946,10.8056058 8.34256562,11.4369349 8.34256562,11.7740733 C8.17915453,11.8041366 8.01144317,11.8019891 7.84588195,11.7654837 C6.50204082,11.6130199 7.29114432,12.7640144 7.95123909,13.0968581 C8.41137028,13.3266275 10.6991254,13.6809448 9.8369169,14.60217 C9.46709184,14.9951401 8.79624636,14.0975362 8.0372449,14.3874322 C6.63965013,14.9221293 7.68247085,15.0037296 8.30601314,15.454679 C8.49522596,15.6028481 8.49522596,15.6028481 8.25655976,15.8025543 C8.10819968,15.9271022 6.95357143,16.2599457 6.95357143,16.3673147 C6.95357143,17.0158228 8.16625364,18.0873644 8.63068514,18.5103978 C9.19187315,17.9692586 12.4686953,16.7259267 12.0881195,15.7617541 C11.7935496,14.9865506 14.0125,14.9328662 14.3156705,14.8534132 C15.3756924,14.5764014 14.8252551,12.983047 15.9282799,12.7854882 L16.2465015,12.727509 C16.2336006,12.3173599 16.2163994,11.8792948 16.1389942,11.4798824 C16.1045918,11.2887658 15.3455904,10.3589512 15.3391399,10.4040461 C15.4057945,10.0325497 15.9906341,10.1914557 15.9906341,9.70185353 C15.9970846,9.25090417 16.2443513,8.83860759 16.5002187,8.48429024 C16.8850948,7.94744572 19.3513119,5.95897378 18.6718659,5.33838156 C18.7578717,5.41783454 19.0889942,1.07583634 17.8354592,1.84674503 C17.7365525,1.91546112 18.0762755,1.69857595 17.8354592,1.84674503 L17.8354592,1.84674503 L17.8354592,1.84674503 Z" id="Shape"></path>
                    <path d="M18.5622085,7.61889694 C18.054774,8.02260395 17.5430393,8.00971973 17.4183309,8.77848101 C17.3409256,9.21654609 17.6376458,9.49355786 18.1450802,9.48496835 C18.820226,9.46349457 19.2373542,8.89014467 19.426567,7.6682866 C19.5383746,6.95750454 18.865379,7.38053797 18.5622085,7.61889694 C18.3235423,7.80786619 18.8008746,7.42992769 18.5622085,7.61889694 L18.5622085,7.61889694 L18.5622085,7.61889694 Z" id="Shape"></path>
                    <path d="M5.77314139,18.3686709 C5.4119169,18.7251356 5.27215746,19.5840868 4.68086735,19.6399186 C3.97776968,19.7064873 3.29187318,19.2426537 2.61242711,19.6699819 C2.24690233,19.8890144 2.11789358,20.0973101 2.02543732,20.6212704 C1.84052478,21.7915913 3.51763848,21.6842224 3.82940962,22.5582052 C4.06377551,23.221745 3.42303207,23.6104204 3.17361516,24.1322333 C2.92849854,24.647604 3.36067784,24.9825949 3.06180758,25.4786392 C2.47266764,26.4621383 3.04460642,27.7849232 2.49416909,28.7920434 C2.09854228,29.5586573 2.49846939,30.8341998 2.48341837,31.7189195 C3.09405976,32.0947107 3.94981779,32.7797242 4.57981052,32.1054476 C5.35171282,31.3001809 4.44435134,29.7540687 5.11519681,28.7619801 C5.73228865,27.8386076 5.40976677,27.6324593 4.87868074,26.8572559 C4.39489796,26.1507685 5.55812685,26.0648734 5.80969388,25.7470615 C6.06986154,25.4142179 6.0505102,24.312613 6.20747085,23.8745479 C6.56869534,22.8674277 7.08043004,21.9225814 7.5147595,20.9476718 C7.92113705,20.0328888 7.39865159,20.2347423 6.83101314,19.5389919 C6.53429299,19.1782324 6.65040089,17.4925407 5.77314139,18.3686709 C5.67208457,18.4695976 5.88064866,18.261302 5.77314139,18.3686709 L5.77314139,18.3686709 L5.77314139,18.3686709 Z" id="Shape"></path>
                    <path d="M15.6423105,19.6399186 C13.9372449,20.5353752 15.8057216,22.6011528 14.6295918,23.6662523 C14.4597303,23.8036844 14.410277,23.7950949 13.894242,23.477283 C13.2577989,23.0971971 13.2491983,22.6784584 13.0406341,22.0192134 C12.9718295,21.7507911 12.3568878,21.7915913 12.1676749,22.07934 C11.8946064,22.5259946 12.8449709,24.3620027 12.0107143,24.7764467 C12.0687682,24.7313517 11.8322522,24.0248644 11.6709913,23.9540009 C11.0216473,23.653368 10.5937682,24.3813291 10.1508382,24.7485308 C9.73370989,25.096406 9.71435861,25.4807866 10.1207362,25.5709765 C11.1463557,25.7857143 11.2366618,27.454227 12.066618,28.0082505 C12.7460642,28.4591998 13.4061589,25.8458409 13.806086,27.0591094 C14.1135568,27.9803345 13.4749636,28.8027803 14.0533527,29.7068264 C14.4124271,30.2372287 14.6037901,29.8421112 15.0854228,30.0203436 C15.502551,30.1749548 15.0832726,31.1283906 15.3756924,31.471971 C15.8358236,32.0259946 17.5559402,31.869236 17.7688047,31.1047695 C17.8913629,30.6709991 17.6161443,30.4927667 17.5172376,30.0997966 C17.3559767,29.449141 17.9429665,28.834991 18.200984,28.2981465 C18.7084184,27.2480786 17.7021501,26.6489602 17.8118076,25.5860081 C17.9171647,24.5660036 18.7256195,23.1487342 18.2074344,22.1480561 C17.8741618,21.50599 16.947449,19.4702758 16.1088922,19.4702758 C16.0207362,19.4810127 15.8100219,19.5497287 15.6423105,19.6399186 C14.8661078,20.045773 15.8100219,19.5497287 15.6423105,19.6399186 L15.6423105,19.6399186 L15.6423105,19.6399186 Z" id="Shape"></path>
                    <path d="M1.84052478,33.1168626 C1.51155248,33.2542948 1.15462828,33.3938743 1.04497085,33.4239376 C0.215014579,33.5871383 0.169861518,35.9879069 0.657944605,36.5268987 C0.793403788,36.6514467 0.926712825,36.7759946 1.06217201,36.8983951 C0.677295918,36.7029837 3.0252551,34.3430153 3.4574344,34.1561935 L3.36712828,33.7288653 C3.17791545,32.9085669 2.73283527,32.7303345 1.84052478,33.1168626 C1.51155248,33.2564421 2.73283527,32.7303345 1.84052478,33.1168626 L1.84052478,33.1168626 L1.84052478,33.1168626 Z" id="Shape"></path>
                    <path d="M16.0400874,43.1945072 C15.2638848,43.3426763 14.8575073,43.5123191 14.7478499,43.7313517 C14.4618805,44.3326176 13.7093295,45.0391049 14.1135568,45.7627713 C14.2576166,46.0376356 15.3090379,45.9281194 15.6315598,46.0891727 C16.4077624,46.4671112 16.4658163,46.5658906 16.2486516,47.130651 C16.018586,47.7040009 15.93043,48.3825723 15.5326531,48.8764692 C14.7564504,49.8857369 16.8635933,48.8936483 17.1431122,49.2629973 C17.2334184,49.39184 17.2441691,49.5099457 17.1646137,49.7182414 C17.0248542,50.1240958 16.7474854,50.1842224 16.3776603,49.8771474 C15.8508746,49.4369349 13.982398,49.1985759 13.3717566,49.3617767 C11.3011662,49.8900316 13.8125364,51.1140371 14.1845117,51.6014919 C15.6165087,50.9143309 17.1710642,50.403255 18.7793732,50.5600136 C19.2739067,50.6072559 20.0759111,51.0109629 20.5209913,50.6630877 C20.9703717,50.3109177 21.135933,49.5765144 21.6928207,49.4219033 C21.9916909,49.3381555 22.6453353,49.2887658 22.3120627,48.8743219 C21.7895772,48.2279611 21.3659985,47.3475362 20.7897595,46.7720389 C20.1748178,46.1578888 19.2373542,46.3618897 18.5987609,45.8014241 C17.8763119,45.1658002 18.1171283,44.1329114 17.5516399,43.4908454 C17.1194606,43.0656646 16.5668732,43.1000226 16.0400874,43.1945072 C15.2638848,43.3426763 16.3174563,43.1451176 16.0400874,43.1945072 L16.0400874,43.1945072 L16.0400874,43.1945072 Z" id="Shape"></path>
                    <path d="M20.0909621,55.2735081 C18.9105321,56.2140596 18.3751458,57.3929701 17.390379,58.4752486 C16.4980685,59.4437161 16.7603863,59.9762658 17.2011662,61.1229657 C18.1816327,61.2754293 19.514723,59.9848553 19.7899417,59.102283 C20.0329082,58.3249322 22.125,54.7302215 21.3315962,54.4295886 C21.2627915,54.3995253 20.7059038,54.7882007 20.0909621,55.2735081 C19.0072886,56.1367541 20.7059038,54.7882007 20.0909621,55.2735081 L20.0909621,55.2735081 L20.0909621,55.2735081 Z" id="Shape"></path>
                    <path d="M14.5113338,59.2504521 C13.7953353,59.7164331 12.7374636,59.6090642 12.1375729,60.1630875 C11.1485058,61.0757231 11.4043732,62.931058 10.8388848,64.1121155 L11.0861516,64.2001582 C11.7397959,64.4535491 12.464395,63.5945976 12.8858236,63.2016277 C13.0621356,63.0362796 13.8469388,61.8208634 13.8877915,62.1386757 C13.9587464,62.7249098 13.0341837,63.7212927 13.7480321,64.2602848 C14.1630102,64.5501809 12.5331997,65.3447104 12.9825802,66.1048824 C13.3373542,66.7147379 16.874344,64.9195301 17.2248178,64.0648734 C17.4720846,63.4593128 16.8033892,62.3512658 16.6657799,61.7392632 C16.4486152,60.7600585 16.6722303,59.357821 15.5950073,58.9047242 C15.2466837,58.7651447 15.235933,58.7651447 14.5113338,59.2504521 C14.0232507,59.568264 15.235933,58.7651447 14.5113338,59.2504521 L14.5113338,59.2504521 L14.5113338,59.2504521 Z" id="Shape"></path>
                    <path d="M25.1760568,64.9130875 C24.8578353,65.9760395 24.8169825,66.2337252 24.9395408,66.2723782 C26.5069971,66.7963381 25.2147595,69.2422015 26.5370991,70.0517632 C26.9434767,70.3008592 27.8465379,70.3201851 28.5947886,70.0925633 C29.1129738,69.944394 29.1215744,69.9336572 29.0613703,69.6265823 C28.9710642,69.1734858 29.1774781,68.106239 28.9130102,67.8399636 C28.2142128,67.1420659 28.4442784,65.9395343 28.2120627,65.0612569 C28.0723032,64.5308544 27.5906705,63.9510622 27.0380831,63.8544304 C25.575984,63.5967453 25.6168367,63.4614605 25.1760568,64.9130875 C24.8578353,65.9738924 25.3953717,64.1915685 25.1760568,64.9130875 L25.1760568,64.9130875 L25.1760568,64.9130875 Z" id="Shape"></path>
                    <path d="M13.8340379,71.7374546 C13.5502187,71.9070976 13.1223397,72.3966999 13.3287536,72.7767859 C13.4642128,73.028029 14.249016,72.1153935 14.4511297,72.5169531 C14.5156341,72.6457959 14.7155976,74.6299731 15.3434402,73.4209989 C15.5219024,73.0752711 15.5305029,72.1518987 15.3649417,71.9242769 C15.0467201,71.5076851 14.352223,71.4196429 13.8340379,71.7374546 C13.4685131,71.9543402 14.352223,71.4196429 13.8340379,71.7374546 L13.8340379,71.7374546 L13.8340379,71.7374546 Z" id="Shape"></path>
                    <path d="M34.7076531,113.937726 C34.1894679,114.073011 33.6433309,114.09019 33.1100948,114.083748 C33.0197886,114.560466 32.3962464,117.854543 33.1100948,117.854543 C33.5551749,117.854543 35.606414,120.493671 36.0772959,119.581035 C36.6814869,118.39783 38.1951895,117.961912 38.9283892,116.873191 C39.3756195,116.218242 39.2638119,115.913314 38.7692784,116.375 C38.5134111,116.624096 38.113484,116.656306 37.8769679,116.4566 C37.199672,115.906872 37.0943149,114.096632 36.4944242,113.849684 C36.2385568,113.748757 35.2451895,113.798147 34.7076531,113.937726 C34.4388848,114.006442 35.2451895,113.798147 34.7076531,113.937726 L34.7076531,113.937726 L34.7076531,113.937726 Z" id="Shape"></path>
                    <path d="M30.9857507,115.951967 C30.9857507,116.778707 31.8458091,117.753617 32.7338193,117.753617 C32.8348761,117.753617 32.6521137,115.820976 32.1769315,115.634155 C31.8114067,115.483838 31.3792274,115.451628 30.9857507,115.477396 L30.9857507,115.951967 C30.9857507,116.675633 30.9857507,115.951967 30.9857507,115.951967 L30.9857507,115.951967 L30.9857507,115.951967 Z" id="Shape"></path>
                    <path d="M74.958382,173.868897 L73.7844024,174.435805 L73.7844024,174.794417 C73.7844024,175.483725 76.7709547,177.360533 77.5708093,177.360533 C78.8436952,177.360533 79.0909624,175.636189 80.0327258,175.009155 C80.2756926,174.869575 79.2801748,173.621948 79.3876824,173.400768 C79.5016397,173.226831 77.6783163,173.563969 77.5987608,173.568264 C76.4075803,173.652012 76.1345115,173.301989 74.958382,173.868897 C74.958382,173.868897 75.5948252,173.561822 74.958382,173.868897 L74.958382,173.868897 L74.958382,173.868897 Z" id="Shape"></path>
                </g>
                <circle id="Oval-2" fill="#FA8D3E" cx="49.5" cy="63.5" r="4.5"></circle>
                <circle id="Oval-2-Copy" fill="#FA8D3E" cx="89.5" cy="155.5" r="4.5"></circle>
                <circle id="Oval-2-Copy-2" fill="#FA8D3E" cx="52.5" cy="149.5" r="4.5"></circle>
            </g>
        </g>
    </g>
</svg>