<?xml version="1.0" encoding="UTF-8" standalone="no"?>
<svg width="320px" height="320px" viewBox="0 0 320 320" version="1.1" xmlns="http://www.w3.org/2000/svg" xmlns:xlink="http://www.w3.org/1999/xlink" xmlns:sketch="http://www.bohemiancoding.com/sketch/ns">
    <!-- Generator: Sketch 3.3.3 (12072) - http://www.bohemiancoding.com/sketch -->
    <title>icon--scroll</title>
    <desc>Created with Sketch.</desc>
    <defs></defs>
    <g id="Page-1" stroke="none" stroke-width="1" fill="none" fill-rule="evenodd" sketch:type="MSPage">
        <g id="icon--scroll" sketch:type="MSLayerGroup">
            <circle id="Oval-1" fill="#EFEFEF" sketch:type="MSShapeGroup" cx="160" cy="160" r="160"></circle>
            <g id="Group" transform="translate(84.000000, 75.000000)" sketch:type="MSShapeGroup">
                <path d="M150.943277,40.35626 C147.103021,40.24172 138.99434,38.54852 127.913362,28.52876 C118.116894,19.67598 114.963702,11.53534 119.258681,6.19844 C119.726681,5.6108 119.635404,4.75258 119.051234,4.27948 C118.797319,4.0753 118.493617,3.97736 118.191574,3.97736 C117.793277,3.97736 117.398298,4.14834 117.131106,4.48366 L108.038298,15.71688 C107.231745,10.89292 108.245745,6.46072 111.068681,2.5149 C112.311702,0.82502 114.178723,0 116.772638,0 C124.144468,0 135.144128,6.74292 142.247106,13.01606 C150.792255,20.54914 155.643191,27.91954 155.907064,33.76606 C156.018255,36.24444 155.304638,38.38086 153.77617,40.13216 C153.377872,40.22346 152.56634,40.36456 151.39634,40.36456 L150.943277,40.35626 L150.943277,40.35626 Z" id="Shape" fill="#006D5B"></path>
                <path d="M84.1769362,113.70004 C83.0318298,113.55396 81.7722128,113.27176 80.4594894,112.9132 C81.1797447,113.81126 81.9481277,114.7143 82.7596596,115.61568 C83.2326383,114.97326 83.6956596,114.33914 84.1769362,113.70004 L84.1769362,113.70004 L84.1769362,113.70004 Z" id="Shape" fill="#006D5B"></path>
                <path d="M44.1728936,164.3649 C41.8262553,164.29186 38.8506383,163.71916 35.6625957,162.72482 C39.858,156.80526 46.1842979,147.9973 54.2299149,137.17908 L58.4917021,141.56812 C59.0310638,142.11592 59.7446809,142.42634 60.5014468,142.44792 L60.5379574,142.44792 C60.7337872,142.44792 60.8648936,142.43796 61.0009787,142.4197 C61.3461702,142.36492 61.6681277,142.25204 61.9618723,142.096 C59.2468085,145.9555 56.5881702,149.7652 54.0091915,153.46202 C54.0091915,153.46202 48.4678723,161.41176 46.5145532,164.19392 C46.2224681,164.2653 45.606766,164.3732 44.6259574,164.3732 L44.1728936,164.3649 L44.1728936,164.3649 Z M63.8886383,139.35368 C64.9491064,137.0662 66.9920426,132.3518 68.6964255,126.658 C69.3901277,127.67226 70.0937872,128.65996 70.8107234,129.61446 C68.4790213,132.8664 66.1655745,136.12498 63.8886383,139.35368 L63.8886383,139.35368 L63.8886383,139.35368 Z" id="Shape" fill="#006D5B"></path>
                <path d="M94.7102553,96.25344 C92.5677447,96.19036 90.0086809,95.58778 87.2305532,94.49716 C101.318681,76.97918 115.249149,60.55182 128.651872,45.65996 C128.907447,45.37278 129.031915,44.99098 128.992085,44.61084 C128.957234,44.22572 128.759745,43.88044 128.447745,43.65136 C128.318298,43.5501 115.567787,34.00178 110.160894,22.33696 L113.095021,18.7082 C114.993574,23.24996 118.657915,27.99258 124.013362,32.83812 C130.880681,39.0515 137.557149,43.1351 143.91166,45.01256 C126.698553,61.07472 111.058723,77.83574 96.1690213,96.17708 C95.7939574,96.22854 95.3973191,96.26008 94.9708085,96.26008 L94.7102553,96.25344 L94.7102553,96.25344 Z" id="Shape" fill="#006D5B"></path>
                <path d="M26.2594468,166 C9.34838298,159.0695 2.10102128,148.12346 0.974170213,140.08408 C0.484595745,136.5599 1.37080851,134.9414 1.61642553,134.72892 C12.7455319,126.7825 28.5264255,110.8631 48.5176596,87.42058 C49.0404255,87.52516 49.5864255,87.62476 50.1407234,87.72104 C51.0402128,90.34218 52.3247234,92.99486 53.8847234,95.46992 C53.4349787,99.54688 50.5921277,120.58904 38.8904681,133.87734 C38.0291489,134.85176 37.931234,136.29928 38.6514894,137.39654 C39.1842128,138.20994 40.0886809,138.7013 41.0728085,138.7013 C41.3881277,138.7013 41.6951489,138.65316 41.9938723,138.54858 L47.3028511,136.78234 C36.9271915,150.79108 29.5520426,161.27066 26.2594468,166 L26.2594468,166 L26.2594468,166 Z" id="Shape" fill="#006D5B"></path>
                <path d="M81.8717872,91.90756 C78.7899574,90.14796 75.9670213,88.063 74.0037447,86.0876 C72.4752766,84.54712 71.0165106,82.76428 69.7568936,80.8918 C73.0959574,78.09802 79.3508936,72.55362 82.6617447,67.59022 C85.2324255,63.73238 85.5394468,59.04122 83.4799149,55.0456 C82.391234,52.94404 80.73,51.2857 78.7700426,50.30796 C86.6364255,40.28488 94.6787234,29.77874 102.72766,19.01862 C105.704936,30.48756 115.806766,40.5289 121.220298,45.24828 C108.562723,59.44294 95.3342553,75.1233 81.8717872,91.90756 L81.8717872,91.90756 L81.8717872,91.90756 Z" id="Shape" fill="#006D5B"></path>
                <path d="M52.0392766,82.15672 C39.3750638,80.11326 36.0277021,76.66212 35.178,75.26274 C34.6651915,74.4344 34.7830213,73.98122 34.7863404,73.96296 C34.7863404,73.96296 35.5729787,71.57588 35.8285532,70.82224 C39.8314468,74.47756 46.7037447,77.89882 52.5205532,80.13484 C52.5985532,80.78722 52.6815319,81.37818 52.7528936,81.8961 L52.0392766,82.15672 L52.0392766,82.15672 Z" id="Shape" fill="#FA8D3E"></path>
                <path d="M51.9529787,73.68906 C44.4566809,70.43712 39.4182128,66.95278 38.3809787,65.32432 C40.8454468,65.63806 45.8374468,67.88404 51.8948936,72.3345 C51.9081702,72.79266 51.9297447,73.2392 51.9529787,73.68906 L51.9529787,73.68906 L51.9529787,73.68906 Z" id="Shape" fill="#FA8D3E"></path>
                <path d="M58.3406809,79.89746 C57.1441277,70.65292 57.3266809,60.17998 60.395234,56.3404 C61.1735745,55.37428 62.0863404,54.88126 63.1899574,54.83478 L65.7208085,54.90948 C62.556,59.9592 61.6797447,67.77282 63.113617,78.18932 L58.3406809,79.89746 L58.3406809,79.89746 Z" id="Shape" fill="#FA8D3E"></path>
                <path d="M68.3080851,74.46926 C68.0242979,69.21038 68.1388085,60.88216 71.1708511,56.9463 C72.0205532,55.84738 72.9980426,55.2697 74.2427234,55.13524 C74.3705106,55.11698 74.4949787,55.11366 74.6128085,55.11366 C76.1562128,55.15848 77.5037872,56.12792 78.3186383,57.7099 C79.3957021,59.79984 79.2098298,62.28486 77.8290638,64.36318 C75.5554468,67.76618 71.4430213,71.70038 68.3080851,74.46926 L68.3080851,74.46926 L68.3080851,74.46926 Z" id="Shape" fill="#FA8D3E"></path>
                <path d="M55.1410213,129.76884 C54.5900426,129.2061 53.8332766,128.88904 53.0582553,128.88904 C52.7462553,128.88904 52.4325957,128.9405 52.1371915,129.0401 L48.7533191,130.16724 C53.8000851,121.8357 56.5699149,112.63432 58.0635319,105.84824 C59.9023404,110.77844 62.0448511,115.453 64.4728085,119.80386 C63.1866383,125.58232 61.1586383,130.96072 59.6865957,134.44672 L55.1410213,129.76884 L55.1410213,129.76884 Z" id="Shape" fill="#FA8D3E"></path>
                <path d="M84.8739574,136.32916 C78.7484681,130.9159 68.1520851,119.13488 61.643234,98.2969 L66.5041277,96.5954 C69.3220851,105.1693 76.3603404,119.41542 93.4838298,130.51418 L87.4562553,130.77646 C86.669617,130.80966 85.9145106,131.16656 85.4017021,131.7708 C84.8922128,132.32192 84.6283404,133.1071 84.6914043,133.90556 L84.8739574,136.32916 L84.8739574,136.32916 Z" id="Shape" fill="#FA8D3E"></path>
                <path d="M86.0555745,109.42886 C84.0076596,109.37242 81.2494468,108.70012 78.257234,107.53812 C74.9779149,102.53488 73.0727234,97.96158 71.9923404,94.67644 L74.2344255,93.8896 C79.0953191,97.44366 86.6862128,101.43762 93.4788511,102.01032 C91.2317872,104.8373 88.9266383,107.75226 87.7599574,109.26618 C87.5956596,109.32262 87.1774468,109.4355 86.346,109.4355 L86.0555745,109.42886 L86.0555745,109.42886 Z" id="Shape" fill="#FA8D3E"></path>
                <path d="M59.1870638,92.9849 C57.9141702,91.0676 56.8404255,88.99924 56.0338723,86.90598 L64.7300426,83.78518 C66.1191064,85.87346 67.6625106,87.84554 69.197617,89.48396 L59.1870638,92.9849 L59.1870638,92.9849 Z" id="Shape" fill="#FA8D3E"></path>
            </g>
        </g>
    </g>
</svg>