<?xml version="1.0" encoding="UTF-8" standalone="no"?>
<svg width="320px" height="320px" viewBox="0 0 320 320" version="1.1" xmlns="http://www.w3.org/2000/svg" xmlns:xlink="http://www.w3.org/1999/xlink" xmlns:sketch="http://www.bohemiancoding.com/sketch/ns">
    <!-- Generator: Sketch 3.3.3 (12072) - http://www.bohemiancoding.com/sketch -->
    <title>Oval-1 + Shape</title>
    <desc>Created with Sketch.</desc>
    <defs></defs>
    <g id="Page-1" stroke="none" stroke-width="1" fill="none" fill-rule="evenodd" sketch:type="MSPage">
        <g id="Oval-1-+-Shape" sketch:type="MSLayerGroup">
            <circle id="Oval-1" fill="#EFEFEF" sketch:type="MSShapeGroup" cx="160" cy="160" r="160"></circle>
            <path d="M135.946473,80.314441 L147.614769,91.9882866 C153.170483,88.2770768 158.820551,85.4298424 164.250461,83.5631372 L155.512653,74.8290286 C148.882056,75.3729447 142.223709,77.206349 135.946473,80.314441 L135.946473,80.314441 L135.946473,80.314441 Z M148.839505,93.2037726 L159.778879,104.148697 C164.744426,99.8880204 169.534218,96.1749605 173.904047,93.2093227 L165.599151,84.9044268 C160.196991,86.6582788 154.500673,89.4444612 148.839505,93.2037726 L148.839505,93.2037726 L148.839505,93.2037726 Z M160.985115,105.356782 L174.973379,119.341346 C179.343208,114.237045 183.017417,109.445403 185.892402,105.199528 L175.128783,94.4396091 C170.881058,97.3145943 166.089416,100.988803 160.985115,105.356782 L160.985115,105.356782 L160.985115,105.356782 Z M176.183315,120.553132 L187.128239,131.492506 C190.882,125.827638 193.670032,120.13317 195.425734,114.73286 L187.117139,106.431664 C184.15335,110.795943 180.43844,115.587585 176.183315,120.553132 L176.183315,120.553132 L176.183315,120.553132 Z M188.345574,132.707992 L200.01387,144.383688 C203.125662,138.106452 204.960916,131.448105 205.506683,124.813808 L196.768874,116.07415 C194.898468,121.50591 192.053085,127.155978 188.345574,132.707992 L188.345574,132.707992 L188.345574,132.707992 Z M199.743762,144.916503 L188.019964,133.189006 C184.832321,137.893696 181.024908,142.524383 176.669879,146.896062 L189.2077,159.433883 C193.59048,155.025203 197.107434,150.105907 199.743762,144.916503 L199.743762,144.916503 L199.743762,144.916503 Z M186.804479,131.97352 L175.815154,120.982345 C172.139095,125.244871 168.067124,129.623951 163.737996,133.962329 L175.465493,145.691676 C179.872324,141.264495 183.666786,136.635658 186.804479,131.97352 L186.804479,131.97352 L186.804479,131.97352 Z M174.599668,119.768709 L160.554052,105.726793 C156.385878,109.312199 152.016049,113.358269 147.570367,117.796551 L162.52991,132.757943 C166.968192,128.312262 171.016112,123.936882 174.599668,119.768709 L174.599668,119.768709 L174.599668,119.768709 Z M159.344116,104.516857 L148.358491,93.5275321 C143.694503,96.6633749 139.061966,100.454137 134.636635,104.864668 L146.365982,116.592165 C150.70436,112.257487 155.07974,108.191066 159.344116,104.516857 L159.344116,104.516857 L159.344116,104.516857 Z M147.139305,92.306496 L135.413658,80.5826989 C130.224254,83.220877 125.308658,86.734131 120.896278,91.1206109 L133.432249,103.660282 C137.803928,99.301553 142.432765,95.4959904 147.139305,92.306496 L147.139305,92.306496 L147.139305,92.306496 Z M109.47219,107.166136 L121.062783,118.760429 C124.180125,114.007638 127.920936,109.3159 132.237114,104.872068 L119.706693,92.339797 C115.399765,96.866881 111.990114,101.884229 109.47219,107.166136 L109.47219,107.166136 L109.47219,107.166136 Z M122.287519,119.985165 L133.156591,130.854237 C136.793798,126.582461 140.839868,122.17933 145.165296,117.802101 L133.441499,106.080154 C129.07537,110.573937 125.34566,115.273076 122.287519,119.985165 L122.287519,119.985165 L122.287519,119.985165 Z M134.368377,132.062323 L148.265988,145.959934 C152.443412,142.411529 156.837292,138.38766 161.325525,133.958629 L146.371532,119.002786 C141.938801,123.489169 137.918632,127.884899 134.368377,132.062323 L134.368377,132.062323 L134.368377,132.062323 Z M149.475924,147.17357 L160.346846,158.042642 C165.057085,154.980801 169.754374,151.251091 174.253707,146.888662 L162.52991,135.168565 C158.154531,139.490293 153.7477,143.536363 149.475924,147.17357 L149.475924,147.17357 L149.475924,147.17357 Z M161.566032,159.259978 L173.165875,170.854271 C178.442231,168.336346 183.46328,164.921146 187.988514,160.625318 L175.461793,148.096748 C171.016112,152.401825 166.322523,156.150036 161.566032,159.259978 L161.566032,159.259978 L161.566032,159.259978 Z M172.616409,171.115129 L161.079467,159.578188 C155.407199,163.241296 149.659079,165.990478 144.160716,167.720278 L152.545165,176.101027 C159.312665,175.775417 166.148617,174.112218 172.616409,171.115129 L172.616409,171.115129 L172.616409,171.115129 Z M159.858431,158.359001 L149.044861,147.541731 C144.016412,151.800557 139.174819,155.478466 134.81054,158.366402 L142.799076,166.349388 C148.264138,164.750941 154.06406,162.059111 159.858431,158.359001 L159.858431,158.359001 L159.858431,158.359001 Z M147.829375,146.326245 L133.998366,132.498936 C129.628536,137.673539 125.989479,142.509582 123.197746,146.749908 L133.578403,157.128715 C137.816879,154.340682 142.654772,150.699775 147.829375,146.326245 L147.829375,146.326245 L147.829375,146.326245 Z M132.78843,131.2853 L121.97116,120.46618 C118.2692,126.260551 115.57737,132.064173 113.980773,137.529235 L121.963759,145.517771 C124.846145,141.151642 128.527754,136.315599 132.78843,131.2853 L132.78843,131.2853 L132.78843,131.2853 Z M120.746423,119.250694 L109.216882,107.713752 C106.210543,114.177843 104.541794,121.011946 104.225434,127.783146 L112.602482,136.163894 C114.332284,130.669232 117.083315,124.921111 120.746423,119.250694 L120.746423,119.250694 L120.746423,119.250694 Z M198.567127,95.48304 C199.947268,100.89815 199.466254,107.373342 197.357191,114.255546 L205.643587,122.540091 C206.004348,112.951257 203.654778,103.519678 198.567127,95.48304 L198.567127,95.48304 L198.567127,95.48304 Z M166.070915,82.9729697 C172.956819,80.8657573 179.428311,80.3847431 184.843421,81.7648839 C176.806783,76.6735332 167.377054,74.3258137 157.79377,74.6921246 L166.070915,82.9729697 L166.070915,82.9729697 Z M194.682012,90.650697 C194.302751,94.1232498 191.927281,99.1220978 188.084717,104.981221 L195.988151,112.886505 C198.491275,104.085795 198.152715,96.189761 194.682012,90.650697 L194.682012,90.650697 L194.682012,90.650697 Z M175.34524,92.2472942 C181.204363,88.4084306 186.208762,86.0292602 189.673914,85.6481489 C184.13855,82.1755961 176.238816,81.8407362 167.443656,84.3420103 L175.34524,92.2472942 L175.34524,92.2472942 Z M186.85258,103.752785 C192.165938,95.618094 194.315701,89.7201194 192.460097,87.8663645 C190.604492,86.0107596 184.712067,88.1605232 176.575526,93.4757306 L186.85258,103.752785 L186.85258,103.752785 Z M112.056716,138.025049 L104.164382,130.134566 C104.153282,139.075881 106.515802,147.811839 111.275993,155.328612 C109.993905,150.300163 110.321365,144.357787 112.056716,138.025049 L112.056716,138.025049 L112.056716,138.025049 Z M121.014681,146.983015 L113.459058,139.421841 C111.403647,147.621284 111.888361,154.93825 115.164808,160.160955 C115.520019,156.919659 117.616131,152.346323 121.014681,146.983015 L121.014681,146.983015 L121.014681,146.983015 Z M132.11131,158.075943 L122.246818,148.215151 C117.477377,155.754124 115.619922,161.184035 117.381174,162.943437 C119.144276,164.71209 124.576037,162.850935 132.11131,158.075943 L132.11131,158.075943 L132.11131,158.075943 Z M140.90092,166.872953 L133.345296,159.309929 C127.980138,162.70663 123.406802,164.808292 120.167356,165.163503 C125.390061,168.43625 132.705177,168.920964 140.90092,166.872953 L140.90092,166.872953 L140.90092,166.872953 Z M150.188195,176.154678 L142.299561,168.266045 C135.968674,170.001396 130.031848,170.328855 125.003399,169.043067 C132.514622,173.808808 141.256131,176.169478 150.188195,176.154678 L150.188195,176.154678 L150.188195,176.154678 Z M105.43907,103.94149 C102.689889,110.266828 101.113642,117.223034 100.978588,124.5326 L102.615887,126.173599 C103.128352,119.487501 104.908105,112.775502 107.936644,106.435364 L105.43907,103.94149 L105.43907,103.94149 Z M115.714274,88.352929 C111.590502,92.7412588 108.182701,97.814109 105.685128,103.384624 L108.193802,105.893298 C110.770928,100.635443 114.21018,95.6402947 118.494907,91.1335612 L115.714274,88.352929 L115.714274,88.352929 Z M131.541493,76.7086842 C126.083831,79.3616628 121.149735,82.8952674 116.90571,87.1318928 L119.693742,89.9180753 C124.085772,85.548246 128.979167,82.0109412 134.14637,79.3191115 L131.541493,76.7086842 L131.541493,76.7086842 Z M152.05305,71.3657261 C144.94329,71.7782883 138.20169,73.559891 132.083559,76.4496766 L134.679186,79.0453034 C140.847268,75.9150108 147.398312,73.9798535 153.954906,73.2638823 L152.05305,71.3657261 L152.05305,71.3657261 Z M179.807572,77.1341969 C172.433253,73.3878359 164.089506,71.2750734 155.251795,71.2750734 C154.959486,71.2750734 154.672728,71.2769235 154.384119,71.2806236 L156.173122,73.0696265 C164.337414,72.5164601 172.457304,73.8595999 179.807572,77.1341969 L179.807572,77.1341969 L179.807572,77.1341969 Z M209.517601,126.419656 C209.525002,126.132897 209.525002,125.842439 209.525002,125.55013 C209.525002,115.173173 206.607465,105.469636 201.554965,97.2239416 C206.024698,105.427084 207.895103,114.760611 207.258685,124.158889 L209.517601,126.419656 L209.517601,126.419656 Z M204.346699,148.718366 C207.242034,142.600235 209.021786,135.856785 209.432498,128.745175 L207.069979,126.377105 C206.344758,132.933699 204.4133,139.481043 201.281158,145.649125 L204.346699,148.718366 L204.346699,148.718366 Z M193.670032,163.894365 C197.904807,159.64849 201.440262,154.708843 204.08584,149.258582 L201.011049,146.178241 C198.31922,151.349144 194.781915,156.238839 190.412086,160.634568 L193.670032,163.894365 L193.670032,163.894365 Z M177.415451,175.114947 C182.991516,172.617374 188.060666,169.211422 192.443446,165.083951 L189.19475,161.831554 C184.689866,166.112581 179.692868,169.553683 174.433163,172.128959 L177.415451,175.114947 L177.415451,175.114947 Z M156.267475,179.823337 C163.577041,179.686432 170.527697,178.108336 176.860435,175.361005 L173.894797,172.389817 C167.549109,175.412806 160.84266,177.198109 154.154712,177.708725 L156.267475,179.823337 L156.267475,179.823337 Z M130.559114,173.905012 C137.580072,177.495967 145.476105,179.60318 153.851303,179.815936 L151.868045,177.832678 C144.506677,178.078735 137.226711,176.779997 130.559114,173.905012 L130.559114,173.905012 L130.559114,173.905012 Z M100.982288,126.950622 C101.159894,133.864276 102.625137,140.457871 105.152312,146.4983 C103.161653,140.74463 102.282877,134.632049 102.491933,128.456566 L100.982288,126.950622 L100.982288,126.950622 Z M147.167055,205.894309 C147.167055,206.94884 150.245547,207.803565 154.043709,207.803565 C157.843722,207.803565 160.920363,206.94884 160.920363,205.894309 C160.920363,205.071034 159.048107,204.369863 156.419179,204.101606 L156.419179,205.799956 C156.291526,206.132966 155.279546,206.391973 154.043709,206.391973 C152.806022,206.391973 151.794042,206.129266 151.679339,205.799956 L151.679339,204.101606 C149.046711,204.368013 147.167055,205.069184 147.167055,205.894309 L147.167055,205.894309 L147.167055,205.894309 Z M151.901346,227.162539 L151.901346,209.381662 C150.473103,209.268809 149.207666,209.052352 148.228987,208.752643 L148.228987,226.55572 C149.252067,226.870229 150.68771,227.058935 151.901346,227.162539 L151.901346,227.162539 L151.901346,227.162539 Z M114.915051,224.631663 C111.899461,226.204209 110.234412,227.924761 110.234412,229.656412 C110.234412,235.415633 128.810812,241.182253 154.043709,241.182253 C179.276606,241.182253 197.853006,235.415633 197.853006,229.656412 C197.853006,227.924761 196.184257,226.204209 193.170518,224.631663 C193.372174,225.073826 193.466526,225.52894 193.466526,225.989603 C193.466526,232.037432 175.822554,236.936378 154.043709,236.936378 C132.264864,236.936378 114.619042,232.037432 114.619042,225.989603 C114.619042,225.52894 114.715245,225.073826 114.915051,224.631663 L114.915051,224.631663 L114.915051,224.631663 Z M116.396945,167.77948 L112.828189,171.350086 C137.204511,193.981806 175.315639,193.44159 199.035191,169.725738 C222.758443,146.000636 223.294959,107.869157 200.644738,83.4983853 L197.107434,87.0338399 C206.487211,97.2183914 212.218682,110.816294 212.218682,125.762886 C212.218682,157.32482 186.649074,182.909228 155.105641,182.909228 C140.170148,182.909228 126.574096,177.174059 116.396945,167.77948 L116.396945,167.77948 L116.396945,167.77948 Z M108.219703,229.767415 L108.216002,229.636061 C108.216002,226.786977 111.577552,224.163599 117.25907,222.039737 C121.936009,218.683737 132.409169,216.128811 145.268899,215.312937 L145.268899,205.955361 C145.268899,203.857398 149.00601,203.154378 151.675639,202.92497 L151.660839,192.605365 C136.420087,191.824642 121.397643,185.863765 109.459239,174.720885 L106.76741,177.409015 C104.528843,179.656832 101.161744,176.289732 103.40586,174.045616 L113.035395,164.412381 C103.696319,154.235229 98,140.668778 98,125.764736 C98,94.2009521 123.565907,68.6146946 155.111191,68.6146946 C170.007832,68.6146946 183.577983,74.3202635 193.745885,83.6778405 L203.39762,74.0205547 C205.643587,71.7727381 209.005136,75.1379878 206.76472,77.3821042 L204.015539,80.1331356 C228.519514,106.368762 227.984848,147.51028 202.402291,173.098387 C189.677614,185.821214 173.101123,192.351908 156.421029,192.681217 L156.421029,202.92127 C159.088808,203.150678 162.816669,203.846298 162.816669,205.92576 L162.816669,215.314787 C175.676399,216.128811 186.149559,218.683737 190.832048,222.043437 C196.513566,224.165449 199.873266,226.788827 199.873266,229.636061 L199.869566,229.774816 L199.869566,238.501524 L199.873266,238.658778 C199.873266,245.688987 179.358008,251.385305 154.047409,251.385305 C128.73866,251.385305 108.219703,245.688987 108.219703,238.658778 L108.223403,238.523725 L108.223403,229.767415 L108.219703,229.767415 L108.219703,229.767415 Z" id="Shape" fill="#006D5B" sketch:type="MSShapeGroup"></path>
        </g>
    </g>
</svg>