<?xml version="1.0" encoding="UTF-8" standalone="no"?>
<svg width="320px" height="320px" viewBox="0 0 320 320" version="1.1" xmlns="http://www.w3.org/2000/svg" xmlns:xlink="http://www.w3.org/1999/xlink" xmlns:sketch="http://www.bohemiancoding.com/sketch/ns">
    <!-- Generator: Sketch 3.3.3 (12072) - http://www.bohemiancoding.com/sketch -->
    <title>icon--form</title>
    <desc>Created with Sketch.</desc>
    <defs></defs>
    <g id="Page-1" stroke="none" stroke-width="1" fill="none" fill-rule="evenodd" sketch:type="MSPage">
        <g id="icon--form" sketch:type="MSLayerGroup">
            <circle id="Oval-1" fill="#EFEFEF" sketch:type="MSShapeGroup" cx="160" cy="160" r="160"></circle>
            <g id="Page-1" transform="translate(74.000000, 86.000000)" sketch:type="MSShapeGroup">
                <g id="form">
                    <path d="M171.938472,35.021278 L0.55961162,35.021278 L0.55961162,0.494730678 L171.941402,0.494730678 L171.941402,35.021278 L171.938472,35.021278 L171.938472,35.021278 Z M12.2792267,23.7131482 L160.221787,23.7131482 L160.221787,11.8028605 L12.2792267,11.8028605 L12.2792267,23.7131482 L12.2792267,23.7131482 Z" id="Shape" fill="#006D5B"></path>
                    <path d="M171.938472,78.486902 L0.55961162,78.486902 L0.55961162,43.9603547 L171.941402,43.9603547 L171.941402,78.486902 L171.938472,78.486902 L171.938472,78.486902 Z M12.2792267,67.1787722 L160.221787,67.1787722 L160.221787,55.2684845 L12.2792267,55.2684845 L12.2792267,67.1787722 L12.2792267,67.1787722 Z" id="Shape" fill="#006D5B"></path>
                    <path d="M171.938472,121.952526 L0.55961162,121.952526 L0.55961162,87.4259789 L171.941402,87.4259789 L171.941402,121.952526 L171.938472,121.952526 L171.938472,121.952526 Z M12.2792267,110.644396 L160.221787,110.644396 L160.221787,98.7341086 L12.2792267,98.7341086 L12.2792267,110.644396 L12.2792267,110.644396 Z" id="Shape" fill="#006D5B"></path>
                    <rect id="Rectangle-path" fill="#006D5B" x="0.55961162" y="132.553898" width="83.1770377" height="23.6763968"></rect>
                    <path d="M132.630883,145.63175 L141.25066,165.576464 L133.685648,168.502442 L125.0981,148.642539 L109.543242,161.180429 L109.543242,101.73359 L109.616489,101.702493 L153.336513,143.689579 L132.630883,145.63175 L132.630883,145.63175 Z" id="Shape" fill="#FA8D3E"></path>
                </g>
            </g>
        </g>
    </g>
</svg>