<?xml version="1.0" encoding="UTF-8" standalone="no"?>
<svg width="320px" height="320px" viewBox="0 0 320 320" version="1.1" xmlns="http://www.w3.org/2000/svg" xmlns:xlink="http://www.w3.org/1999/xlink" xmlns:sketch="http://www.bohemiancoding.com/sketch/ns">
    <!-- Generator: Sketch 3.4.2 (15855) - http://www.bohemiancoding.com/sketch -->
    <title>icon--scotland</title>
    <desc>Created with Sketch.</desc>
    <defs>
        <rect id="path-1" x="9" y="34" width="296" height="246"></rect>
    </defs>
    <g id="Page-1" stroke="none" stroke-width="1" fill="none" fill-rule="evenodd" sketch:type="MSPage">
        <g id="icon--scotland" sketch:type="MSLayerGroup">
            <circle id="Oval-1" fill="#EFEFEF" sketch:type="MSShapeGroup" cx="160" cy="160" r="160"></circle>
            <mask id="mask-2" sketch:name="Mask" fill="white">
                <use xlink:href="#path-1"></use>
            </mask>
            <use id="Mask" sketch:type="MSShapeGroup" xlink:href="#path-1"></use>
            <g id="scotland" mask="url(#mask-2)" fill="#006D5B" sketch:type="MSShapeGroup">
                <g transform="translate(65.000000, -30.000000)" id="Shape">
                    <path d="M103.050725,290.086851 L124.376812,274.687085 L127.732116,274.687085 L127.732116,272.513298 L132.66713,271.527511 L132.66713,269.15783 C132.66713,269.15783 129.703594,263.628574 132.66713,260.863947 C135.630667,258.099319 138.985971,255.729638 138.985971,255.729638 C138.985971,255.729638 142.341275,252.765957 136.420522,248.620596 C130.499768,244.475234 124.376812,238.743766 124.376812,238.743766 C124.376812,238.743766 121.217391,238.351979 120.032609,240.12766 C118.847826,241.90334 115.688406,243.09134 115.688406,243.09134 L111.73913,243.09134 L109.369565,240.326713 L103.050725,239.536819 L99.6954203,238.709011 L96.3401159,235.982298 L94.5645217,232.62683 C94.5645217,232.62683 89.4304638,228.282415 98.1188696,232.62683 C106.807275,236.971245 103.647855,235.982298 103.647855,235.982298 L108.386986,236.576298 L112.930232,233.22083 L116.500377,229.865362 L119.444957,229.865362 L120.629739,232.235043 L123.394232,232.235043 C123.394232,232.235043 132.872493,229.865362 122.209449,224.336106 C122.209449,224.336106 120.433855,222.756319 122.80342,221.966426 C125.172986,221.176532 124.38313,220.980638 124.38313,220.980638 L121.618638,218.806851 L113.720087,222.560426 L112.140377,222.756319 L108.785072,220.582532 L116.503536,216.828957 L127.536232,216.828957 L132.275362,213.473489 C132.275362,213.473489 135.630667,208.339181 133.659188,208.339181 C131.68771,208.339181 136.622725,204.983713 136.622725,204.983713 L148.470551,190.569734 L150.644232,188.00416 L150.644232,184.250585 L159.727565,173.387968 C159.727565,173.387968 163.281913,162.329457 152.61887,159.56483 L149.854377,160.550617 L146.29687,159.558511 L141.557739,159.558511 L135.83287,156.992936 L132.673449,156.992936 L130.499768,156.992936 L127.536232,156.992936 C127.536232,156.992936 122.601217,154.427362 122.992986,153.239362 C123.384754,152.051362 119.438638,153.239362 119.438638,153.239362 C119.438638,153.239362 117.069072,155.015043 114.699507,155.015043 C112.329942,155.015043 111.935014,153.830202 111.344203,153.830202 C110.753391,153.830202 108.778754,156.003989 108.778754,156.003989 C108.778754,156.003989 107.593971,157.77967 103.644696,156.199883 C99.6954203,154.620096 101.869101,156.59483 101.869101,156.59483 C101.869101,156.59483 98.7096812,165.28366 89.8253913,159.558511 C89.8253913,159.558511 89.2314203,158.174617 92.7889275,157.583777 C96.3464348,156.992936 104.636754,153.767011 102.861159,152.711713 C101.085565,151.656415 98.7065217,151.659574 98.7065217,151.659574 C98.7065217,151.659574 87.0545797,159.362617 95.5471014,149.485787 L98.3115942,149.485787 L102.854841,147.906 L105.028522,150.670628 L111.347362,144.351479 L109.571768,144.351479 L107.992058,144.351479 L102.858,144.351479 C102.858,144.351479 97.9229855,142.575798 95.9451884,138.822223 C93.9673913,135.068649 103.249768,141.586851 103.249768,141.586851 L106.605072,141.586851 L105.025362,137.65634 L109.960377,136.648436 L135.630667,117.495096 L135.434783,115.324468 L133.855072,113.744681 L138.398319,108.411319 L136.224638,106.237532 L131.681391,106.237532 C131.681391,106.237532 127.337188,109.397106 124.376812,106.237532 L121.811362,106.237532 L121.021507,107.425532 L114.898551,106.240691 L112.923913,105.055851 L111.935014,107.425532 L109.761333,107.425532 L108.57971,105.055851 L106.014261,106.041638 C106.014261,106.041638 102.26087,109.59616 101.471014,110.187 C100.681159,110.77784 98.9055652,109.397106 100.286232,107.422372 C101.666899,105.447638 100.286232,104.066904 100.286232,104.066904 L95.7429855,107.621426 L93.7683478,108.607213 L93.3734203,106.433426 L95.7429855,104.063745 L93.9673913,104.063745 L92.5835652,104.063745 L92.3876812,99.918383 L89.7843188,98.3385957 L87.0577391,101.893117 C87.0577391,101.893117 84.2932464,104.657745 87.0577391,107.618266 C89.8222319,110.578787 84.6881739,109.792053 82.5144928,109.792053 C80.3408116,109.792053 83.1084638,115.915309 84.6881739,115.716255 C86.2678841,115.517202 83.1084638,118.87583 83.1084638,118.87583 L75.209913,115.122255 L74.2241739,117.491936 L77.7753623,120.06383 L75.209913,124.607298 C75.209913,124.607298 66.7173913,120.262883 74.2241739,127.172872 C81.7309565,134.082862 79.1591884,135.071809 79.1591884,135.071809 L79.1591884,139.21717 L74.2241739,134.082862 L70.0790145,134.082862 L67.5072464,134.082862 L65.9275362,130.133394 L64.3478261,131.12234 L65.7316522,136.057596 C65.7316522,136.057596 64.745913,139.021277 60.9925217,132.702128 C57.2391304,126.382979 60.2026667,139.81117 61.9782609,141.195064 C63.7538551,142.578957 60.0036232,141.390957 60.0036232,141.390957 L59.1790145,141.984957 L59.1790145,145.144532 L61.3842899,147.710106 L65.1376812,149.485787 L64.7427536,150.471574 L58.228029,149.877574 L56.0543478,146.920213 L54.6705217,146.920213 L53.0908116,151.659574 L54.8695652,155.804936 L56.2533913,157.77967 L58.6229565,156.989777 L59.8077391,155.804936 C59.8077391,155.804936 68.692029,157.384723 63.362087,159.160404 C58.0321449,160.936085 57.2391304,159.356298 57.2391304,159.356298 L56.8442029,161.138298 C56.8442029,161.138298 64.1487826,162.522191 63.557971,163.312085 C62.9671594,164.101979 62.964,167.457447 62.964,167.457447 L58.4207536,164.891872 L55.4572174,166.866606 L62.1709855,171.410074 L59.0115652,173.779755 L53.0876522,169.830287 L53.0876522,173.583862 L59.6023768,177.138383 L56.8378841,178.914064 L50.9202899,175.356383 C50.9202899,175.356383 45.9852754,178.711851 49.3405797,179.305851 C52.6958841,179.899851 52.8949275,181.479638 52.8949275,181.479638 L45.9821159,186.813 L39.2683478,185.037319 L35.714,186.617106 L42.8226957,188.196894 L48.7466087,188.790894 L54.0797101,192.345415 L52.3041159,193.135309 L48.1589565,191.359628 L44.6046087,191.754574 L41.2493043,191.359628 L43.8147536,197.28383 L49.5396232,199.258564 L54.4746377,197.084777 L58.8188406,194.222202 L61.9782609,189.77984 C61.9782609,189.77984 59.2137681,185.435426 60.2026667,185.435426 C61.1915652,185.435426 66.5215072,185.830372 66.5215072,185.830372 L67.5072464,189.969415 L63.362087,191.944149 L69.6809275,194.215883 L66.7173913,195.49867 L63.557971,195.49867 L57.0432464,199.448138 L60.2026667,201.223819 L59.2169275,202.607713 L55.2676522,202.607713 C55.2676522,202.607713 49.9345507,210.506649 48.3548406,210.506649 C46.7751304,210.506649 52.1082319,212.87633 52.1082319,212.87633 L51.9123478,214.456117 L47.7671884,222.550947 L44.6077681,225.514628 L43.622029,227.688415 L41.637913,229.069149 L43.6125507,231.634723 L40.2572464,232.620511 L40.4531304,235.975979 L46.576087,234.001245 L48.5507246,231.833777 C48.5507246,231.833777 49.3405797,223.93484 51.7101449,223.738947 C54.0797101,223.543053 62.3731884,216.035904 62.3731884,216.035904 L66.3224638,216.430851 L64.1487826,218.405585 L60.0036232,220.579372 L54.6705217,225.713681 L51.7101449,229.069149 L51.906029,234.203457 L53.8838261,233.808511 L57.2391304,227.094415 L58.6229565,227.489362 L58.4270725,234.993351 L60.7966377,234.993351 L61.9814203,232.427777 L64.5468696,222.554106 L69.879971,220.184426 L69.879971,221.960106 L67.5072464,224.724734 L65.9275362,226.108628 L73.6302029,235.391457 L70.6666667,235.783245 L66.7173913,232.819564 L64.5437101,232.819564 L62.964,237.163979 L62.964,243.088181 L60.5944348,243.287234 L60.7903188,245.656915 L65.7253333,250.00133 L66.3193043,257.306266 L60.0004638,263.230468 C60.0004638,263.230468 51.7069855,274.683926 50.3263188,274.683926 C48.9456522,274.683926 50.7244058,278.042553 50.7244058,278.042553 L52.5,281.597074 C52.5,281.597074 49.1446957,283.966755 47.7608696,278.633394 C46.3770435,273.300032 44.0074783,280.409074 44.0074783,281.597074 C44.0074783,282.785074 48.7466087,288.706117 48.7466087,288.706117 L54.0797101,285.350649 L62.7681159,296.804106 L66.9132754,293.050532 L64.7395942,287.916223 L66.5151884,284.952543 L68.0948986,289.097904 L72.0441739,291.862532 L74.2178551,293.246426 L75.6016812,291.072638 L76.9855072,292.064745 L76.9855072,294.434426 L78.9601449,296.804106 L81.7246377,290.879904 C81.7246377,290.879904 83.1084638,290.484957 86.6596522,292.655585 C90.2108406,294.826213 88.6342899,288.902011 88.6342899,288.902011 L88.6342899,284.756649 C88.6374493,284.756649 99.2941739,292.800926 103.050725,290.086851 L103.050725,290.086851 Z"></path>
                    <path d="M50.853942,241.710606 C50.853942,241.710606 47.6281739,241.3125 47.5618261,247.764351 C47.4954783,254.216202 48.2853333,255.006096 49.2078841,255.795989 C50.1304348,256.585883 55.0654493,254.544798 54.2092464,252.832309 L54.3071884,251.976064 L51.9028696,251.976064 L51.8365217,248.835447 L53.2203478,248.551085 C53.2203478,248.551085 53.6816232,243.549479 52.4968406,243.549479 L52.4304928,242.626883 L51.906029,241.707447 L50.853942,241.710606 L50.853942,241.710606 Z"></path>
                    <path d="M49.2078841,234.996511 L48.0894493,234.996511 L46.1148116,236.247702 L44.0738261,237.89384 L43.0217391,237.89384 L42.036,239.407277 L40.6521739,241.050255 L40.6521739,242.958638 L39.2051594,242.958638 L38.2194203,244.80067 L37.7581449,246.250915 L37.7581449,248.292 L35.7171594,251.385223 L34.0711014,252.042415 L33.8088696,253.688553 L32.1628116,253.688553 C32.1628116,253.688553 31.3066087,258.036128 33.2148986,258.298372 L33.2812464,258.955564 L38.1530725,259.28416 L39.0092754,257.57167 L40.194058,257.505319 L40.0613623,255.969766 L38.8765797,255.135638 L40.1277101,252.437362 L41.5115362,250.263574 L41.5778841,248.551085 L42.5636232,248.28884 C42.5636232,248.28884 43.0912464,244.930213 43.7484058,244.601617 C44.4055652,244.273021 44.9331884,243.02183 44.9331884,243.02183 C44.9331884,243.02183 44.6046087,240.917553 45.5271594,240.917553 C46.4497101,240.917553 47.1068696,239.862255 47.1068696,239.862255 L48.2916522,238.876468 L49.6091304,237.757979 L49.6091304,234.993351 L49.2078841,234.993351 L49.2078841,234.996511 Z"></path>
                    <path d="M43.5493623,217.088043 L42.6931594,217.088043 L42.6931594,218.14334 C42.6931594,218.14334 40.8575362,217.223904 40.788029,218.14334 C40.7185217,219.062777 38.9429275,219.656777 38.9429275,219.656777 L37.2968696,221.107021 L35.7171594,222.092809 L35.7171594,223.93484 C35.7171594,223.93484 34.8609565,226.633117 33.0190145,226.500415 C31.1770725,226.367713 31.5056522,227.223957 31.5056522,227.223957 L30.9116812,229.397745 L31.3066087,231.043883 L32.624087,232.490968 L33.7425217,231.767426 L33.6761739,230.317181 L35.4517681,230.449883 L35.4517681,228.607851 C35.4517681,228.607851 37.8213333,226.370872 38.0835652,226.434064 C38.3457971,226.497255 38.6775362,224.45933 38.6775362,224.45933 L40.4531304,223.141787 C40.4531304,223.141787 40.7817101,221.037511 41.1766377,221.100702 C41.5715652,221.163894 42.69,220.705755 42.69,220.705755 L43.9411304,219.849511 L43.5493623,217.088043 L43.5493623,217.088043 Z"></path>
                    <path d="M26.896058,219.656777 L27.0951014,219.656777 L29.7932464,219.656777 C29.7932464,219.656777 29.0697391,218.471936 29.7932464,218.405585 C30.5167536,218.339234 31.970087,218.010638 31.970087,218.010638 L31.2402609,214.983766 C31.2402609,214.983766 30.978029,216.36766 30.2545217,216.168606 C29.5310145,215.969553 28.7411594,216.035904 28.7411594,216.035904 L28.6748116,217.318691 L26.8992174,217.877936"></path>
                    <path d="M29.4330725,225.514628 L29.4330725,226.898521 L28.5421159,227.163926 L28.5421159,232.494128 L30.0554783,234.535213 C30.0554783,234.535213 28.4094203,240.655309 22.6845507,241.710606 L19.8537101,241.382011 L19.8537101,239.868574 L22.0273913,239.802223 L23.8029855,236.048649 L23.7366377,234.33616 L24.9530145,234.269809 C24.9530145,234.269809 25.1836522,229.201851 21.3007246,231.900128 C17.4177971,234.598404 18.0086087,235.388298 18.0086087,235.388298 L16.4288986,234.731106 L17.8127246,232.490968 L19.1965507,230.253989 L19.7241739,227.754766 L23.8061449,227.42617 C23.8029855,227.423011 26.1125217,226.105468 29.4330725,225.514628 L29.4330725,225.514628 Z"></path>
                    <path d="M47.7103188,203.100606 L45.1448696,206.901574 L42.9237971,207.245968 L42.9237971,206.260181 C42.9237971,206.260181 38.3805507,205.274394 37.9382319,206.604574 C37.495913,207.934755 28.5105217,208.778362 28.2135362,206.655128 C27.9165507,204.531894 28.2135362,204.1875 28.2135362,204.1875 L30.3366667,204.1875 L31.9732464,205.716734 C31.9732464,205.716734 41.3946377,205.814681 37.4453623,203.542947 L33.3475942,203.5935 L33.496087,202.310713 C33.496087,202.310713 42.5288696,200.926819 36.112087,198.114798 C29.6953043,195.302777 32.9526667,190.266415 35.7171594,190.313809 C38.4816522,190.361202 38.4311014,190.016809 38.4311014,190.016809 L38.826029,192.734043 L39.1704058,195.20167 L40.7501159,195.843064 C40.7501159,195.843064 40.4531304,199.843085 43.4166667,199.890479 C46.3802029,199.937872 45.6882899,200.680372 45.6882899,200.680372 L46.1337681,201.96316 L47.7103188,203.100606 L47.7103188,203.100606 Z"></path>
                    <path d="M14.289971,193.918883 C11.7245217,192.882543 14.289971,191.498649 14.289971,191.498649 L14.289971,190.016809 L14.9313333,190.016809 L15.0292754,190.411755 L15.6232464,190.658202 L16.2172174,191.694543 L20.9563478,191.843043 L21.3007246,193.473383 C21.3007246,193.473383 19.0796522,193.71983 17.6484348,193.71983 C17.6484348,193.71983 15.6737971,194.60767 16.0687246,194.658223 C16.4636522,194.708777 15.1303768,195.002617 15.1303768,195.002617 L14.9818841,194.16217 L14.289971,193.918883 L14.289971,193.918883 Z"></path>
                    <path d="M23.325913,188.241128 C23.325913,188.241128 24.0652174,189.722968 24.2642609,190.016809 C24.4633043,190.310649 24.2642609,191.002596 24.2642609,191.002596 L25.7934203,191.002596 L26.2388986,190.016809 C26.2388986,190.016809 27.9165507,188.386468 29.3003768,188.241128 C30.6842029,188.095787 29.6447536,186.465447 29.6447536,186.465447 L26.6717391,186.219 L26.6717391,187.650287 C26.6717391,187.650287 23.325913,188.193734 23.325913,188.045234 C23.325913,187.896734 23.325913,188.241128 23.325913,188.241128 L23.325913,188.241128 Z"></path>
                    <path d="M40.6016232,176.63917 L39.1704058,176.63917 L38.923971,178.218957 L37.4927536,178.515957 L37.4927536,179.255298 L40.6016232,178.711851 L41.7864058,177.947234 L41.7864058,177.132064 L40.6016232,176.63917 Z"></path>
                    <path d="M35.7171594,175.504883 L38.826029,173.283702 L38.826029,170.272628 C38.826029,170.272628 37.4927536,169.28684 37.4927536,168.743394 C37.4927536,168.199947 35.7171594,168.399 35.7171594,168.399 C35.7171594,168.399 34.7788116,170.471681 34.4344348,170.522234 C34.090058,170.572787 34.090058,171.934564 34.090058,171.934564 L35.0284058,174.569649 L35.7203188,175.261596 L35.7203188,175.504883 L35.7171594,175.504883 Z"></path>
                    <path d="M29.8911884,166.914 L30.3335072,168.939287 L31.2244638,168.939287 L32.1122609,168.939287 L32.8231304,168.361085 L33.2464928,166.914 L31.2718551,166.47166 L29.8911884,166.914 Z"></path>
                    <path d="M45.9852754,173.448 L49.9345507,169.498532 L56.1870435,163.836574 L54.0133623,161.533245 C54.0133623,161.533245 51.2488696,164.16833 50.7875942,163.113032 C50.3263188,162.057734 48.8129565,160.218862 49.1415362,159.097213 C49.4701159,157.975564 48.7466087,157.912372 48.7466087,157.912372 L46.6392754,159.425809 C46.6392754,159.425809 43.5462029,153.501606 47.2332464,150.408383 L46.771971,148.234596 L48.8793043,146.522106 L48.3516812,142.044989 C48.3516812,142.044989 45.1954203,137.962819 45.426058,137.305628 C45.6566957,136.648436 44.4024058,136.648436 44.4024058,136.648436 L42.0328406,140.003904 C42.0328406,140.003904 43.0849275,144.086074 42.8890435,144.348319 C42.6931594,144.610564 42.6931594,149.02133 42.6931594,149.02133 L40.7185217,148.888628 L40.4562899,147.242489 C40.4562899,147.242489 37.5591014,144.215617 37.1009855,143.160319 C36.6428696,142.105021 35.7171594,142.765372 35.7171594,142.765372 L35.7171594,146.781191 L35.1895362,148.556872 C35.1895362,148.556872 33.4107826,147.305681 33.2464928,145.991298 C33.0822029,144.676915 31.5688406,145.135053 31.5688406,145.135053 L31.1075652,149.808064 L32.3586957,150.860202 L32.1628116,152.045043 L34.0868986,152.50634 L34.0868986,150.743298 L37.2968696,150.610596 C37.2968696,150.610596 43.9442899,156.537957 41.1134493,157.195149 C38.2826087,157.85234 39.1388116,157.656447 39.1388116,157.656447 L39.2051594,156.209362 C39.2051594,156.209362 34.9273043,154.234628 37.0978261,158.383149 C39.2683478,162.53167 39.1356522,160.225181 39.1356522,160.225181 L43.2808116,163.318404 L45.1891014,164.768649 L46.3738841,163.188862 L48.2821739,163.65016 L48.6107536,165.558543 L50.9803188,165.492191 L50.5190435,166.743383 L48.3453623,167.204681 L46.3707246,169.312117 L45.2522899,170.102011 L44.6583188,172.601234 L45.9852754,173.448 L45.9852754,173.448 Z"></path>
                    <path d="M0.107333333,172.591755 L0.107333333,173.448 L1.55434783,173.448 L2.21150725,172.591755 L1.15942029,171.931404 L0.107333333,172.591755 Z"></path>
                    <path d="M6.6884058,163.375277 C6.6884058,163.375277 5.89855072,166.010362 4.58107246,165.482713 C3.2635942,164.955064 4.58107246,166.4685 4.58107246,166.4685 L6.6884058,167.703894 L9.45289855,166.4685 L8.79573913,163.902926 L6.6884058,163.375277 L6.6884058,163.375277 Z"></path>
                    <path d="M10.7703768,159.296266 L10.7703768,152.187223 C10.7703768,152.187223 12.7671304,151.264628 13.1494203,151.659574 C13.5317101,152.054521 13.9297971,147.710106 13.9297971,147.710106 L18.4035362,151.659574 L18.4035362,152.711713 L16.4288986,152.711713 L14.5869565,155.052957 L15.7717391,155.052957 L15.6390435,156.793883 C15.6390435,156.793883 12.6312754,156.531638 13.1462609,158.768617 C13.6612464,161.005596 11.2948406,159.296266 11.2948406,159.296266"></path>
                    <path d="M14.5869565,142.048149 L14.5869565,142.970745 L16.033971,144.155585 L17.4841449,144.155585 L18.4035362,142.048149 L16.4952464,140.996011 L14.5869565,141.52366 L14.5869565,142.048149 Z"></path>
                    <path d="M8.26811594,136.654755 L9.45289855,136.654755 L9.45289855,137.703734 L8.26811594,138.364085 L6.72631884,138.364085 L8.26811594,136.654755 Z"></path>
                    <path d="M14.5869565,131.912234 L12.7450145,134.016511 L16.4952464,136.654755 L18.4035362,138.364085 L18.4035362,139.416223 L19.1933913,139.416223 L19.7210145,138.364085 L21.4334203,136.654755 L22.4855072,132.439883 L22.4855072,130.594691 L19.5883188,133.229777 L14.5869565,131.912234 Z"></path>
                    <path d="M28.9370435,129.804798 L27.091942,127.962766 L31.5688406,124.540947 L33.2464928,124.013298 C33.2464928,124.013298 34.4628696,126.645223 35.714,126.910628 C36.9651304,127.176032 33.2464928,127.567819 33.2464928,127.567819 L31.1075652,129.280309 L28.9370435,129.804798 L28.9370435,129.804798 Z"></path>
                    <path d="M29.8911884,118.484043 L37.1009855,124.670489 L37.1009855,122.958 L37.1009855,118.484043 L38.826029,118.484043 L38.826029,116.247064 L43.6473043,115.719415 C43.6473043,115.719415 57.5013623,104.39866 57.5013623,101.239085 C57.5013623,98.0795106 55.5267246,96.8946702 55.5267246,96.8946702 L45.9157681,102.291223 L41.1766377,102.553468 L40.3867826,107.950021 L38.0172174,109.924755 L37.2273623,111.37184 L35.714,110.77784 L35.714,107.024266 L33.2464928,107.425532 L30.5167536,109.795213 L29.8911884,112.164894 L32.0964638,112.692543 L29.8911884,115.719415 L29.8911884,118.484043 L29.8911884,118.484043 Z"></path>
                    <path d="M46.3138551,117.826851 L43.6473043,117.826851 L39.600087,120.06383 L40.2572464,122.695755 L42.9553913,122.695755 L43.6978551,122.695755 L46.8383188,120.259723 L46.3138551,117.826851 Z"></path>
                    <path d="M146.363217,95.8362128 L135.700174,94.2564255 L133.460145,86.0952447 L136.095101,81.8835319 C136.095101,81.8835319 144.518116,75.4316809 144.255884,81.8835319 C143.993652,88.335383 145.443826,91.8899043 148.732783,91.8899043 C152.021739,91.8899043 147.731246,96.0384255 146.363217,95.8362128 L146.363217,95.8362128 Z"></path>
                    <path d="M190.860493,49.2293298 L195.470087,37.1186809 L194.942464,31.4567234 L191.650348,33.4314574 L186.648986,29.3524468 L186.648986,23.0332979 C186.648986,23.0332979 195.072,29.8800957 194.019913,15.9242553 L197.706957,11.7125426 L198.759043,18.1643936 L211.52942,0.129542553 L213.371362,0.129542553 L202.313391,21.851617 L200.866377,28.6984149 L200.010174,35.8074574 L193.097362,49.2356489 C193.100522,49.2293298 190.184377,51.0050106 190.860493,49.2293298 L190.860493,49.2293298 Z"></path>
                    <path d="M135.434783,95.8425319 L131.618203,91.7572021 L129.643565,94.5218298 C129.643565,94.5218298 132.148986,99.5265957 132.540754,98.9989468 C132.932522,98.4712979 135.434783,95.8425319 135.434783,95.8425319 L135.434783,95.8425319 Z"></path>
                    <path d="M142.410783,70.3005319 L147.017217,76.3574362 L150.571565,73.3305638 L147.677536,70.3036915 C147.677536,70.3005319 141.472435,69.0682979 142.410783,70.3005319 L142.410783,70.3005319 Z"></path>
                    <path d="M175.322464,32.1233936 L176.37771,35.6779149 L178.352348,35.6779149 L176.835826,31.0680957 L175.322464,32.1233936 Z"></path>
                    <path d="M152.549362,83.7287234 L152.549362,86.8882979 L157.288493,85.9657021 L154.918928,84.1236702 L152.549362,83.7287234 Z"></path>
                </g>
            </g>
            <circle id="Oval-2" fill="#FA8D3E" sketch:type="MSShapeGroup" mask="url(#mask-2)" cx="164.5" cy="214.5" r="7.5"></circle>
        </g>
    </g>
</svg>