<?xml version="1.0" encoding="UTF-8" standalone="no"?>
<svg width="320px" height="320px" viewBox="0 0 320 320" version="1.1" xmlns="http://www.w3.org/2000/svg" xmlns:xlink="http://www.w3.org/1999/xlink" xmlns:sketch="http://www.bohemiancoding.com/sketch/ns">
    <!-- Generator: Sketch 3.3.3 (12072) - http://www.bohemiancoding.com/sketch -->
    <title>icon--london</title>
    <desc>Created with Sketch.</desc>
    <defs></defs>
    <g id="Page-1" stroke="none" stroke-width="1" fill="none" fill-rule="evenodd" sketch:type="MSPage">
        <g id="icon--london" sketch:type="MSLayerGroup">
            <circle id="Oval-1" fill="#EFEFEF" sketch:type="MSShapeGroup" cx="160" cy="160" r="160"></circle>
            <g id="Page-1" transform="translate(59.000000, 76.000000)" sketch:type="MSShapeGroup">
                <g id="london">
                    <path d="M185.153061,119.297386 C188.076531,121.245098 190.02551,122.218954 190.02551,122.218954 L191,120.75817 C191,120.75817 190.756378,120.514706 190.02551,120.271242 L187.832908,116.375817 L189.781888,115.158497 L190.02551,115.158497 L190.269133,114.915033 L190.512755,114.915033 L191,113.697712 C190.756378,113.697712 169.07398,103.228758 158.110969,91.7859477 C158.110969,91.2990196 157.867347,91.0555556 157.867347,91.0555556 L155.431122,88.620915 L155.431122,81.3169935 L156.405612,81.3169935 L156.405612,80.8300654 L155.431122,80.8300654 L155.431122,75.7173203 L156.405612,75.7173203 L156.405612,75.2303922 L155.431122,75.2303922 L153.969388,69.874183 L153.969388,69.630719 L153.969388,63.3006536 L152.994898,63.3006536 L152.994898,69.630719 L152.994898,69.874183 L149.096939,69.874183 L147.878827,65.9787582 L146.904337,63.0571895 L146.904337,52.5882353 L145.929847,52.5882353 L145.929847,62.8137255 L144.955357,65.7352941 L143.737245,69.630719 L140.082908,69.630719 L140.082908,63.5441176 L139.352041,63.5441176 L139.352041,69.630719 L138.133929,74.9869281 L137.159439,74.9869281 L137.159439,75.4738562 L138.133929,75.4738562 L138.133929,80.5866013 L137.159439,80.5866013 L137.159439,81.0735294 L138.133929,81.0735294 L138.133929,81.8039216 L99.3979592,81.8039216 L99.3979592,80.5866013 L98.4234694,80.5866013 L98.4234694,81.8039216 L96.2308673,81.8039216 L96.2308673,79.125817 L95.5,79.125817 L95.5,81.8039216 L93.5510204,81.8039216 L93.5510204,80.5866013 L92.5765306,80.5866013 L92.5765306,81.8039216 L52.8660714,81.8039216 L52.8660714,81.0735294 L53.8405612,81.0735294 L53.8405612,80.5866013 L52.8660714,80.5866013 L52.8660714,75.4738562 L53.8405612,75.4738562 L53.8405612,74.9869281 L52.8660714,74.9869281 L51.6479592,69.874183 L51.6479592,63.7875817 L50.6734694,63.7875817 L50.6734694,69.874183 L47.0191327,69.874183 L45.8010204,65.9787582 L44.8265306,63.0571895 L44.8265306,52.5882353 L43.8520408,52.5882353 L43.8520408,62.8137255 L42.877551,65.7352941 L41.9030612,69.874183 L38.005102,69.874183 L38.005102,69.630719 L38.005102,63.3006536 L37.0306122,63.3006536 L37.0306122,69.630719 L37.0306122,69.874183 L35.8125,75.2303922 L34.5943878,75.2303922 L34.5943878,75.7173203 L35.5688776,75.7173203 L35.5688776,80.8300654 L34.5943878,80.8300654 L34.5943878,81.3169935 L35.5688776,81.3169935 L35.5688776,88.620915 L33.1326531,91.0555556 C33.1326531,91.0555556 32.8890306,91.2990196 32.8890306,91.7859477 C22.1696429,103.228758 0.243622449,113.454248 0,113.697712 L0.487244898,114.915033 L0.730867347,114.915033 L0.974489796,115.158497 L1.21811224,115.158497 L3.16709184,116.375817 L0.974489796,120.271242 L0,120.75817 L0.974489796,122.218954 C0.974489796,122.218954 2.92346939,121.001634 5.84693878,119.297386 L5.84693878,128.305556 L0.487244898,128.305556 L0.487244898,129.279412 L30.4528061,129.279412 L30.4528061,129.76634 L0.487244898,129.76634 L0.487244898,130.496732 L30.4528061,130.496732 L30.4528061,148.756536 L58.2257653,148.756536 L58.2257653,134.879085 C59.4438776,134.392157 60.9056122,133.905229 62.3673469,133.418301 L62.3673469,133.418301 C70.1632653,131.227124 79.9081633,130.496732 79.9081633,130.496732 L79.9081633,130.253268 L110.360969,130.253268 L110.360969,130.496732 C110.360969,130.496732 120.105867,131.227124 127.901786,133.418301 L127.901786,133.418301 C129.36352,133.905229 131.068878,134.392157 132.28699,134.879085 L132.28699,148.513072 L160.059949,148.513072 L160.059949,130.496732 L190.512755,130.496732 L190.512755,129.522876 L160.547194,129.522876 L160.547194,129.035948 L190.512755,129.035948 L190.512755,128.062092 L185.153061,128.062092 L185.153061,119.297386 L185.153061,119.297386 Z M189.294643,119.784314 C188.320153,119.297386 187.345663,118.566993 185.883929,117.593137 L187.589286,116.619281 L189.294643,119.784314 L189.294643,119.784314 Z M189.294643,114.915033 L187.589286,115.888889 L185.883929,113.210784 C187.589286,113.941176 188.563776,114.671569 189.294643,114.915033 L189.294643,114.915033 L189.294643,114.915033 Z M185.153061,112.723856 C185.153061,112.96732 185.153061,112.96732 185.153061,112.723856 L187.102041,116.132353 L185.153061,117.106209 C185.153061,117.106209 184.909439,117.106209 184.909439,116.862745 L185.153061,112.723856 L185.153061,112.723856 Z M28.5038265,98.3594771 L29.2346939,97.629085 C28.9910714,98.1160131 28.747449,98.3594771 28.5038265,98.3594771 L28.5038265,98.3594771 L28.5038265,98.3594771 Z M25.3367347,100.794118 L24.3622449,102.011438 L23.3877551,102.254902 C23.875,101.767974 24.6058673,101.281046 25.3367347,100.794118 L25.3367347,100.794118 L25.3367347,100.794118 Z M24.8494898,102.254902 L24.3622449,102.74183 L24.8494898,102.254902 L24.8494898,102.254902 Z M20.9515306,103.95915 C21.4387755,103.715686 21.682398,103.472222 22.1696429,103.228758 L23.875,102.74183 L22.1696429,104.933007 C21.9260204,105.176471 21.4387755,105.663399 21.1951531,105.906863 L21.1951531,103.95915 L20.9515306,103.95915 L20.9515306,103.95915 Z M18.7589286,105.419935 L17.2971939,107.367647 L15.3482143,107.611111 C16.5663265,106.880719 17.5408163,106.150327 18.7589286,105.419935 L18.7589286,105.419935 L18.7589286,105.419935 Z M17.5408163,107.611111 L19.002551,107.367647 L15.3482143,110.289216 L17.5408163,107.611111 L17.5408163,107.611111 Z M13.8864796,108.341503 C14.130102,108.341503 14.130102,108.098039 14.3737245,108.098039 L17.0535714,107.611111 L14.130102,111.263072 L13.8864796,111.506536 L13.8864796,108.341503 L13.8864796,108.341503 Z M12.4247449,109.315359 L10.2321429,112.236928 L7.79591837,111.993464 C9.01403061,111.019608 10.7193878,110.289216 12.4247449,109.315359 L12.4247449,109.315359 L12.4247449,109.315359 Z M10.2321429,112.723856 L11.9375,112.96732 C10.4757653,113.941176 9.25765306,114.915033 8.03954082,115.645425 L10.2321429,112.723856 L10.2321429,112.723856 Z M6.82142857,112.480392 C6.82142857,112.236928 6.82142857,112.236928 6.82142857,112.480392 L9.74489796,112.723856 L6.82142857,116.619281 L6.82142857,112.480392 L6.82142857,112.480392 Z M1.70535714,114.915033 C2.43622449,114.671569 3.65433673,113.941176 5.11607143,113.210784 L3.41071429,115.888889 L1.70535714,114.915033 L1.70535714,114.915033 Z M1.70535714,119.784314 L3.41071429,116.619281 L5.35969388,117.593137 C3.89795918,118.323529 2.67984694,119.053922 1.70535714,119.784314 L1.70535714,119.784314 L1.70535714,119.784314 Z M5.84693878,117.106209 L5.84693878,117.106209 L3.89795918,116.132353 L5.84693878,112.723856 L5.84693878,117.106209 L5.84693878,117.106209 Z M12.9119898,128.305556 L6.82142857,128.305556 L6.82142857,118.810458 C8.52678571,117.593137 10.7193878,116.132353 12.9119898,114.671569 L12.9119898,128.305556 L12.9119898,128.305556 Z M12.9119898,112.236928 C12.6683673,112.236928 12.6683673,112.480392 12.4247449,112.480392 L10.4757653,112.236928 L12.6683673,109.315359 L12.6683673,112.236928 L12.9119898,112.236928 L12.9119898,112.236928 Z M20.2206633,128.305556 L13.8864796,128.305556 L13.8864796,113.697712 C15.8354592,112.236928 18.0280612,110.53268 20.2206633,108.828431 L20.2206633,128.305556 L20.2206633,128.305556 Z M20.2206633,106.637255 C19.9770408,106.637255 19.9770408,106.637255 20.2206633,106.637255 L18.0280612,107.124183 L19.9770408,104.689542 L20.2206633,104.689542 L20.2206633,106.637255 L20.2206633,106.637255 L20.2206633,106.637255 Z M27.5293367,128.305556 L20.9515306,128.305556 L20.9515306,108.098039 C23.1441327,106.150327 25.3367347,104.202614 27.5293367,102.254902 L27.5293367,128.305556 L27.5293367,128.305556 Z M27.5293367,99.5767974 L25.5803571,101.52451 L25.3367347,101.52451 L27.0420918,99.5767974 C27.2857143,99.3333333 27.5293367,99.3333333 27.7729592,99.0898693 L27.7729592,99.5767974 L27.5293367,99.5767974 L27.5293367,99.5767974 Z M35.5688776,100.063725 L34.5943878,100.063725 L34.5943878,100.550654 L35.5688776,100.550654 L35.5688776,102.498366 L34.5943878,102.498366 L34.5943878,102.985294 L35.5688776,102.985294 L35.5688776,111.019608 L34.5943878,111.019608 L34.5943878,111.506536 L35.5688776,111.506536 L35.5688776,113.454248 L34.5943878,113.454248 L34.5943878,113.941176 L35.5688776,113.941176 L35.5688776,128.54902 L31.1836735,128.54902 L31.1836735,128.305556 L28.2602041,128.305556 L28.2602041,101.281046 C30.6964286,98.8464052 32.8890306,96.1683007 34.8380102,93.4901961 L35.5688776,93.4901961 L35.5688776,100.063725 L35.5688776,100.063725 Z M128.145408,132.931373 L126.683673,131.714052 L128.145408,130.740196 L128.145408,132.931373 L128.145408,132.931373 Z M130.094388,130.253268 L132.28699,130.253268 L131.068878,131.714052 L130.094388,130.253268 L130.094388,130.253268 Z M130.825255,132.20098 L129.850765,133.174837 L129.850765,130.740196 L130.825255,132.20098 L130.825255,132.20098 Z M126.196429,131.227124 L124.978316,130.253268 L127.901786,130.253268 L126.196429,131.227124 L126.196429,131.227124 Z M124.734694,130.496732 L125.952806,131.470588 L124.734694,132.20098 L124.734694,130.496732 L124.734694,130.496732 Z M122.785714,131.714052 L118.156888,130.496732 L122.785714,130.496732 L122.785714,131.714052 L122.785714,131.714052 Z M126.196429,131.714052 L127.414541,132.687908 C126.683673,132.444444 125.952806,132.20098 125.221939,132.20098 L126.196429,131.714052 L126.196429,131.714052 Z M131.068878,132.687908 L132.28699,134.635621 L130.094388,133.905229 L131.068878,132.687908 L131.068878,132.687908 Z M131.3125,132.20098 L132.530612,130.740196 L132.530612,133.905229 L131.3125,132.20098 L131.3125,132.20098 Z M52.8660714,128.54902 L52.8660714,114.184641 L53.8405612,114.184641 L53.8405612,113.454248 L52.8660714,113.454248 L52.8660714,111.506536 L53.8405612,111.506536 L53.8405612,111.019608 L52.8660714,111.019608 L52.8660714,103.472222 L53.8405612,103.472222 L53.8405612,102.985294 L52.8660714,102.985294 L52.8660714,101.037582 L53.8405612,101.037582 L53.8405612,100.550654 L52.8660714,100.550654 L52.8660714,88.8643791 L138.133929,88.8643791 L138.133929,100.550654 L137.159439,100.550654 L137.159439,101.037582 L138.133929,101.037582 L138.133929,102.985294 L137.159439,102.985294 L137.159439,103.472222 L138.133929,103.472222 L138.133929,111.019608 L137.159439,111.019608 L137.159439,111.506536 L138.133929,111.506536 L138.133929,113.454248 L137.159439,113.454248 L137.159439,113.941176 L138.133929,113.941176 L138.133929,128.305556 L52.8660714,128.54902 L52.8660714,128.54902 Z M58.4693878,131.227124 L59.4438776,132.20098 L58.4693878,133.418301 L58.4693878,131.227124 L58.4693878,131.227124 Z M58.4693878,130.496732 L58.4693878,130.496732 L60.6619898,130.253268 L59.6875,131.714052 L58.4693878,130.496732 L58.4693878,130.496732 Z M66.0216837,132.20098 L64.8035714,131.470588 L66.0216837,130.496732 L66.0216837,132.20098 L66.0216837,132.20098 Z M64.559949,131.227124 L62.8545918,130.253268 L65.7780612,130.253268 L64.559949,131.227124 L64.559949,131.227124 Z M62.6109694,130.740196 L64.0727041,131.714052 L62.6109694,132.931373 L62.6109694,130.740196 L62.6109694,130.740196 Z M60.6619898,130.740196 L60.6619898,133.174837 L59.6875,132.20098 L60.6619898,130.740196 L60.6619898,130.740196 Z M64.559949,131.714052 L65.5344388,132.20098 C64.8035714,132.444444 64.0727041,132.444444 63.3418367,132.687908 L64.559949,131.714052 L64.559949,131.714052 Z M67.7270408,130.253268 L72.3558673,130.253268 L67.7270408,131.470588 L67.7270408,130.253268 L67.7270408,130.253268 Z M60.9056122,86.4297386 L59.6875,84.9689542 L61.1492347,83.2647059 L62.6109694,84.9689542 L61.3928571,86.4297386 L60.9056122,86.4297386 L60.9056122,86.4297386 Z M60.1747449,86.4297386 L58.2257653,86.4297386 L59.2002551,85.2124183 L60.1747449,86.4297386 L60.1747449,86.4297386 Z M62.8545918,85.2124183 L63.8290816,86.4297386 L61.880102,86.4297386 L62.8545918,85.2124183 L62.8545918,85.2124183 Z M64.3163265,86.4297386 L63.0982143,84.9689542 L64.559949,83.2647059 L66.0216837,84.9689542 L64.8035714,86.4297386 L64.3163265,86.4297386 L64.3163265,86.4297386 Z M66.2653061,85.2124183 L67.2397959,86.4297386 L65.2908163,86.4297386 L66.2653061,85.2124183 L66.2653061,85.2124183 Z M67.7270408,86.4297386 L66.5089286,84.9689542 L67.9706633,83.0212418 L69.432398,84.9689542 L68.2142857,86.4297386 L67.7270408,86.4297386 L67.7270408,86.4297386 Z M69.9196429,85.2124183 L70.8941327,86.4297386 L68.9451531,86.4297386 L69.9196429,85.2124183 L69.9196429,85.2124183 Z M75.0357143,86.4297386 L75.0357143,83.0212418 L76.497449,84.9689542 L75.0357143,86.4297386 L75.0357143,86.4297386 Z M71.8686224,86.4297386 L71.8686224,86.4297386 L70.4068878,84.9689542 L71.8686224,83.2647059 L71.8686224,86.4297386 L71.8686224,86.4297386 Z M76.7410714,85.2124183 L77.7155612,86.4297386 L75.7665816,86.4297386 L76.7410714,85.2124183 L76.7410714,85.2124183 Z M78.4464286,86.4297386 L77.2283163,84.9689542 L78.690051,83.0212418 L80.1517857,84.7254902 L78.9336735,86.1862745 L78.4464286,86.4297386 L78.4464286,86.4297386 Z M80.3954082,85.2124183 L81.369898,86.4297386 L79.4209184,86.4297386 L80.3954082,85.2124183 L80.3954082,85.2124183 Z M81.8571429,86.4297386 L80.6390306,84.9689542 L82.1007653,83.2647059 L83.5625,84.9689542 L82.3443878,86.4297386 L81.8571429,86.4297386 L81.8571429,86.4297386 Z M84.0497449,85.2124183 L85.0242347,86.4297386 L83.0752551,86.4297386 L84.0497449,85.2124183 L84.0497449,85.2124183 Z M85.5114796,86.4297386 L84.2933673,84.9689542 L85.755102,83.2647059 L87.2168367,84.9689542 L85.5114796,86.4297386 L85.5114796,86.4297386 Z M87.4604592,85.2124183 L88.434949,86.4297386 L86.4859694,86.4297386 L87.4604592,85.2124183 L87.4604592,85.2124183 Z M88.9221939,86.4297386 L87.7040816,84.9689542 L89.1658163,83.0212418 L90.627551,84.9689542 L89.4094388,86.4297386 L88.9221939,86.4297386 L88.9221939,86.4297386 Z M91.1147959,85.2124183 L92.0892857,86.4297386 L90.1403061,86.4297386 L91.1147959,85.2124183 L91.1147959,85.2124183 Z M99.1543367,85.9428105 L99.1543367,85.9428105 L99.1543367,83.2647059 L100.372449,84.9689542 L99.1543367,86.4297386 L98.9107143,86.4297386 L99.1543367,85.9428105 L99.1543367,85.9428105 Z M92.5765306,85.9428105 L92.5765306,86.4297386 L91.3584184,84.9689542 L92.5765306,83.5081699 L92.5765306,85.9428105 L92.5765306,85.9428105 Z M101.103316,85.2124183 L102.077806,86.4297386 L100.128827,86.4297386 L101.103316,85.2124183 L101.103316,85.2124183 Z M102.565051,86.4297386 L101.346939,84.9689542 L102.808673,83.0212418 L104.270408,84.7254902 L103.052296,86.1862745 L102.565051,86.4297386 L102.565051,86.4297386 Z M104.514031,85.2124183 L105.48852,86.4297386 L103.539541,86.4297386 L104.514031,85.2124183 L104.514031,85.2124183 Z M105.975765,86.4297386 L104.757653,84.9689542 L106.219388,83.2647059 L107.681122,84.9689542 L106.46301,86.4297386 L105.975765,86.4297386 L105.975765,86.4297386 Z M108.168367,85.2124183 L109.142857,86.4297386 L107.193878,86.4297386 L108.168367,85.2124183 L108.168367,85.2124183 Z M109.630102,86.4297386 L108.41199,84.9689542 L109.873724,83.2647059 L111.335459,84.9689542 L110.117347,86.4297386 L109.630102,86.4297386 L109.630102,86.4297386 Z M111.579082,85.2124183 L112.553571,86.4297386 L110.604592,86.4297386 L111.579082,85.2124183 L111.579082,85.2124183 Z M113.040816,86.4297386 L111.822704,84.9689542 L113.284439,83.0212418 L114.746173,84.9689542 L113.528061,86.4297386 L113.040816,86.4297386 L113.040816,86.4297386 Z M115.233418,85.2124183 L116.207908,86.4297386 L114.258929,86.4297386 L115.233418,85.2124183 L115.233418,85.2124183 Z M116.938776,86.4297386 L116.938776,86.4297386 L115.477041,84.9689542 L116.938776,83.2647059 L116.938776,86.4297386 L116.938776,86.4297386 Z M120.34949,82.7777778 L122.054847,84.9689542 L120.836735,86.4297386 L120.34949,86.4297386 L120.34949,82.7777778 L120.34949,82.7777778 Z M122.298469,85.2124183 L123.272959,86.4297386 L121.32398,86.4297386 L122.298469,85.2124183 L122.298469,85.2124183 Z M123.760204,86.4297386 L122.542092,84.9689542 L124.003827,83.0212418 L125.465561,84.7254902 L124.247449,86.1862745 L123.760204,86.4297386 L123.760204,86.4297386 Z M125.952806,85.2124183 L126.927296,86.4297386 L124.734694,86.4297386 L125.952806,85.2124183 L125.952806,85.2124183 Z M127.414541,86.4297386 L126.196429,84.9689542 L127.658163,83.2647059 L129.119898,84.9689542 L127.901786,86.4297386 L127.414541,86.4297386 L127.414541,86.4297386 Z M129.36352,85.2124183 L130.33801,86.4297386 L128.389031,86.4297386 L129.36352,85.2124183 L129.36352,85.2124183 Z M130.825255,86.4297386 L129.607143,84.9689542 L131.068878,83.2647059 L132.530612,84.9689542 L131.3125,86.4297386 L130.825255,86.4297386 L130.825255,86.4297386 Z M132.774235,85.2124183 L133.748724,86.4297386 L131.799745,86.4297386 L132.774235,85.2124183 L132.774235,85.2124183 Z M134.235969,86.4297386 L133.017857,84.9689542 L134.479592,83.0212418 L135.941327,84.9689542 L134.723214,86.4297386 L134.235969,86.4297386 L134.235969,86.4297386 Z M136.428571,85.2124183 L137.403061,86.4297386 L135.454082,86.4297386 L136.428571,85.2124183 L136.428571,85.2124183 Z M138.133929,86.4297386 L138.133929,86.4297386 L136.672194,84.9689542 L138.133929,83.2647059 L138.133929,86.4297386 L138.133929,86.4297386 Z M136.428571,84.4820261 L134.966837,82.5343137 L138.133929,82.5343137 L136.428571,84.4820261 L136.428571,84.4820261 Z M134.479592,82.5343137 L133.017857,84.4820261 L131.556122,82.7777778 L134.479592,82.5343137 L134.479592,82.5343137 Z M130.825255,82.7777778 L129.36352,84.4820261 L127.901786,82.7777778 L130.825255,82.7777778 L130.825255,82.7777778 Z M127.414541,82.7777778 L125.952806,84.4820261 L124.491071,82.7777778 L127.414541,82.7777778 L127.414541,82.7777778 Z M123.760204,82.7777778 L122.298469,84.4820261 L120.836735,82.5343137 L123.760204,82.7777778 L123.760204,82.7777778 Z M115.233418,84.4820261 L113.771684,82.5343137 L116.938776,82.5343137 L115.233418,84.4820261 L115.233418,84.4820261 Z M113.040816,82.5343137 L111.579082,84.4820261 L110.117347,82.7777778 L113.040816,82.5343137 L113.040816,82.5343137 Z M109.630102,82.7777778 L108.168367,84.4820261 L106.706633,82.7777778 L109.630102,82.7777778 L109.630102,82.7777778 Z M105.975765,82.7777778 L104.514031,84.4820261 L103.052296,82.7777778 L105.975765,82.7777778 L105.975765,82.7777778 Z M102.565051,82.7777778 L101.103316,84.7254902 L99.6415816,82.7777778 L102.565051,82.7777778 L102.565051,82.7777778 Z M92.5765306,82.7777778 L91.1147959,84.4820261 L89.6530612,82.5343137 L92.5765306,82.7777778 L92.5765306,82.7777778 Z M88.9221939,82.5343137 L87.4604592,84.4820261 L85.9987245,82.7777778 L88.9221939,82.5343137 L88.9221939,82.5343137 Z M85.5114796,82.7777778 L84.0497449,84.4820261 L82.5880102,82.7777778 L85.5114796,82.7777778 L85.5114796,82.7777778 Z M81.8571429,82.7777778 L80.3954082,84.4820261 L78.9336735,82.7777778 L81.8571429,82.7777778 L81.8571429,82.7777778 Z M78.4464286,82.7777778 L76.9846939,84.7254902 L75.5229592,82.7777778 L78.4464286,82.7777778 L78.4464286,82.7777778 Z M69.9196429,84.4820261 L68.4579082,82.5343137 L71.625,82.5343137 L69.9196429,84.4820261 L69.9196429,84.4820261 Z M67.9706633,82.5343137 L66.2653061,84.4820261 L64.8035714,82.7777778 L67.9706633,82.5343137 L67.9706633,82.5343137 Z M64.3163265,82.7777778 L62.8545918,84.4820261 L61.3928571,82.7777778 L64.3163265,82.7777778 L64.3163265,82.7777778 Z M60.9056122,82.7777778 L59.4438776,84.4820261 L57.9821429,82.7777778 L60.9056122,82.7777778 L60.9056122,82.7777778 Z M57.2512755,82.7777778 L55.7895408,84.7254902 L54.3278061,82.7777778 L57.2512755,82.7777778 L57.2512755,82.7777778 Z M57.494898,83.0212418 L58.9566327,84.7254902 L57.7385204,86.1862745 L57.2512755,86.1862745 L56.0331633,84.7254902 L57.494898,83.0212418 L57.494898,83.0212418 Z M56.7640306,86.4297386 L54.815051,86.4297386 L55.7895408,85.2124183 L56.7640306,86.4297386 L56.7640306,86.4297386 Z M53.5969388,82.5343137 L55.3022959,84.7254902 L54.0841837,86.4297386 L52.8660714,86.4297386 L52.8660714,82.5343137 L53.5969388,82.5343137 L53.5969388,82.5343137 Z M58.4693878,134.392157 L59.6875,132.687908 L60.6619898,133.661765 C59.6875,133.905229 58.9566327,134.148693 58.4693878,134.392157 L58.4693878,134.392157 L58.4693878,134.392157 Z M71.1377551,131.227124 L74.3048469,130.253268 L77.2283163,130.253268 C75.5229592,130.496732 73.3303571,130.740196 71.1377551,131.227124 L71.1377551,131.227124 L71.1377551,131.227124 Z M116.451531,130.253268 L119.618622,131.227124 C117.182398,130.740196 115.233418,130.496732 113.528061,130.253268 L116.451531,130.253268 L116.451531,130.253268 Z M183.447704,111.993464 L181.01148,112.236928 L178.818878,109.315359 C180.280612,110.289216 181.985969,111.019608 183.447704,111.993464 L183.447704,111.993464 L183.447704,111.993464 Z M182.960459,115.645425 C181.742347,114.915033 180.524235,113.941176 179.0625,112.96732 L180.767857,112.723856 L182.960459,115.645425 L182.960459,115.645425 Z M178.08801,109.315359 L180.280612,112.236928 L178.331633,112.480392 C178.08801,112.480392 178.08801,112.236928 177.844388,112.236928 L178.08801,109.315359 L178.08801,109.315359 Z M175.651786,107.611111 L173.702806,107.367647 L172.241071,105.419935 C173.459184,106.150327 174.433673,106.880719 175.651786,107.611111 L175.651786,107.611111 L175.651786,107.611111 Z M175.408163,110.289216 L171.753827,107.367647 L173.215561,107.611111 L175.408163,110.289216 L175.408163,110.289216 Z M170.779337,104.446078 L170.779337,104.446078 L172.971939,107.124183 L171.022959,106.637255 L170.779337,106.393791 L170.779337,104.446078 L170.779337,104.446078 Z M167.612245,102.254902 L166.637755,102.011438 L165.663265,100.794118 C166.394133,101.281046 167.125,101.767974 167.612245,102.254902 L167.612245,102.254902 L167.612245,102.254902 Z M166.637755,102.74183 L166.15051,102.254902 L166.394133,102.254902 L166.637755,102.74183 L166.637755,102.74183 Z M163.470663,99.0898693 C163.714286,99.3333333 163.957908,99.3333333 164.201531,99.5767974 L165.906888,101.52451 L165.663265,101.52451 L163.714286,99.5767974 L163.470663,99.0898693 L163.470663,99.0898693 Z M162.496173,128.305556 L159.572704,128.305556 L159.572704,128.54902 L155.1875,128.54902 L155.1875,113.941176 L156.405612,113.941176 L156.405612,113.454248 L155.431122,113.454248 L155.431122,111.506536 L156.405612,111.506536 L156.405612,111.019608 L155.431122,111.019608 L155.431122,103.472222 L156.405612,103.472222 L156.405612,102.985294 L155.431122,102.985294 L155.431122,101.037582 L156.405612,101.037582 L156.405612,100.550654 L155.431122,100.550654 L155.431122,94.2205882 L156.16199,94.2205882 C158.110969,96.8986928 160.303571,99.5767974 162.739796,102.011438 L162.496173,128.305556 L162.496173,128.305556 Z M162.496173,98.6029412 C162.252551,98.3594771 162.008929,98.1160131 161.765306,97.629085 C162.008929,98.1160131 162.252551,98.1160131 162.496173,98.6029412 L162.496173,98.6029412 L162.496173,98.6029412 Z M170.048469,128.305556 L163.470663,128.305556 L163.470663,102.254902 C165.663265,104.446078 167.855867,106.393791 170.048469,108.098039 L170.048469,128.305556 L170.048469,128.305556 Z M170.048469,105.663399 C169.804847,105.419935 169.317602,104.933007 169.07398,104.689542 L167.368622,102.498366 L169.07398,102.985294 C169.561224,103.228758 169.804847,103.472222 170.292092,103.715686 L170.048469,105.663399 L170.048469,105.663399 Z M177.11352,128.305556 L170.779337,128.305556 L170.779337,108.828431 C172.971939,110.53268 175.164541,112.236928 177.11352,113.697712 L177.11352,128.305556 L177.11352,128.305556 Z M177.11352,111.506536 L177.11352,111.506536 L173.946429,107.611111 L176.626276,108.098039 C176.869898,108.098039 176.869898,108.341503 177.11352,108.341503 L177.11352,111.506536 L177.11352,111.506536 L177.11352,111.506536 Z M184.178571,128.305556 L178.08801,128.305556 L178.08801,114.428105 C180.280612,116.132353 182.473214,117.593137 184.178571,118.566993 L184.178571,128.305556 L184.178571,128.305556 Z M184.178571,116.619281 C184.178571,116.619281 184.178571,116.375817 184.178571,116.619281 L181.255102,112.723856 L184.178571,112.236928 L184.422194,112.236928 L184.178571,116.619281 L184.178571,116.619281 Z" id="Shape" fill="#006D5B"></path>
                    <path d="M128.755212,96.927072 C127.410057,96.6283435 125.91544,97.5245298 125.467056,98.7194455 L125.018671,98.2713519 C125.317595,96.6283435 125.467056,94.8359699 125.467056,93.0435963 L126.064903,92.7448679 C126.363825,94.0891478 127.559519,95.1346984 129.054135,95.1346984 C130.698213,95.1346984 132.043367,93.7904184 132.043367,92.14741 C132.043367,90.5044007 130.698213,89.1601207 129.054135,89.1601207 C127.559519,89.1601207 126.363825,90.2056722 126.064903,91.5499522 L125.467056,90.9524943 C125.467056,89.1601207 125.317595,87.5171113 125.018671,85.7247387 L125.467056,85.2766451 C126.064903,86.4715608 127.410057,87.3677471 128.755212,87.0690187 C130.399289,86.7702893 131.445521,85.1272809 131.296059,83.4842715 C130.997136,81.8412631 129.353058,80.7957116 127.70898,80.9450758 C126.363825,81.2438052 125.317595,82.43872 125.168132,83.7830009 L124.570286,83.4842715 C124.271363,81.6918979 123.822978,80.0488895 123.225131,78.4058802 L123.673516,77.8084223 C124.420824,79.003338 125.91544,79.4514317 127.260596,79.003338 C128.904673,78.4058802 129.651981,76.6135066 129.054135,75.1198624 C128.456288,73.476854 126.662749,72.7300309 125.168132,73.3274888 C123.822978,73.7755825 123.07567,75.1198624 123.225131,76.4641423 L122.477823,76.7628718 C121.879977,75.1198624 121.132669,73.6262182 120.235899,71.9832089 L120.534822,71.385751 C121.431592,72.4313025 123.07567,72.5806667 124.271363,71.9832089 C125.765979,71.0870226 126.214364,69.294649 125.317595,67.8010048 C124.420824,66.3073597 122.627285,65.859267 121.132669,66.7554533 C119.936976,67.5022754 119.339129,68.9959205 119.787514,70.1908353 L119.040206,70.1908353 C118.143436,68.6971911 117.097205,67.3529112 116.050973,66.0086312 L116.349897,65.2618091 C117.396128,66.0086312 119.040206,66.0086312 120.086437,65.1124439 C121.431592,64.0668934 121.581054,62.1251556 120.534822,60.7808756 C119.48859,59.4365957 117.545589,59.2872305 116.200435,60.332782 C115.154204,61.2289683 114.85528,62.7226135 115.453127,64.0668934 L114.705819,64.2162576 C113.510126,62.8719777 112.314433,61.6770619 110.969278,60.6315104 L111.118739,59.8846884 C112.314433,60.4821462 113.958511,60.1834178 114.85528,59.1378663 C115.901512,57.7935863 115.752051,56.0012127 114.406895,54.806297 C113.061741,53.7607465 111.268202,53.9101107 110.072509,55.2543907 C109.175738,56.2999422 109.175738,57.9429505 109.923046,58.9885021 L109.175738,59.2872305 C107.830584,58.24168 106.485429,57.1961285 104.990813,56.2999422 L104.990813,55.5531201 C106.335968,56.0012127 107.830584,55.4037549 108.42843,54.2088392 C109.325201,52.715195 108.727354,50.9228214 107.3822,50.0266351 C105.887583,49.1304488 104.094043,49.7279057 103.197274,51.0721866 C102.449966,52.2671013 102.748889,53.9101107 103.79512,54.806297 L103.197274,55.1050264 C101.702658,54.3582043 100.058579,53.6113813 98.5639635,52.8645592 L98.4145021,52.1177371 C99.7596567,52.2671013 101.104811,51.5202793 101.553195,50.1759993 C102.151042,48.5329909 101.254273,46.8899815 99.7596567,46.2925238 C98.1155784,45.6950659 96.471501,46.5912526 95.8736545,48.0848973 C95.4252692,49.4291772 95.8736545,50.9228214 97.0693466,51.6696435 L96.471501,52.1177371 C94.8274227,51.5202793 93.1833448,51.0721866 91.5392669,50.7734572 L91.2403437,50.0266351 C92.5854984,49.8772709 93.7811913,48.9810836 94.0801146,47.4874393 C94.3790379,45.8444304 93.3328064,44.2014215 91.5392669,43.9026925 C89.8951891,43.6039637 88.2511112,44.6495148 87.9521879,46.4418882 C87.6532647,47.7861679 88.5500345,49.279813 89.7457274,49.7279057 L89.5962658,50.6240929 C87.9521879,50.3253635 86.1586484,50.1759993 84.5145706,50.1759993 L84.0661857,49.4291772 C85.4113403,49.1304488 86.4575717,47.9355331 86.4575717,46.4418882 C86.4575717,44.7988792 85.1124171,43.4545992 83.4683391,43.4545992 C81.8242613,43.4545992 80.4791067,44.7988792 80.4791067,46.4418882 C80.4791067,47.9355331 81.525338,49.1304488 82.8704927,49.4291772 L82.4221078,50.1759993 C80.6285683,50.1759993 78.9844904,50.3253635 77.3404126,50.6240929 L76.8920277,50.0266351 C78.0877206,49.4291772 78.9844904,48.0848973 78.6855672,46.7406171 C78.3866439,45.0976082 76.742566,44.052057 75.0984882,44.2014215 C73.4544103,44.5001504 72.4081789,46.1431593 72.5576405,47.7861679 C72.8565638,49.1304488 74.0522567,50.1759993 75.3974114,50.3253635 L75.0984882,51.0721866 C73.4544103,51.370915 71.8103324,51.8190087 70.1662546,52.4164665 L69.5684081,51.8190087 C70.764101,51.0721866 71.2124859,49.5785414 70.764101,48.2342615 C70.1662546,46.5912526 68.372715,45.8444304 66.8780988,46.4418882 C65.2340209,47.039346 64.4867128,48.8317194 65.0845593,50.3253635 C65.5329442,51.6696435 66.8780988,52.4164665 68.2232535,52.2671013 L68.0737918,53.0139244 C66.429714,53.6113813 64.9350976,54.3582043 63.4404814,55.1050264 L62.6931733,54.6569328 C63.7394047,53.7607465 63.8888663,52.1177371 63.2910198,50.9228214 C62.3942501,49.4291772 60.6007106,48.9810836 59.1060942,49.8772709 C57.611478,50.7734572 57.1630931,52.5658308 58.0598629,54.0594749 C58.8071711,55.2543907 60.3017873,55.8518485 61.4974803,55.4037549 L61.4974803,56.2999422 C60.002864,57.1961285 58.6577094,58.0923148 57.4620164,59.1378663 L56.5652467,58.8391378 C57.3125547,57.7935863 57.3125547,56.150577 56.415785,55.1050264 C55.3695536,53.7607465 53.4265525,53.6113813 52.0813979,54.6569328 C50.7362433,55.7024843 50.5867816,57.6442221 51.633013,58.9885021 C52.5297828,60.0340536 54.024399,60.332782 55.3695536,59.7353241 L55.5190152,60.6315104 C54.3233223,61.6770619 53.1276293,62.8719777 51.9319362,64.2162576 L51.0351665,64.0668934 C51.633013,62.8719777 51.3340898,61.2289683 50.2878584,60.332782 C48.9427038,59.2872305 47.1491643,59.4365957 45.9534712,60.7808756 C44.9072399,62.1251556 45.0567015,63.9175292 46.4018561,65.1124439 C47.4480875,66.0086312 49.0921654,66.0086312 50.1383967,65.2618091 L50.43732,66.1579954 C49.3910887,67.5022754 48.4943189,68.8465553 47.5975492,70.1908353 L46.7007794,70.1908353 C47.1491643,68.8465553 46.5513178,67.3529112 45.3556248,66.7554533 C43.8610086,65.859267 42.0674691,66.4567248 41.1706993,67.8010048 C40.2739296,69.294649 40.871776,71.0870226 42.2169306,71.9832089 C43.4126237,72.7300309 45.0567015,72.4313025 45.9534712,71.385751 L46.4018561,72.1325731 C45.6545481,73.6262182 44.9072399,75.1198624 44.3093934,76.6135066 L43.4126237,76.7628718 C43.5620853,75.4185918 42.8147771,74.0743109 41.4696225,73.6262182 C39.8255447,73.0287604 38.1814668,73.9249467 37.5836203,75.4185918 C36.9857737,77.0616002 37.8825435,78.7046096 39.3771598,79.3020674 C40.7223144,79.7501601 42.2169306,79.3020674 42.9642388,78.1071517 L43.5620853,78.8539738 C42.9642388,80.4969822 42.6653155,81.9906273 42.2169306,83.6336357 L41.3201609,83.9323651 C41.1706993,82.5880852 40.2739296,81.3931695 38.7793132,81.0944401 C37.1352354,80.7957116 35.4911575,81.8412631 35.1922342,83.6336357 C34.893311,85.2766451 35.9395424,86.9196535 37.7330819,87.2183829 C39.0782365,87.5171113 40.5728527,86.620925 41.0212376,85.4260093 L41.7685458,86.0234672 C41.4696225,87.6664765 41.3201609,89.3094849 41.3201609,90.9524943 L40.5728527,91.400587 C40.2739296,90.056307 39.0782365,89.0107565 37.5836203,89.0107565 C35.9395424,89.0107565 34.5943878,90.3550364 34.5943878,91.9980448 C34.5943878,93.6410542 35.9395424,94.9853341 37.5836203,94.9853341 C39.0782365,94.9853341 40.2739296,93.9397826 40.5728527,92.5955027 L41.3201609,93.0435963 C41.3201609,94.6866057 41.4696225,96.3296141 41.7685458,97.9726235 L41.0212376,98.5700813 C40.4233911,97.3751656 39.0782365,96.4789783 37.7330819,96.7777077 C36.089004,97.0764362 35.0427726,98.7194455 35.1922342,100.362454 C35.4911575,102.005463 37.1352354,103.051015 38.7793132,102.90165 C40.1244679,102.602921 41.1706993,101.408005 41.3201609,100.063725 L42.2169306,100.362454 C42.5158539,102.005463 42.9642388,103.648473 43.5620853,105.142117 L43.263162,105.888939 C42.5158539,104.694023 41.0212376,104.245931 39.676083,104.694023 C38.0320052,105.291481 37.284697,107.083855 37.8825435,108.577499 C38.48039,110.220508 40.2739296,110.96733 41.7685458,110.369872 C43.1137004,109.921779 43.8610086,108.577499 43.7115469,107.233219 L44.6083166,107.382583 C45.2061632,108.876228 45.9534712,110.519237 46.7007794,111.863517 L46.2523945,112.759704 C45.3556248,111.714152 43.7115469,111.564788 42.5158539,112.162246 C41.0212376,113.058432 40.5728527,114.850806 41.4696225,116.34445 C42.3663922,117.838095 44.1599317,118.286188 45.6545481,117.390002 C46.850241,116.643179 47.4480875,115.149535 46.9997026,113.95462 L47.8964723,113.95462 C48.7932421,115.448264 49.6900118,116.792544 50.7362433,117.987459 L50.43732,118.883646 C49.3910887,118.136824 47.7470108,118.136824 46.7007794,119.033011 C45.3556248,120.078561 45.2061632,122.020299 46.2523945,123.364579 C47.2986259,124.708859 49.241627,124.858224 50.5867816,123.812673 C51.633013,122.916487 51.9319362,121.422841 51.3340898,120.078561 L52.2308595,119.929197 C53.2770909,121.124113 54.4727839,122.319029 55.8179385,123.513944 L55.6684769,124.410131 C54.4727839,123.812673 52.828706,124.111402 51.9319362,125.156953 C50.8857049,126.501233 51.0351665,128.293606 52.3803211,129.488522 C53.7254757,130.534074 55.5190152,130.384708 56.7147083,129.040428 C57.611478,127.994878 57.611478,126.351869 56.8641699,125.306317 L57.7609396,125.007589 C59.1060942,126.05314 60.4512489,126.949326 61.7964035,127.845513 L61.7964035,128.7417 C60.4512489,128.293606 58.9566327,128.891064 58.3587862,130.08598 C58.2093245,130.384708 58.2093245,130.534074 58.0598629,130.832802 C58.0598629,130.832802 58.0598629,130.832802 57.9104013,130.832802 L52.3803211,130.832802 C57.3125547,135.313735 63.1415581,138.599753 69.7178697,140.541491 L67.177022,148.756536 L71.3619475,148.756536 L73.0060254,141.288313 C74.5006416,141.587043 75.8457963,141.885771 77.3404126,142.035136 L77.3404126,139.197211 C77.938259,138.749117 78.2371823,138.15166 78.3866439,137.404838 C78.6855672,136.060558 77.7887974,134.566913 76.5931044,134.11882 L77.0414893,133.521362 C78.6855672,133.820091 80.4791067,133.969456 82.1231845,133.969456 L82.5715694,134.716278 C81.2264148,135.015007 80.1801834,136.209922 80.1801834,137.703567 C80.1801834,139.346575 81.525338,140.690855 83.169416,140.690855 C84.8134938,140.690855 86.1586484,139.346575 86.1586484,137.703567 C86.1586484,136.209922 85.1124171,135.015007 83.7672624,134.716278 L84.2156473,133.969456 C86.0091868,133.969456 87.6532647,133.820091 89.2973425,133.521362 L89.7457274,134.11882 C88.5500345,134.716278 87.6532647,136.060558 87.9521879,137.404838 C88.1016496,138.002295 88.4005728,138.599753 88.6994961,138.898483 L88.6994961,142.035136 C90.1941123,141.885771 91.8381902,141.587043 93.3328064,141.288313 L94.8274227,148.607172 L99.0123477,148.607172 L96.9198852,140.242763 C103.346735,138.301025 109.175738,134.865642 114.107972,130.534074 L108.727354,130.534074 C108.727354,130.235344 108.577892,130.08598 108.42843,129.936616 C107.681122,128.7417 106.186507,128.144242 104.990813,128.592336 L104.990813,127.845513 C106.485429,126.949326 107.830584,125.903775 109.175738,124.858224 L109.923046,125.156953 C109.175738,126.202504 109.175738,127.845513 110.072509,128.891064 C111.118739,130.235344 113.061741,130.384708 114.406895,129.339158 C115.752051,128.293606 115.901512,126.351869 114.85528,125.007589 C113.958511,123.962037 112.463894,123.663309 111.118739,124.260766 L110.969278,123.513944 C112.314433,122.319029 113.510126,121.124113 114.705819,119.929197 L115.453127,120.078561 C114.85528,121.273477 115.154204,122.916487 116.200435,123.812673 C117.545589,124.858224 119.339129,124.708859 120.534822,123.364579 C121.581054,122.020299 121.431592,120.227926 120.086437,119.033011 C119.040206,118.136824 117.396128,118.136824 116.349897,118.883646 L116.050973,118.136824 C117.097205,116.792544 118.143436,115.2989 119.040206,113.95462 L119.787514,113.95462 C119.339129,115.2989 119.936976,116.792544 121.132669,117.390002 C122.627285,118.286188 124.420824,117.688731 125.317595,116.34445 C126.214364,114.850806 125.616517,113.058432 124.271363,112.162246 C123.07567,111.415424 121.431592,111.714152 120.534822,112.759704 L120.235899,112.162246 C121.132669,110.668602 121.730515,109.025592 122.477823,107.382583 L123.225131,107.233219 C123.07567,108.577499 123.822978,109.921779 125.168132,110.369872 C126.812211,110.96733 128.456288,110.071144 129.054135,108.577499 C129.651981,106.93449 128.755212,105.291481 127.260596,104.694023 C125.91544,104.245931 124.420824,104.694023 123.673516,105.888939 L123.225131,105.291481 C123.822978,103.648473 124.271363,102.005463 124.570286,100.21309 L125.168132,99.9143613 C125.317595,101.258641 126.214364,102.453557 127.70898,102.752285 C129.353058,103.051015 130.997136,102.005463 131.296059,100.21309 C131.594982,98.8688098 130.399289,97.2258014 128.755212,96.927072 L128.755212,96.927072 L128.755212,96.927072 Z M123.225131,85.2766451 C123.524055,87.3677471 123.822978,89.4588492 123.822978,91.6993164 L119.936976,90.2056722 C119.936976,89.1601207 119.787514,88.2639344 119.638053,87.3677471 L123.225131,85.2766451 L123.225131,85.2766451 Z M123.225131,85.1272809 L119.638053,87.2183829 C119.48859,86.1728314 119.339129,85.2766451 119.189668,84.2310936 L123.225131,85.1272809 C123.225131,84.9779157 123.225131,85.1272809 123.225131,85.1272809 L123.225131,85.1272809 L123.225131,85.1272809 Z M101.553195,122.767121 L86.6070333,96.927072 L86.3081101,95.582792 L106.186507,119.331739 C104.69189,120.676019 103.197274,121.721571 101.553195,122.767121 L101.553195,122.767121 L101.553195,122.767121 Z M102.898351,122.767121 L103.645659,126.799962 L100.506965,124.111402 C101.254273,123.812673 102.151042,123.364579 102.898351,122.767121 L102.898351,122.767121 L102.898351,122.767121 Z M84.0661857,87.6664765 L83.7672624,87.6664765 L83.7672624,56.5986706 C85.7102635,56.5986706 87.6532647,56.7480348 89.5962658,57.0467642 L84.0661857,87.6664765 L84.0661857,87.6664765 Z M89.8951891,57.1961285 C91.8381902,57.4948579 93.6317297,58.0923148 95.4252692,58.6897726 L84.8134938,87.965205 C84.6640322,87.965205 84.6640322,87.8158408 84.5145706,87.8158408 L89.8951891,57.1961285 L89.8951891,57.1961285 Z M84.0661857,96.4789783 L89.4468042,127.098691 C87.503803,127.39742 85.7102635,127.546784 83.6178008,127.546784 L83.6178008,96.4789783 L84.0661857,96.4789783 L84.0661857,96.4789783 Z M87.6532647,90.3550364 C87.6532647,90.2056722 87.503803,90.2056722 87.503803,90.056307 L114.406895,74.5224045 C115.303665,76.1654139 116.200435,77.9577865 116.798281,79.7501601 L87.6532647,90.3550364 L87.6532647,90.3550364 Z M116.947743,80.0488895 C117.545589,81.8412631 118.143436,83.7830009 118.44236,85.5753735 L87.8027263,90.9524943 C87.8027263,90.8031301 87.8027263,90.6537649 87.6532647,90.6537649 L116.947743,80.0488895 L116.947743,80.0488895 Z M87.2048798,89.7575786 C87.2048798,89.6082144 87.0554182,89.6082144 87.0554182,89.4588492 L110.969278,69.4440132 C112.164971,70.9376583 113.360664,72.5806667 114.257434,74.2236761 L87.2048798,89.7575786 L87.2048798,89.7575786 Z M86.756495,89.1601207 C86.6070333,89.0107565 86.6070333,89.0107565 86.4575717,88.8613923 L106.485429,64.9630797 C107.980045,66.1579954 109.325201,67.6516396 110.520893,68.9959205 L86.756495,89.1601207 L86.756495,89.1601207 Z M86.1586484,88.5626628 C86.0091868,88.5626628 86.0091868,88.4132986 85.8597252,88.4132986 L101.403734,61.5276977 C103.047812,62.5732483 104.69189,63.6187998 106.186507,64.8137155 L86.1586484,88.5626628 L86.1586484,88.5626628 Z M86.0091868,104.992753 L90.6424972,126.949326 C90.343574,126.949326 90.1941123,127.098691 89.8951891,127.098691 L86.0091868,104.992753 L86.0091868,104.992753 Z M86.4575717,95.2840636 C86.6070333,95.1346984 86.6070333,95.1346984 86.756495,94.9853341 L110.670355,115.00017 C109.474662,116.493815 107.980045,117.838095 106.634891,119.033011 L86.4575717,95.2840636 L86.4575717,95.2840636 Z M87.0554182,94.6866057 C87.0554182,94.5372405 87.2048798,94.5372405 87.2048798,94.3878763 L114.107972,109.921779 C113.061741,111.564788 112.01551,113.207797 110.819817,114.701442 L87.0554182,94.6866057 L87.0554182,94.6866057 Z M87.503803,94.0891478 C87.503803,93.9397826 87.6532647,93.9397826 87.6532647,93.7904184 L116.947743,104.395295 C116.200435,106.187668 115.453127,107.980041 114.556357,109.62305 L87.503803,94.0891478 L87.503803,94.0891478 Z M87.8027263,93.3423258 C87.8027263,93.1929606 87.9521879,93.1929606 87.9521879,93.0435963 L118.591821,98.4207161 C118.292898,100.362454 117.695052,102.154828 117.097205,103.947201 L87.8027263,93.3423258 L87.8027263,93.3423258 Z M87.9521879,92.5955027 L87.9521879,92.2967742 L119.040206,92.2967742 C119.040206,94.2385121 118.890744,96.1802499 118.591821,98.1219877 L87.9521879,92.5955027 L87.9521879,92.5955027 Z M87.9521879,91.8486806 L87.9521879,91.5499522 L118.591821,86.1728314 C118.890744,88.1145692 119.040206,89.9069428 119.040206,91.9980448 L87.9521879,91.9980448 L87.9521879,91.8486806 L87.9521879,91.8486806 Z M123.07567,84.8285515 L119.040206,84.0817294 C118.890744,83.1855431 118.591821,82.1399916 118.292898,81.2438052 L121.431592,78.5552444 C122.1789,80.4969822 122.776747,82.5880852 123.07567,84.8285515 L123.07567,84.8285515 L123.07567,84.8285515 Z M121.431592,78.4058802 L118.292898,81.0944401 C117.993974,80.1982537 117.695052,79.1527022 117.246667,78.2565159 L121.431592,78.4058802 C121.28213,78.2565159 121.431592,78.2565159 121.431592,78.4058802 L121.431592,78.4058802 L121.431592,78.4058802 Z M121.28213,77.9577865 L117.097205,77.9577865 C116.64882,77.0616002 116.349897,76.1654139 115.901512,75.4185918 L118.591821,72.2819383 C119.638053,74.0743109 120.534822,76.0160487 121.28213,77.9577865 L121.28213,77.9577865 L121.28213,77.9577865 Z M118.44236,71.9832089 L115.752051,75.1198624 C115.303665,74.2236761 114.705819,73.3274888 114.257434,72.5806667 L118.44236,71.9832089 C118.292898,71.9832089 118.292898,71.9832089 118.44236,71.9832089 L118.44236,71.9832089 L118.44236,71.9832089 Z M118.143436,71.6844804 L113.958511,72.4313025 C113.510126,71.6844804 112.912279,70.7882931 112.314433,70.0414711 L114.406895,66.4567248 C115.901512,68.0997332 117.097205,69.8921068 118.143436,71.6844804 L118.143436,71.6844804 L118.143436,71.6844804 Z M114.406895,66.3073597 L112.314433,69.8921068 C111.716586,69.1452847 111.118739,68.2490975 110.371432,67.5022754 L114.406895,66.3073597 C114.257434,66.1579954 114.257434,66.1579954 114.406895,66.3073597 L114.406895,66.3073597 L114.406895,66.3073597 Z M114.107972,66.0086312 L110.22197,67.3529112 C109.624124,66.6060891 108.876816,66.0086312 108.129508,65.2618091 L109.474662,61.3783335 C111.268202,62.8719777 112.762818,64.3656218 114.107972,66.0086312 L114.107972,66.0086312 L114.107972,66.0086312 Z M109.474662,61.2289683 L108.129508,65.1124439 C107.3822,64.3656218 106.634891,63.768164 105.738121,63.1707061 L109.474662,61.2289683 C109.325201,61.2289683 109.325201,61.2289683 109.474662,61.2289683 L109.474662,61.2289683 L109.474662,61.2289683 Z M109.175738,61.0796041 L105.58866,63.1707061 C104.841352,62.5732483 104.094043,62.1251556 103.197274,61.5276977 L103.944582,57.3454927 C105.738121,58.3910442 107.531661,59.7353241 109.175738,61.0796041 L109.175738,61.0796041 L109.175738,61.0796041 Z M103.496196,57.1961285 L103.496196,57.1961285 L102.898351,61.3783335 C102.001581,60.7808756 101.104811,60.332782 100.208041,59.8846884 L103.496196,57.1961285 L103.496196,57.1961285 Z M103.346735,57.0467642 L100.058579,59.7353241 C99.1618101,59.2872305 98.4145021,58.8391378 97.5177318,58.5404084 L97.5177318,54.3582043 C99.4607329,55.1050264 101.403734,56.0012127 103.346735,57.0467642 L103.346735,57.0467642 L103.346735,57.0467642 Z M101.104811,61.2289683 L85.5608019,88.1145692 C85.4113403,88.1145692 85.4113403,87.965205 85.2618786,87.965205 L95.8736545,58.8391378 C97.6671932,59.4365957 99.4607329,60.332782 101.104811,61.2289683 L101.104811,61.2289683 L101.104811,61.2289683 Z M97.3682704,54.2088392 L97.3682704,58.3910442 C96.471501,57.9429505 95.4252692,57.6442221 94.5284995,57.3454927 L97.218809,54.2088392 L97.3682704,54.2088392 L97.3682704,54.2088392 Z M96.9198852,54.2088392 L94.2295762,57.3454927 C93.3328064,57.0467642 92.4360367,56.8974 91.5392669,56.5986706 L90.7919589,52.5658308 C92.8844215,52.8645592 94.9768843,53.4620171 96.9198852,54.2088392 L96.9198852,54.2088392 L96.9198852,54.2088392 Z M90.343574,52.4164665 L90.343574,52.4164665 L91.2403437,56.4493064 C90.1941123,56.2999422 89.2973425,56.0012127 88.2511112,56.0012127 L90.343574,52.4164665 L90.343574,52.4164665 Z M90.1941123,52.4164665 L88.1016496,56.0012127 C87.2048798,55.8518485 86.3081101,55.8518485 85.2618786,55.7024843 L83.7672624,51.8190087 C86.0091868,51.8190087 88.1016496,52.1177371 90.1941123,52.4164665 L90.1941123,52.4164665 L90.1941123,52.4164665 Z M83.4683391,51.8190087 L83.4683391,51.8190087 L84.9629555,55.7024843 L83.4683391,55.7024843 L81.8242613,55.7024843 L83.4683391,51.8190087 L83.4683391,51.8190087 Z M65.9813291,122.916487 L80.0307218,98.5700813 L77.938259,106.93449 L71.2124859,125.455682 C69.4189464,124.708859 67.6254069,123.812673 65.9813291,122.916487 L65.9813291,122.916487 L65.9813291,122.916487 Z M72.4081789,126.650597 L69.7178697,129.787251 L69.7178697,125.605046 C70.6146394,126.05314 71.5114092,126.351869 72.4081789,126.650597 L72.4081789,126.650597 L72.4081789,126.650597 Z M80.6285683,88.8613923 L80.329645,89.1601207 L56.415785,69.1452847 C57.611478,67.6516396 59.1060942,66.3073597 60.4512489,65.1124439 L80.6285683,88.8613923 L80.6285683,88.8613923 Z M60.8996338,64.8137155 C62.3942501,63.6187998 64.0383279,62.423884 65.6824058,61.5276977 L81.2264148,88.4132986 C81.0769532,88.4132986 81.0769532,88.5626628 80.9274916,88.5626628 L60.8996338,64.8137155 L60.8996338,64.8137155 Z M80.0307218,89.4588492 C80.0307218,89.6082144 79.8812601,89.6082144 79.8812601,89.7575786 L52.9781677,74.2236761 C54.024399,72.5806667 55.0706304,70.9376583 56.2663234,69.4440132 L80.0307218,89.4588492 L80.0307218,89.4588492 Z M79.582337,90.056307 C79.582337,90.2056722 79.4328753,90.2056722 79.4328753,90.3550364 L50.2878584,79.7501601 C51.0351665,77.9577865 51.7824746,76.1654139 52.6792444,74.5224045 L79.582337,90.056307 L79.582337,90.056307 Z M79.2834137,90.8031301 C79.2834137,90.9524943 79.1339521,90.9524943 79.1339521,91.1018585 L48.6437805,85.7247387 C48.9427038,83.7830009 49.5405503,81.9906273 50.1383967,80.1982537 L79.2834137,90.8031301 L79.2834137,90.8031301 Z M79.1339521,91.5499522 L79.1339521,91.8486806 L48.045934,91.8486806 C48.045934,89.9069428 48.1953956,87.965205 48.4943189,86.0234672 L79.1339521,91.5499522 L79.1339521,91.5499522 Z M79.1339521,92.2967742 L79.1339521,92.5955027 L48.4943189,97.9726235 C48.1953956,96.0308856 48.045934,94.2385121 48.045934,92.14741 L79.1339521,92.14741 L79.1339521,92.2967742 L79.1339521,92.2967742 Z M79.2834137,93.0435963 C79.2834137,93.1929606 79.2834137,93.3423258 79.4328753,93.3423258 L50.1383967,103.947201 C49.5405503,102.154828 48.9427038,100.21309 48.6437805,98.4207161 L79.2834137,93.0435963 L79.2834137,93.0435963 Z M79.4328753,93.7904184 C79.4328753,93.9397826 79.582337,93.9397826 79.582337,94.0891478 L52.6792444,109.62305 C51.7824746,107.980041 50.8857049,106.187668 50.2878584,104.395295 L79.4328753,93.7904184 L79.4328753,93.7904184 Z M79.8812601,94.3878763 C79.8812601,94.5372405 80.0307218,94.5372405 80.0307218,94.6866057 L56.1168618,114.701442 C54.9211688,113.207797 53.7254757,111.564788 52.828706,109.921779 L79.8812601,94.3878763 L79.8812601,94.3878763 Z M80.329645,94.9853341 C80.4791067,95.1346984 80.4791067,95.1346984 80.6285683,95.2840636 L60.6007106,119.182375 C59.1060942,117.987459 57.7609396,116.493815 56.5652467,115.149535 L80.329645,94.9853341 L80.329645,94.9853341 Z M80.7780299,95.7321562 L80.4791067,97.0764362 L65.6824058,122.767121 C64.0383279,121.721571 62.3942501,120.676019 60.8996338,119.481104 L80.7780299,95.7321562 L80.7780299,95.7321562 Z M66.5791755,124.260766 L63.4404814,126.949326 C63.4404814,126.949326 63.4404814,126.949326 63.2910198,126.949326 L64.0383279,122.916487 C64.785636,123.215215 65.6824058,123.812673 66.5791755,124.260766 L66.5791755,124.260766 L66.5791755,124.260766 Z M81.3758765,103.051015 L77.1909509,126.949326 C76.8920277,126.949326 76.5931044,126.799962 76.2941811,126.799962 L81.3758765,103.051015 L81.3758765,103.051015 Z M83.0199543,96.4789783 L83.3188776,96.4789783 L83.3188776,127.546784 C81.3758765,127.546784 79.4328753,127.39742 77.4898742,127.098691 L83.0199543,96.4789783 L83.0199543,96.4789783 Z M82.2726462,87.8158408 L71.6608708,58.5404084 C73.4544103,57.9429505 75.3974114,57.3454927 77.1909509,57.0467642 L82.5715694,87.6664765 C82.4221078,87.8158408 82.4221078,87.8158408 82.2726462,87.8158408 L82.2726462,87.8158408 L82.2726462,87.8158408 Z M83.0199543,87.6664765 L77.6393358,57.0467642 C79.582337,56.7480348 81.3758765,56.5986706 83.4683391,56.5986706 L83.4683391,87.6664765 L83.0199543,87.6664765 L83.0199543,87.6664765 Z M83.169416,51.8190087 L81.6747996,55.7024843 C80.7780299,55.7024843 79.7317985,55.8518485 78.8350288,56.0012127 L76.742566,52.4164665 C78.8350288,52.1177371 80.9274916,51.8190087 83.169416,51.8190087 L83.169416,51.8190087 L83.169416,51.8190087 Z M76.5931044,52.4164665 L78.6855672,56.0012127 C77.6393358,56.150577 76.5931044,56.2999422 75.6963347,56.5986706 L76.4436428,52.5658308 C76.4436428,52.5658308 76.4436428,52.4164665 76.5931044,52.4164665 L76.5931044,52.4164665 L76.5931044,52.4164665 Z M76.1447195,52.5658308 L75.3974114,56.5986706 C74.5006416,56.7480348 73.6038719,57.0467642 72.7071021,57.3454927 L70.016793,54.2088392 C71.9597941,53.4620171 74.0522567,52.8645592 76.1447195,52.5658308 L76.1447195,52.5658308 L76.1447195,52.5658308 Z M69.5684081,54.3582043 L69.5684081,54.3582043 L72.4081789,57.4948579 C71.3619475,57.7935863 70.4651778,58.0923148 69.5684081,58.5404084 L69.5684081,54.3582043 L69.5684081,54.3582043 Z M71.2124859,58.8391378 L81.8242613,88.1145692 C81.6747996,88.1145692 81.6747996,88.2639344 81.525338,88.2639344 L65.9813291,61.3783335 C67.6254069,60.332782 69.4189464,59.4365957 71.2124859,58.8391378 L71.2124859,58.8391378 L71.2124859,58.8391378 Z M69.4189464,54.3582043 L69.4189464,58.5404084 C68.5221766,58.8391378 67.7748686,59.2872305 66.8780988,59.7353241 L63.7394047,57.0467642 C65.5329442,56.150577 67.3264837,55.1050264 69.4189464,54.3582043 L69.4189464,54.3582043 L69.4189464,54.3582043 Z M63.4404814,57.1961285 L66.5791755,59.8846884 C65.6824058,60.332782 64.785636,60.9302399 63.8888663,61.5276977 L63.2910198,57.3454927 C63.2910198,57.3454927 63.4404814,57.3454927 63.4404814,57.1961285 L63.4404814,57.1961285 L63.4404814,57.1961285 Z M63.1415581,57.4948579 L63.8888663,61.6770619 C63.1415581,62.1251556 62.3942501,62.7226135 61.6469419,63.3200713 L58.0598629,61.2289683 C59.5544791,59.7353241 61.198557,58.5404084 63.1415581,57.4948579 L63.1415581,57.4948579 L63.1415581,57.4948579 Z M57.7609396,61.2289683 L61.3480186,63.3200713 C60.4512489,63.9175292 59.7039408,64.6643513 58.9566327,65.2618091 L57.611478,61.3783335 C57.611478,61.3783335 57.611478,61.2289683 57.7609396,61.2289683 L57.7609396,61.2289683 L57.7609396,61.2289683 Z M57.3125547,61.5276977 L58.6577094,65.4111733 C58.0598629,66.0086312 57.3125547,66.6060891 56.7147083,67.3529112 L52.828706,66.0086312 C54.3233223,64.3656218 55.8179385,62.8719777 57.3125547,61.5276977 L57.3125547,61.5276977 L57.3125547,61.5276977 Z M52.828706,66.1579954 L56.7147083,67.5022754 C55.9674001,68.2490975 55.3695536,69.1452847 54.7717072,69.8921068 L52.6792444,66.3073597 C52.6792444,66.3073597 52.6792444,66.3073597 52.828706,66.1579954 L52.828706,66.1579954 L52.828706,66.1579954 Z M52.5297828,66.6060891 L54.6222455,70.1908353 C54.024399,70.9376583 53.5760141,71.6844804 53.1276293,72.4313025 L48.9427038,71.6844804 C49.9889351,69.8921068 51.1846282,68.0997332 52.5297828,66.6060891 L52.5297828,66.6060891 L52.5297828,66.6060891 Z M48.7932421,71.8338446 L52.828706,72.5806667 C52.2308595,73.476854 51.7824746,74.3730403 51.1846282,75.2692266 L48.4943189,72.1325731 L48.7932421,71.8338446 L48.7932421,71.8338446 L48.7932421,71.8338446 Z M48.4943189,72.2819383 L51.1846282,75.4185918 C50.7362433,76.1654139 50.43732,77.0616002 49.9889351,77.9577865 L45.8040097,77.9577865 C46.5513178,76.0160487 47.4480875,74.0743109 48.4943189,72.2819383 L48.4943189,72.2819383 L48.4943189,72.2819383 Z M45.8040097,78.2565159 L49.9889351,78.2565159 C49.5405503,79.1527022 49.241627,80.1982537 48.9427038,81.2438052 L45.8040097,78.5552444 C45.6545481,78.4058802 45.6545481,78.2565159 45.8040097,78.2565159 L45.8040097,78.2565159 L45.8040097,78.2565159 Z M45.6545481,78.7046096 L48.7932421,81.3931695 C48.4943189,82.2893558 48.3448572,83.1855431 48.045934,84.0817294 L44.0104702,84.8285515 C44.3093934,82.7374494 44.9072399,80.6463474 45.6545481,78.7046096 L45.6545481,78.7046096 L45.6545481,78.7046096 Z M44.0104702,84.9779157 L48.045934,84.2310936 C47.7470108,85.2766451 47.5975492,86.3221966 47.4480875,87.3677471 L43.8610086,85.2766451 C43.8610086,85.1272809 43.8610086,85.1272809 44.0104702,84.9779157 L44.0104702,84.9779157 L44.0104702,84.9779157 Z M43.8610086,85.4260093 L47.4480875,87.5171113 C47.2986259,88.4132986 47.2986259,89.3094849 47.1491643,90.3550364 L43.263162,91.8486806 C43.263162,89.6082144 43.5620853,87.5171113 43.8610086,85.4260093 L43.8610086,85.4260093 L43.8610086,85.4260093 Z M43.263162,91.9980448 L43.263162,91.9980448 L47.1491643,90.5044007 L47.1491643,91.9980448 L47.1491643,93.49169 L43.263162,91.9980448 C43.263162,92.14741 43.263162,92.14741 43.263162,91.9980448 L43.263162,91.9980448 L43.263162,91.9980448 Z M43.263162,92.2967742 L47.1491643,93.7904184 C47.1491643,94.6866057 47.2986259,95.7321562 47.4480875,96.6283435 L43.8610086,98.7194455 C43.5620853,96.6283435 43.263162,94.5372405 43.263162,92.2967742 L43.263162,92.2967742 L43.263162,92.2967742 Z M43.8610086,99.018174 L47.4480875,96.927072 C47.5975492,97.9726235 47.7470108,98.8688098 47.8964723,99.9143613 L43.8610086,99.018174 L43.8610086,99.018174 Z M44.0104702,99.3169034 L48.045934,100.063725 C48.1953956,100.959912 48.4943189,102.005463 48.7932421,102.90165 L45.6545481,105.59021 C44.9072399,103.499107 44.3093934,101.408005 44.0104702,99.3169034 L44.0104702,99.3169034 L44.0104702,99.3169034 Z M45.6545481,105.739575 L48.7932421,103.051015 C49.0921654,103.947201 49.3910887,104.992753 49.8394735,105.888939 L45.6545481,105.739575 L45.6545481,105.739575 Z M45.8040097,106.038303 L49.9889351,106.038303 C50.2878584,106.93449 50.7362433,107.830677 51.1846282,108.577499 L48.4943189,111.714152 C47.4480875,110.071144 46.5513178,108.129406 45.8040097,106.038303 L45.8040097,106.038303 L45.8040097,106.038303 Z M48.6437805,112.012882 L51.3340898,108.876228 C51.7824746,109.772415 52.2308595,110.668602 52.828706,111.415424 L48.6437805,112.012882 C48.6437805,112.162246 48.6437805,112.162246 48.6437805,112.012882 L48.6437805,112.012882 L48.6437805,112.012882 Z M48.7932421,112.31161 L52.9781677,111.564788 C53.4265525,112.31161 54.024399,113.207797 54.6222455,113.95462 L52.5297828,117.539366 C51.1846282,116.045722 49.9889351,114.253348 48.7932421,112.31161 L48.7932421,112.31161 L48.7932421,112.31161 Z M52.6792444,117.838095 L54.7717072,114.253348 C55.3695536,115.00017 55.9674001,115.746992 56.7147083,116.493815 L52.6792444,117.838095 L52.6792444,117.838095 Z M57.4620164,122.617757 C55.8179385,121.273477 54.3233223,119.630469 52.9781677,117.987459 L56.8641699,116.643179 C57.4620164,117.390002 58.2093245,117.987459 58.9566327,118.734282 L57.4620164,122.617757 L57.4620164,122.617757 Z M57.611478,122.767121 L58.9566327,118.883646 C59.7039408,119.630469 60.4512489,120.227926 61.198557,120.825384 L57.611478,122.767121 L57.611478,122.767121 Z M57.9104013,123.065851 L61.4974803,120.974749 C62.2447884,121.572207 62.9920965,122.169664 63.8888663,122.617757 L63.1415581,126.799962 C61.198557,125.605046 59.5544791,124.410131 57.9104013,123.065851 L57.9104013,123.065851 L57.9104013,123.065851 Z M65.0845593,133.820091 C64.9350976,134.11882 64.9350976,134.566913 64.9350976,134.865642 C64.1877896,134.566913 63.4404814,134.11882 62.6931733,133.820091 C62.9920965,133.670726 63.1415581,133.371998 63.2910198,133.073269 C64.0383279,131.878354 63.7394047,130.235344 62.6931733,129.339158 L63.4404814,128.891064 C64.9350976,129.637886 66.429714,130.384708 68.0737918,130.982166 L68.2232535,131.728988 C66.8780988,131.579624 65.5329442,132.475811 65.0845593,133.820091 L65.0845593,133.820091 L65.0845593,133.820091 Z M63.589943,126.949326 L66.7286371,124.260766 C67.6254069,124.708859 68.5221766,125.156953 69.4189464,125.455682 L69.4189464,129.637886 C67.4759453,129.040428 65.5329442,127.994878 63.589943,126.949326 L63.589943,126.949326 L63.589943,126.949326 Z M70.3157161,136.956745 L70.3157161,136.956745 C70.3157161,136.80738 70.3157161,136.658015 70.4651778,136.658015 L70.3157161,136.956745 L70.3157161,136.956745 Z M70.9135627,134.417549 C70.764101,133.521362 70.3157161,132.77454 69.5684081,132.177082 L70.1662546,131.579624 C70.6146394,131.728988 71.0630243,131.878354 71.5114092,132.027718 L70.9135627,134.417549 L70.9135627,134.417549 Z M71.9597941,130.534074 C71.3619475,130.384708 70.6146394,130.08598 70.016793,129.936616 L72.7071021,126.799962 L72.8565638,126.799962 L71.9597941,130.534074 L71.9597941,130.534074 Z M71.5114092,125.455682 L76.8920277,110.817966 L73.0060254,126.05314 C72.5576405,125.903775 72.1092557,125.754411 71.5114092,125.455682 L71.5114092,125.455682 L71.5114092,125.455682 Z M74.6501033,133.969456 L74.7995649,133.073269 L75.0984882,133.073269 L75.3974114,133.820091 C75.0984882,133.820091 74.9490265,133.969456 74.6501033,133.969456 L74.6501033,133.969456 L74.6501033,133.969456 Z M75.2479498,131.43026 L75.8457963,129.040428 L76.2941811,131.579624 C75.8457963,131.579624 75.5468731,131.43026 75.2479498,131.43026 L75.2479498,131.43026 L75.2479498,131.43026 Z M76.4436428,131.579624 L75.8457963,128.442971 L75.9952579,127.546784 C76.8920277,127.696148 77.6393358,127.845513 78.5361055,127.994878 L76.4436428,131.579624 C76.4436428,131.728988 76.4436428,131.579624 76.4436428,131.579624 L76.4436428,131.579624 L76.4436428,131.579624 Z M76.742566,131.728988 L78.8350288,128.144242 C79.7317985,128.293606 80.7780299,128.293606 81.8242613,128.442971 L83.3188776,132.326446 C80.9274916,132.326446 78.8350288,132.027718 76.742566,131.728988 L76.742566,131.728988 L76.742566,131.728988 Z M83.4683391,132.326446 L81.9737229,128.442971 L83.4683391,128.442971 L84.8134938,128.442971 L83.4683391,132.326446 L83.4683391,132.326446 Z M83.7672624,132.326446 L85.2618786,128.442971 C86.3081101,128.442971 87.2048798,128.293606 88.2511112,128.144242 L90.343574,131.728988 C88.1016496,132.027718 85.8597252,132.326446 83.7672624,132.326446 L83.7672624,132.326446 L83.7672624,132.326446 Z M90.4930356,131.728988 L88.4005728,128.144242 C89.2973425,127.994878 90.0446507,127.845513 90.9414204,127.696148 L91.090882,128.592336 L90.4930356,131.728988 L90.4930356,131.728988 Z M91.090882,129.189793 L91.5392669,131.579624 C91.2403437,131.579624 90.9414204,131.728988 90.6424972,131.728988 L91.090882,129.189793 L91.090882,129.189793 Z M91.5392669,133.820091 L91.8381902,133.073269 L91.9876518,133.073269 L92.1371135,133.969456 C91.9876518,133.820091 91.6887286,133.820091 91.5392669,133.820091 L91.5392669,133.820091 L91.5392669,133.820091 Z M89.8951891,109.921779 L95.5747307,125.455682 C94.9768843,125.605046 94.5284995,125.903775 93.930653,126.05314 L89.8951891,109.921779 L89.8951891,109.921779 Z M97.218809,125.754411 L97.218809,129.936616 L94.5284995,126.799962 C95.4252692,126.351869 96.3220387,126.05314 97.218809,125.754411 L97.218809,125.754411 L97.218809,125.754411 Z M94.9768843,130.683438 L94.0801146,126.799962 C94.2295762,126.799962 94.2295762,126.799962 94.3790379,126.650597 L97.0693466,129.787251 C96.3220387,130.235344 95.7241921,130.384708 94.9768843,130.683438 L94.9768843,130.683438 L94.9768843,130.683438 Z M96.471501,136.956745 L96.3220387,136.359287 C96.471501,136.508651 96.471501,136.658015 96.6209624,136.80738 C96.6209624,136.80738 96.6209624,136.80738 96.471501,136.956745 L96.471501,136.956745 L96.471501,136.956745 Z M96.0231159,134.716278 L95.4252692,132.177082 C95.8736545,132.027718 96.3220387,131.878354 96.7704238,131.728988 L97.3682704,132.177082 C96.471501,132.77454 96.0231159,133.670726 96.0231159,134.716278 L96.0231159,134.716278 L96.0231159,134.716278 Z M95.8736545,125.306317 L88.8489577,106.038303 L86.9059566,98.2713519 L101.104811,122.767121 C99.4607329,123.812673 97.6671932,124.708859 95.8736545,125.306317 L95.8736545,125.306317 L95.8736545,125.306317 Z M97.5177318,125.605046 C98.4145021,125.156953 99.3112715,124.858224 100.208041,124.410131 L103.346735,127.098691 C101.403734,128.144242 99.4607329,129.040428 97.3682704,129.936616 L97.5177318,125.605046 L97.5177318,125.605046 Z M103.645659,132.923904 C103.79512,133.222633 103.944582,133.371998 104.243505,133.521362 C103.496196,133.820091 102.898351,134.268184 102.151042,134.566913 C102.151042,134.268184 102.151042,133.969456 102.001581,133.670726 C101.553195,132.326446 100.208041,131.579624 98.8628863,131.728988 L99.0123477,130.982166 C100.656426,130.384708 102.151042,129.637886 103.645659,128.7417 L104.243505,129.040428 C103.197274,130.235344 102.898351,131.728988 103.645659,132.923904 L103.645659,132.923904 L103.645659,132.923904 Z M103.79512,126.799962 L103.047812,122.767121 C103.944582,122.169664 104.69189,121.721571 105.439199,121.124113 L109.026277,123.215215 C107.531661,124.410131 105.738121,125.754411 103.79512,126.799962 L103.79512,126.799962 L103.79512,126.799962 Z M109.325201,122.916487 L105.738121,120.825384 C106.485429,120.227926 107.232737,119.630469 107.980045,119.033011 L109.325201,122.916487 L109.325201,122.916487 Z M109.474662,122.767121 L108.129508,118.883646 C108.876816,118.136824 109.624124,117.539366 110.22197,116.792544 L114.107972,118.136824 C112.762818,119.779833 111.118739,121.273477 109.474662,122.767121 L109.474662,122.767121 L109.474662,122.767121 Z M114.257434,117.987459 L110.371432,116.643179 C110.969278,115.896357 111.567125,115.149535 112.164971,114.402712 L114.257434,117.987459 L114.257434,117.987459 Z M114.406895,117.838095 L112.463894,114.103984 C113.061741,113.357162 113.659587,112.460974 114.257434,111.714152 L118.44236,112.460974 C117.097205,114.253348 115.901512,116.045722 114.406895,117.838095 L114.406895,117.838095 L114.406895,117.838095 Z M118.292898,112.162246 L114.257434,111.415424 C114.705819,110.668602 115.303665,109.772415 115.752051,108.876228 L118.292898,112.162246 L118.292898,112.162246 Z M118.44236,112.012882 L115.752051,108.876228 C116.200435,107.980041 116.64882,107.083855 117.097205,106.187668 L121.28213,106.187668 C120.534822,108.129406 119.48859,110.071144 118.44236,112.012882 L118.44236,112.012882 L118.44236,112.012882 Z M117.246667,105.888939 C117.545589,104.992753 117.993974,104.096565 118.292898,103.200379 L121.431592,105.888939 L117.246667,105.888939 L117.246667,105.888939 Z M121.431592,105.59021 L118.292898,102.90165 C118.591821,102.005463 118.890744,100.959912 119.040206,99.9143613 L123.07567,99.1675392 C122.776747,101.408005 122.1789,103.648473 121.431592,105.59021 L121.431592,105.59021 L121.431592,105.59021 Z M119.040206,99.764997 C119.189668,98.8688098 119.339129,97.8232592 119.48859,96.927072 L123.07567,99.018174 L119.040206,99.764997 L119.040206,99.764997 Z M123.225131,98.8688098 L119.638053,96.7777077 C119.787514,95.7321562 119.787514,94.8359699 119.936976,93.7904184 L123.822978,92.2967742 C123.822978,94.5372405 123.524055,96.7777077 123.225131,98.8688098 L123.225131,98.8688098 L123.225131,98.8688098 Z M123.822978,92.14741 L119.936976,93.6410542 L119.936976,92.14741 L119.936976,90.6537649 L123.822978,92.14741 C123.822978,91.9980448 123.822978,91.9980448 123.822978,92.14741 L123.822978,92.14741 L123.822978,92.14741 Z" id="Shape" fill="#006D5B"></path>
                    <g id="Group" transform="translate(156.405612, 0.000000)" fill="#FA8D3E">
                        <path d="M22.277809,48.4576579 L7.14691374,48.4576579 L7.14691374,63.5787154 L22.277809,63.5787154 L22.277809,48.4576579 L22.277809,48.4576579 Z M14.7115379,62.2619802 C11.2610943,62.2619802 8.46285858,59.4655639 8.46285858,56.0173637 C8.46285858,52.5691635 11.2610943,49.7727472 14.7115379,49.7727472 C18.1619815,49.7727472 20.9602171,52.5691635 20.9602171,56.0173637 C20.9602171,59.4672098 18.1619815,62.2619802 14.7115379,62.2619802 L14.7115379,62.2619802 L14.7115379,62.2619802 Z" id="Shape"></path>
                        <path d="M25.832013,43.7421 L25.832013,36.5444964 L25.825425,36.532975 L25.825425,31.3598517 L24.7664105,32.9629767 L24.7664105,34.7372773 L20.9042195,28.1898117 L20.9042195,19.2327207 L14.7115379,0.378718919 L8.51885623,19.2327207 L8.51885623,28.1898117 L4.6500772,34.7487988 L4.6500772,32.9629767 L3.59106276,31.3598517 L3.59106276,36.5444964 L3.59106276,43.7421 L0.188381848,43.7421 L0.188381848,68.2959192 L2.19112144,68.2959192 L2.19112144,148.513072 L27.2319543,148.513072 L27.2319543,68.2942733 L29.2346939,68.2942733 L29.2346939,43.7421 L25.832013,43.7421 L25.832013,43.7421 Z M21.5218406,38.522891 L22.271221,38.522891 L22.271221,42.8302609 L21.5218406,42.8302609 L21.5218406,38.522891 L21.5218406,38.522891 Z M18.6478435,38.522891 L19.3972239,38.522891 L19.3972239,42.8302609 L18.6478435,42.8302609 L18.6478435,38.522891 L18.6478435,38.522891 Z M17.429071,21.3559561 L18.1784514,21.3559561 L18.1784514,25.663326 L17.429071,25.663326 L17.429071,21.3559561 L17.429071,21.3559561 Z M15.3670398,21.3559561 L16.1164202,21.3559561 L16.1164202,25.663326 L15.3670398,25.663326 L15.3670398,21.3559561 L15.3670398,21.3559561 Z M16.5232266,38.522891 L16.5232266,42.8302609 L15.7738463,42.8302609 L15.7738463,38.522891 L16.5232266,38.522891 L16.5232266,38.522891 Z M13.3066555,21.3559561 L14.0560359,21.3559561 L14.0560359,25.663326 L13.3066555,25.663326 L13.3066555,21.3559561 L13.3066555,21.3559561 Z M12.8998491,38.522891 L13.6492294,38.522891 L13.6492294,42.8302609 L12.8998491,42.8302609 L12.8998491,38.522891 L12.8998491,38.522891 Z M11.2446243,21.3559561 L11.9940047,21.3559561 L11.9940047,25.663326 L11.2446243,25.663326 L11.2446243,21.3559561 L11.2446243,21.3559561 Z M10.0258519,38.522891 L10.7752323,38.522891 L10.7752323,42.8302609 L10.0258519,42.8302609 L10.0258519,38.522891 L10.0258519,38.522891 Z M7.1518547,38.522891 L7.90123506,38.522891 L7.90123506,42.8302609 L7.1518547,42.8302609 L7.1518547,38.522891 L7.1518547,38.522891 Z M7.90123506,144.39992 L7.1518547,144.39992 L7.1518547,133.72449 L7.90123506,133.72449 L7.90123506,144.39992 L7.90123506,144.39992 Z M7.90123506,129.04185 L7.1518547,129.04185 L7.1518547,118.36642 L7.90123506,118.36642 L7.90123506,129.04185 L7.90123506,129.04185 Z M7.90123506,113.68378 L7.1518547,113.68378 L7.1518547,103.00835 L7.90123506,103.00835 L7.90123506,113.68378 L7.90123506,113.68378 Z M7.90123506,98.3257106 L7.1518547,98.3257106 L7.1518547,87.6502803 L7.90123506,87.6502803 L7.90123506,98.3257106 L7.90123506,98.3257106 Z M7.90123506,82.9676409 L7.1518547,82.9676409 L7.1518547,72.2922104 L7.90123506,72.2922104 L7.90123506,82.9676409 L7.90123506,82.9676409 Z M10.7752323,144.39992 L10.0258519,144.39992 L10.0258519,133.72449 L10.7752323,133.72449 L10.7752323,144.39992 L10.7752323,144.39992 Z M10.7752323,129.04185 L10.0258519,129.04185 L10.0258519,118.36642 L10.7752323,118.36642 L10.7752323,129.04185 L10.7752323,129.04185 Z M10.7752323,113.68378 L10.0258519,113.68378 L10.0258519,103.00835 L10.7752323,103.00835 L10.7752323,113.68378 L10.7752323,113.68378 Z M10.7752323,98.3257106 L10.0258519,98.3257106 L10.0258519,87.6502803 L10.7752323,87.6502803 L10.7752323,98.3257106 L10.7752323,98.3257106 Z M10.7752323,82.9676409 L10.0258519,82.9676409 L10.0258519,72.2922104 L10.7752323,72.2922104 L10.7752323,82.9676409 L10.7752323,82.9676409 Z M13.6492294,144.39992 L12.8998491,144.39992 L12.8998491,133.72449 L13.6492294,133.72449 L13.6492294,144.39992 L13.6492294,144.39992 Z M13.6492294,129.04185 L12.8998491,129.04185 L12.8998491,118.36642 L13.6492294,118.36642 L13.6492294,129.04185 L13.6492294,129.04185 Z M13.6492294,113.68378 L12.8998491,113.68378 L12.8998491,103.00835 L13.6492294,103.00835 L13.6492294,113.68378 L13.6492294,113.68378 Z M13.6492294,98.3257106 L12.8998491,98.3257106 L12.8998491,87.6502803 L13.6492294,87.6502803 L13.6492294,98.3257106 L13.6492294,98.3257106 Z M13.6492294,82.9676409 L12.8998491,82.9676409 L12.8998491,72.2922104 L13.6492294,72.2922104 L13.6492294,82.9676409 L13.6492294,82.9676409 Z M16.5232266,144.39992 L15.7738463,144.39992 L15.7738463,133.72449 L16.5232266,133.72449 L16.5232266,144.39992 L16.5232266,144.39992 Z M16.5232266,129.04185 L15.7738463,129.04185 L15.7738463,118.36642 L16.5232266,118.36642 L16.5232266,129.04185 L16.5232266,129.04185 Z M16.5232266,113.68378 L15.7738463,113.68378 L15.7738463,103.00835 L16.5232266,103.00835 L16.5232266,113.68378 L16.5232266,113.68378 Z M16.5232266,98.3257106 L15.7738463,98.3257106 L15.7738463,87.6502803 L16.5232266,87.6502803 L16.5232266,98.3257106 L16.5232266,98.3257106 Z M16.5232266,82.9676409 L15.7738463,82.9676409 L15.7738463,72.2922104 L16.5232266,72.2922104 L16.5232266,82.9676409 L16.5232266,82.9676409 Z M19.3972239,144.39992 L18.6478435,144.39992 L18.6478435,133.72449 L19.3972239,133.72449 L19.3972239,144.39992 L19.3972239,144.39992 Z M19.3972239,129.04185 L18.6478435,129.04185 L18.6478435,118.36642 L19.3972239,118.36642 L19.3972239,129.04185 L19.3972239,129.04185 Z M19.3972239,113.68378 L18.6478435,113.68378 L18.6478435,103.00835 L19.3972239,103.00835 L19.3972239,113.68378 L19.3972239,113.68378 Z M19.3972239,98.3257106 L18.6478435,98.3257106 L18.6478435,87.6502803 L19.3972239,87.6502803 L19.3972239,98.3257106 L19.3972239,98.3257106 Z M19.3972239,82.9676409 L18.6478435,82.9676409 L18.6478435,72.2922104 L19.3972239,72.2922104 L19.3972239,82.9676409 L19.3972239,82.9676409 Z M22.271221,144.39992 L21.5218406,144.39992 L21.5218406,133.72449 L22.271221,133.72449 L22.271221,144.39992 L22.271221,144.39992 Z M22.271221,129.04185 L21.5218406,129.04185 L21.5218406,118.36642 L22.271221,118.36642 L22.271221,129.04185 L22.271221,129.04185 Z M22.271221,113.68378 L21.5218406,113.68378 L21.5218406,103.00835 L22.271221,103.00835 L22.271221,113.68378 L22.271221,113.68378 Z M22.271221,98.3257106 L21.5218406,98.3257106 L21.5218406,87.6502803 L22.271221,87.6502803 L22.271221,98.3257106 L22.271221,98.3257106 Z M22.271221,82.9676409 L21.5218406,82.9676409 L21.5218406,72.2922104 L22.271221,72.2922104 L22.271221,82.9676409 L22.271221,82.9676409 Z M23.0667171,64.3671106 L6.35635863,64.3671106 L6.35635863,47.6692627 L23.0667171,47.6692627 L23.0667171,64.3671106 L23.0667171,64.3671106 Z" id="Shape"></path>
                        <path d="M15.0870515,55.8610014 L15.0870515,50.8886802 C15.0870515,50.6812944 14.9190585,50.5134107 14.7115379,50.5134107 C14.5040172,50.5134107 14.3360242,50.6812944 14.3360242,50.8886802 L14.3360242,56.0190096 L14.3360242,56.0206555 C14.3360242,56.0700331 14.3459061,56.1177647 14.36567,56.1638505 C14.3854339,56.2099362 14.4134327,56.2510842 14.4480195,56.2856485 C14.4480195,56.2856485 14.4480195,56.2856485 14.4480195,56.2872944 L18.1059839,59.8852733 C18.1800984,59.9576937 18.2739767,59.992258 18.3695022,59.992258 C18.4666746,59.992258 18.563847,59.9544019 18.6363146,59.8803355 C18.7812496,59.7338487 18.7796027,59.4951905 18.6313736,59.3503496 L15.0870515,55.8610014 L15.0870515,55.8610014 Z" id="Shape"></path>
                    </g>
                </g>
            </g>
        </g>
    </g>
</svg>