<?xml version="1.0" encoding="UTF-8" standalone="no"?>
<!-- Created with Inkscape (http://www.inkscape.org/) -->

<svg
   xmlns:dc="http://purl.org/dc/elements/1.1/"
   xmlns:cc="http://creativecommons.org/ns#"
   xmlns:rdf="http://www.w3.org/1999/02/22-rdf-syntax-ns#"
   xmlns:svg="http://www.w3.org/2000/svg"
   xmlns="http://www.w3.org/2000/svg"
   xmlns:xlink="http://www.w3.org/1999/xlink"
   xmlns:sodipodi="http://sodipodi.sourceforge.net/DTD/sodipodi-0.dtd"
   xmlns:inkscape="http://www.inkscape.org/namespaces/inkscape"
   width="715.75214"
   height="637.27478"
   id="svg3019"
   version="1.1"
   inkscape:version="0.48.4 r9939"
   sodipodi:docname="New document 2">
  <defs
     id="defs3021">
    <clipPath
       id="a">
      <rect
         height="80.132004"
         width="90"
         y="10.368"
         x="5.5"
         id="use10" />
    </clipPath>
    <clipPath
       id="a-1">
      <use
         height="1052.3622"
         width="744.09448"
         y="0"
         x="0"
         style="overflow:visible"
         xlink:href="#b"
         overflow="visible"
         id="use10-7" />
    </clipPath>
  </defs>
  <sodipodi:namedview
     id="base"
     pagecolor="#ffffff"
     bordercolor="#666666"
     borderopacity="1.0"
     inkscape:pageopacity="0.0"
     inkscape:pageshadow="2"
     inkscape:zoom="0.35"
     inkscape:cx="-85.477075"
     inkscape:cy="122.92312"
     inkscape:document-units="px"
     inkscape:current-layer="layer1"
     showgrid="false"
     fit-margin-top="0"
     fit-margin-left="0"
     fit-margin-right="0"
     fit-margin-bottom="0"
     inkscape:window-width="1280"
     inkscape:window-height="971"
     inkscape:window-x="-8"
     inkscape:window-y="-8"
     inkscape:window-maximized="1" />
  <metadata
     id="metadata3024">
    <rdf:RDF>
      <cc:Work
         rdf:about="">
        <dc:format>image/svg+xml</dc:format>
        <dc:type
           rdf:resource="http://purl.org/dc/dcmitype/StillImage" />
        <dc:title></dc:title>
      </cc:Work>
    </rdf:RDF>
  </metadata>
  <g
     inkscape:label="Layer 1"
     inkscape:groupmode="layer"
     id="layer1"
     transform="translate(-14.76279,-18.010498)">
    <g
       transform="matrix(7.9528182,0,0,7.9528182,-28.979201,-64.444774)"
       id="g4"
       style="fill:#006d5b;fill-opacity:1">
      <defs
         id="defs6">
        <rect
           id="b"
           x="5.5"
           y="10.368"
           width="90"
           height="80.132004" />
      </defs>
      <clipPath
         id="clipPath3014">
        <use
           height="1052.3622"
           width="744.09448"
           y="0"
           x="0"
           style="overflow:visible"
           xlink:href="#b"
           overflow="visible"
           id="use3016" />
      </clipPath>
      <path
         style="fill:#006d5b;fill-opacity:1"
         inkscape:connector-curvature="0"
         clip-path="url(#a-1)"
         d="m 17.148,21.3 31.383,54.358 -5.765,3.331 c -1.51,0.871 -2.937,1.139 -4.231,0.793 -2.144,-0.577 -3.431,-2.66 -3.563,-2.888 L 9.295,32.425 c -2.612,-4.524 0.912,-7.102 2.085,-7.8 l 0.004,0.004 5.764,-3.329 z M 42.1,24.575 44.57,23.15 39.761,14.82 C 39.435,14.264 37.652,11.47 34.474,10.619 32.42,10.065 30.266,10.43 28.073,11.697 L 9.958,22.158 9.969,22.185 9.95,22.158 C 7.213,23.773 3.476,28.05 6.823,33.85 l 25.685,44.485 c 0.326,0.553 2.119,3.354 5.287,4.201 2.054,0.551 4.208,0.185 6.398,-1.074 L 52.492,76.67 33.04,42.983 C 30.645,38.832 31.039,35.276 32.419,32.531 l -8.681,-15.036 5.76,-3.327 c 1.515,-0.875 2.942,-1.141 4.236,-0.796 2.151,0.573 3.431,2.66 3.563,2.884 l 4.803,8.319 z m 35.821,25.839 c -2.974,0.225 -5.536,0.511 -7.69,0.859 -2.142,0.354 -3.491,0.688 -4.032,1.001 -0.574,0.333 -0.357,1.502 0.658,3.5 0.816,1.604 1.468,2.997 1.953,4.182 0.276,0.118 0.794,0.225 1.543,0.326 0.749,0.103 1.77,0.196 3.072,0.282 0.235,0.24 0.463,0.498 0.69,0.765 0.224,0.268 0.443,0.554 0.667,0.836 -0.918,0.131 -1.755,0.275 -2.526,0.443 -0.758,0.173 -1.468,0.361 -2.115,0.589 0.059,0.161 0.113,0.337 0.157,0.538 0.043,0.196 0.071,0.411 0.079,0.647 -0.138,-0.103 -0.287,-0.221 -0.429,-0.354 -0.148,-0.126 -0.303,-0.283 -0.459,-0.46 -0.529,0.483 -1.071,1.009 -1.605,1.594 -0.529,0.597 -1.067,1.239 -1.596,1.938 -0.225,-0.53 -0.455,-1.157 -0.695,-1.896 -0.015,-0.043 -0.023,-0.082 -0.023,-0.105 0.581,-1.173 1.021,-2.115 1.304,-2.81 0.29,-0.698 0.445,-1.185 0.463,-1.468 -0.707,-0.969 -1.542,-2.181 -2.496,-3.629 -1.303,-2.001 -2.252,-2.833 -2.84,-2.492 -0.534,0.312 -1.483,1.295 -2.833,2.959 -1.365,1.667 -2.912,3.76 -4.636,6.267 L 54.34,63.592 c -0.422,-0.737 -0.587,-1.495 -0.491,-2.287 0.096,-0.789 0.482,-1.771 1.158,-2.943 l -0.725,-1.263 c -0.199,-0.346 -0.299,-0.645 -0.299,-0.883 0,-0.247 0.096,-0.424 0.295,-0.537 0.203,-0.118 0.41,-0.114 0.614,0.007 0.214,0.122 0.418,0.361 0.62,0.706 l 0.196,0.346 1.188,-2.695 -0.726,-1.264 c -0.198,-0.349 -0.298,-0.64 -0.294,-0.879 0,-0.236 0.1,-0.408 0.298,-0.525 0.2,-0.121 0.406,-0.121 0.61,0 0.21,0.121 0.414,0.349 0.613,0.694 l 0.21,0.365 1.802,-4.188 c -1.373,-2.369 -2.265,-4.139 -2.679,-5.301 -0.399,-1.152 -0.392,-1.862 0.05,-2.118 0.448,-0.263 1.067,0.063 1.848,0.966 0.781,0.905 1.872,2.577 3.284,5.01 l 4.52,0.534 -0.204,-0.361 c -0.204,-0.345 -0.306,-0.639 -0.298,-0.883 0,-0.231 0.103,-0.408 0.298,-0.525 0.197,-0.118 0.404,-0.118 0.608,0.003 0.208,0.118 0.42,0.347 0.616,0.695 l 0.726,1.259 2.931,0.326 -0.203,-0.354 c -0.2,-0.345 -0.299,-0.64 -0.299,-0.887 0,-0.243 0.099,-0.42 0.299,-0.538 0.195,-0.117 0.403,-0.104 0.615,0.013 0.208,0.126 0.412,0.36 0.62,0.707 l 0.727,1.259 c 1.353,0 2.393,0.152 3.127,0.467 0.732,0.31 1.313,0.836 1.733,1.565 l 0.193,0.331 z M 94.165,66.995 68.48,22.519 c -0.871,-1.527 -2.797,-3.547 -5.336,-4.226 -2.016,-0.542 -4.154,-0.173 -6.35,1.095 l -18.15,10.476 c -0.302,0.176 -7.361,4.37 -3.135,11.691 l 25.685,44.478 c 0.875,1.526 2.799,3.547 5.332,4.227 2.021,0.541 4.159,0.172 6.35,-1.096 L 91.034,78.685 c 1.521,-0.879 3.547,-2.805 4.229,-5.336 0.534,-2.023 0.165,-4.161 -1.098,-6.354"
         id="path12" />
    </g>
  </g>
</svg>
