<?xml version="1.0" encoding="UTF-8" standalone="no"?>
<!-- Created with Inkscape (http://www.inkscape.org/) -->

<svg
   xmlns:sketch="http://www.bohemiancoding.com/sketch/ns"
   xmlns:dc="http://purl.org/dc/elements/1.1/"
   xmlns:cc="http://creativecommons.org/ns#"
   xmlns:rdf="http://www.w3.org/1999/02/22-rdf-syntax-ns#"
   xmlns:svg="http://www.w3.org/2000/svg"
   xmlns="http://www.w3.org/2000/svg"
   xmlns:sodipodi="http://sodipodi.sourceforge.net/DTD/sodipodi-0.dtd"
   xmlns:inkscape="http://www.inkscape.org/namespaces/inkscape"
   width="117.24543"
   height="189.68932"
   id="svg3066"
   version="1.1"
   inkscape:version="0.48.4 r9939"
   sodipodi:docname="drawing.svg">
  <defs
     id="defs3068" />
  <sodipodi:namedview
     id="base"
     pagecolor="#ffffff"
     bordercolor="#666666"
     borderopacity="1.0"
     inkscape:pageopacity="0.0"
     inkscape:pageshadow="2"
     inkscape:zoom="0.35"
     inkscape:cx="-177.80585"
     inkscape:cy="-48.012483"
     inkscape:document-units="px"
     inkscape:current-layer="layer1"
     showgrid="false"
     inkscape:window-width="1280"
     inkscape:window-height="971"
     inkscape:window-x="-8"
     inkscape:window-y="-8"
     inkscape:window-maximized="1"
     fit-margin-top="0"
     fit-margin-left="0"
     fit-margin-right="0"
     fit-margin-bottom="0" />
  <metadata
     id="metadata3071">
    <rdf:RDF>
      <cc:Work
         rdf:about="">
        <dc:format>image/svg+xml</dc:format>
        <dc:type
           rdf:resource="http://purl.org/dc/dcmitype/StillImage" />
        <dc:title></dc:title>
      </cc:Work>
    </rdf:RDF>
  </metadata>
  <g
     inkscape:label="Icon"
     inkscape:groupmode="layer"
     id="layer1"
     transform="translate(-224.23443,-294.66038)">
    <g
       id="g13"
       transform="translate(223.89066,294.65975)"
       sketch:type="MSShapeGroup">
      <g
         style="fill:#006d5b"
         id="uk">
        <path
           inkscape:connector-curvature="0"
           d="m 52.998943,93.325045 c 0,0.0064 0.0086,0.02792 0.01935,0.04724 0.02365,0.0451 -0.06881,0.122401 -0.0473,0.169643 -0.0043,-0.01074 -0.262317,-0.178232 -0.275218,-0.156758 -0.01075,0.01933 0.0064,0.296338 0.01935,0.317812 0.0022,0.0021 -0.0516,0.17179 -0.01505,0.167496 -0.490233,0.05368 -0.307471,1.859629 -0.283819,1.844597 -0.09461,0.03865 0.111807,0.732256 0.139759,0.83533 0.279519,0.09878 0.356924,0.49175 0.518185,0.560465 0.28382,0.0816 1.313739,0.742993 1.595408,0.530403 0.464432,-0.115958 0.625693,0.700045 0.924563,0.609855 0.04085,-0.02362 0.318222,-0.178232 0.309621,-0.156758 0.04515,-0.0451 0.498834,1.043625 0.812755,0.886867 0.0258,-0.01503 0.03655,-0.13958 0.0172,-0.188969 -0.02795,-0.06657 -0.04085,-0.04724 -0.0172,0.02362 0.0129,0.03006 0.0172,0.05798 0.0129,0.06442 0.05375,-0.05368 -0.0344,-0.328549 0.156961,-0.425181 0.02365,-0.01503 0.0258,-0.02362 0.0086,-0.05154 0.07095,-0.07301 0.161261,-0.120253 0.270919,-0.137432 0.0301,-0.0408 0.03655,-0.0816 0.02365,-0.126695 0.13761,-0.09234 0.535387,-0.02147 0.546137,-0.03651 0.0301,-0.02792 0.352624,0.210443 0.399927,0.100927 0.0043,-0.01718 0.0065,-0.0408 0,-0.05368 0.0602,0.135284 0.225766,0.03436 0.109658,-0.13099 -0.01935,-0.0021 -0.04085,0 -0.05805,0.0043 -0.01075,-0.02147 0.06235,-0.07945 0.126859,-0.100927 0.09891,-0.01718 0.492383,0.0064 0.516034,-0.05798 0.0344,-0.0451 0.215015,0.126696 0.268769,0.146022 0.0086,0 0.04515,-0.03006 0.08385,-0.06657 0.08386,-0.07731 0.313922,0.07301 0.374126,0.141727 0.0172,0.09019 0.03225,0.182527 0.043,0.274865 0.0559,0.03436 -0.04945,-0.03865 0.05805,0.115958 0.04515,0.01933 0.07956,0.04724 0.105358,0.08804 0.0043,0.02577 0,0.04724 -0.01075,0.04939 0.09891,-0.05798 0.187062,0.343581 0.363374,0.225475 0.02795,-0.01718 -0.247266,-1.440891 -0.298869,-1.53967 -0.0086,-0.0086 0,-0.01288 0.01935,-0.0043 -0.0065,-0.0021 0.227915,-0.195412 0.227915,-0.246948 0.0022,-0.01074 0.0022,-0.03221 0.0043,-0.04509 0.0129,-0.13099 0.341874,-0.315665 0.427879,-0.390823 -0.01075,-0.03221 -0.02795,-0.05583 -0.05375,-0.07516 0.01505,-0.02577 0.01505,-0.03651 -0.0022,-0.0408 0.0731,0.02362 0.242966,-0.23836 0.0172,-0.169643 0.01075,-0.02577 0.0301,-0.04509 0.0559,-0.05798 l 0.043,0.03865 c -0.02365,-0.02147 -0.178461,-0.173938 -0.184912,-0.184674 -0.0043,-0.0086 -0.0021,-0.01288 0.0086,-0.0043 -0.0215,-0.01074 0.02365,-0.21259 -0.0516,-0.242654 0.02365,0.01288 0.0301,-0.01074 0.01075,-0.03221 -0.08171,-0.04724 -0.0344,-0.386528 -0.0215,-0.178232 0,0.01288 0.230066,0.395118 0.13546,0.395118 0.148359,0 -0.275219,-0.710782 0.04515,-0.410149 -0.07095,-0.06872 -0.0559,-0.07731 0.04515,-0.02577 0,-0.294191 0.0645,-0.455244 0.371975,-0.554024 -0.0301,0.0064 -0.251567,0.09234 -0.264468,0.07945 -0.0129,-0.01074 0.365525,-0.210444 0.348324,-0.246949 0.03225,0.0021 0.0602,0.0064 0.09031,0.01288 -0.0086,0.03006 -0.0065,0.03651 0.01075,0.03006 0.02795,-0.0086 0.101056,-0.148168 0.0731,-0.17179 -0.0301,-0.02147 -0.03225,-0.02147 -0.01075,0.0043 0.01075,0.01718 0.0172,0.03436 0.01075,0.03865 -0.277368,0.274864 -0.02795,-0.777351 0.0516,-0.607708 -0.02365,-0.04939 0.384876,-0.395118 -0.08386,-0.644213 -0.04945,0.0021 -0.101056,0.01074 -0.14836,0.02147 0.311771,0.208296 -0.915962,0.916931 -0.898761,1.037184 0.0043,0.0408 -0.0043,0.06013 -0.04085,0.09878 -0.0645,0.05798 -0.462281,0.03865 -0.354774,0.18038 0.07956,0.07945 -0.45153,0.448802 -0.546137,0.423033 -0.320371,-0.05798 0.245117,-0.444507 -0.09891,-0.558318 -0.0516,0.03221 -0.107508,0.06227 -0.161261,0.09234 0.0129,0.01718 0.08385,-0.682866 -0.221466,-0.425181 -0.03655,0.02792 -0.144059,0.19756 -0.131158,0.18038 -0.05375,0.210443 -0.06235,0.420886 -0.02365,0.633477 -0.13546,0.399412 -0.292421,-0.448802 -0.199964,-0.627034 -0.03225,0.04724 -0.06665,0.09234 -0.109658,0.133137 0.04515,-0.124548 0.410678,-0.58194 0.58054,-0.427328 -0.01935,-0.01718 -0.163411,-0.120253 -0.189213,-0.111664 -0.06665,0.03006 -0.507435,0.09019 -0.507435,0.01718 0.043,-0.03436 0.0645,-0.0773 0.07095,-0.13099 -0.0301,0 -0.393477,0.199706 -0.44508,0.22977 0.0258,-0.02362 0.04515,-0.04939 0.06235,-0.07945 -0.04085,0.0086 -0.0817,0.01933 -0.122558,0.03006 -0.105357,0.05583 -0.111808,0.03221 -0.0172,-0.07516 0.09031,-0.05154 0.163411,-0.120253 0.223615,-0.204001 -0.217165,-0.02792 -0.430029,-0.03651 -0.642894,-0.100927 -0.0387,-0.05798 -0.09031,-0.09449 -0.15481,-0.111664 l 0,0.03865 c -0.518185,-0.01288 -4.065926,-0.139579 -4.065926,-0.504634 0,0.0064 0,-0.0043 0,0 l 0,0 0,0 z"
           id="Shape" />
        <path
           inkscape:connector-curvature="0"
           d="m 60.905029,99.410714 c -0.0387,0.0451 -0.367675,0.188969 -0.262318,0.313518 -0.07095,-0.09019 0.116109,0.124548 0.09891,0.111663 0.04515,0.02577 -0.184913,0.04295 -0.169862,0.03436 -0.0645,0.03221 -0.07095,0.04295 -0.0473,0.06013 0.0172,0.03436 0.03655,0.06442 0.0559,0.09663 0.043,0.0129 0.126859,0.0107 0.161261,-0.006 0.0258,-0.015 0.03225,-0.0107 0.03225,0.0451 0.0086,0.13529 -0.356924,0.14603 -0.167711,0.38439 0.02365,0.0301 0.043,0.0365 0.07525,0.0279 0.04515,0.0365 0.05805,0.0816 0.04515,0.13529 l 0.04515,-0.0279 c 0.0258,-0.0172 0.161261,0.0344 0.182763,0.0129 -0.0129,0.015 -0.337574,0.44236 -0.397778,0.38439 0.103208,0.10307 0.672996,-0.40371 0.567639,-0.44666 -0.0129,-0.004 0.277369,-0.45739 0.09676,-0.0386 0.07741,-0.015 0.129008,-0.0601 0.15051,-0.13529 0.107507,0.10737 0.550437,-0.006 0.7418,0.22333 0.0022,-0.0558 -0.0043,-0.11166 -0.0215,-0.16535 -0.01075,-0.0129 -0.0021,-0.0129 0.01935,0.009 0.0258,0.0387 0.0344,0.0773 0.0258,0.1224 0.01075,0.0322 0.141911,0.11381 0.12686,0.0923 -0.0086,-0.0172 -0.0022,-0.0172 0.0172,0.002 0.043,0.0322 -0.221465,-0.20184 -0.406377,-0.29634 0.0065,0.002 -0.180612,-0.0752 -0.178462,-0.0623 -0.206414,-0.712965 -0.242967,-0.822481 -0.283819,-0.83966 -0.04515,-0.01718 -0.466582,-0.07086 -0.507435,-0.03651 -0.01075,0.01288 0.0086,-0.0086 0,0 l 0,0 0,0 z"
           id="path17" />
        <path
           inkscape:connector-curvature="0"
           d="m 61.737136,103.14715 c -0.01935,0.015 -0.668696,0.42518 -0.636443,0.22333 -0.0301,0.11811 -0.07095,0.21688 -0.05806,0.34143 0.06021,-0.004 0.113958,0.0172 0.156961,0.0601 0.08601,0.17394 0.0129,0.28775 0.0258,0.45524 0.0065,0.0687 0.0086,0.0773 0.0473,0.0816 l 0.04515,0.004 c -0.113958,0.20185 -0.232215,1.17461 0.275219,0.89116 0.09246,-0.0494 0.129009,-0.22977 0.131159,-0.32855 0.619241,0.23621 0.404227,-0.58409 0.531086,-1.04577 -0.0172,-0.23192 -0.217165,-0.91264 -0.518185,-0.68287 -0.0344,0.0258 0.0645,-0.0494 0,0 l 0,0 0,0 z"
           id="path19" />
        <path
           inkscape:connector-curvature="0"
           d="m 82.75266,97.368558 c -0.309621,-0.324254 -1.111625,-0.412297 -1.32664,-0.702193 -0.262317,-0.657098 -0.799854,-0.182527 -1.223433,-0.631329 -0.769752,-0.768761 -2.870444,-2.806623 -1.006267,-3.233951 0.043,0.04295 0.133308,0.234064 0.210714,0.148169 -0.06235,-0.0816 -0.129009,-0.161053 -0.195664,-0.238359 0.0065,-0.01503 0.01505,-0.04724 0.01935,-0.07086 0.01075,-0.04295 0.0065,-0.0451 -0.0387,-0.03865 l -0.04515,0.0064 0.0602,-0.05583 c -0.124708,0.120253 -0.06235,-0.536844 0.0473,-0.435918 -0.571939,-0.571202 -1.898578,-0.375791 -2.259803,-0.0064 -0.0129,0.01288 0.0043,0.292043 0.0086,0.296338 -0.01075,-0.0043 -0.503134,-0.206148 -0.492383,-0.216885 -0.0344,0.03006 -0.14836,0.556171 -0.225765,0.498192 -0.03225,-0.01933 -0.350474,-0.455244 -0.305321,-0.463834 -0.451531,0.08375 -1.03637,0.588382 -0.836406,0.944846 -0.331123,0.277013 -0.262319,0.472424 -0.219315,0.916931 0.0645,0.06872 0.133309,0.135285 0.199963,0.197559 l 0.326822,0 c -0.07525,0.09663 -0.116107,0.214738 -0.113958,0.334991 0.43433,-0.100927 0.823506,-0.811709 1.272887,-0.341433 0.354774,0.362906 0.546137,0.86754 0.808455,1.12952 l 0.0065,0.05798 c 0.0473,0.579792 1.483601,1.020004 1.780321,1.346405 0.135459,0.163201 0.408528,0.0086 0.485933,0.395118 0.163411,0.143875 0.292419,0.201853 0.483783,0.100927 0.14621,0.118106 0.0645,0.30278 0.141909,0.380086 0.191363,0.223327 0.632143,0.01503 0.632143,0.403707 0,-0.02362 0.182762,1.196089 0.107507,0.985646 -0.0731,-0.204 0.189213,1.430159 0.301021,0.438066 0.0129,-0.418739 0.468732,-0.579793 0.640743,-0.846068 0.369825,-0.491749 -1.092274,-0.622739 -0.249417,-1.322784 -0.02795,0.01503 0.629993,0.17179 0.606341,0.141727 0.103208,0.128842 0.109658,0.403707 0.352624,0.375791 0.133309,-0.01288 0.101057,-0.43377 0.04515,-0.493897 -0.0387,-0.0408 0.0645,0.06872 0,0 l 0,0 0,0 z"
           id="path21" />
        <path
           inkscape:connector-curvature="0"
           d="M 50.982106,0.08160036 C 50.807945,0.44665461 51.566946,1.1853526 51.151968,1.4709539 50.758491,1.7093128 48.945918,0.9727622 48.315926,1.0629521 47.565525,1.170321 46.739869,2.0936935 46.049672,1.9863246 45.157361,1.8768083 44.342456,1.6577758 43.447996,1.8660714 42.981414,1.9755877 41.256997,2.6520118 40.923724,2.3019891 L 40.723761,2.0936935 C 40.323834,2.4308318 39.285313,3.0900769 39.098251,3.3456148 39.39067,2.920434 39.23586,1.9455244 38.887536,1.6384494 38.35215,1.1746157 38.05328,1.2132685 37.498542,1.8274186 37.122267,2.2418626 36.844898,3.5689421 36.455722,3.8008589 36.118149,3.9790913 36.008491,3.9082278 36.236407,3.6634268 36.552478,3.3241411 36.625583,2.4823689 36.395517,1.8768083 36.115999,1.1617315 35.875182,1.750113 35.303243,1.5418174 34.445335,1.2283002 34.167966,-0.00858951 33.069242,0.18037975 32.508054,0.27056962 32.30594,1.2175633 32.054373,1.6491863 c -0.533236,0.9384041 -0.89231,1.9219032 0.178462,2.5983273 1.283637,0.8288878 -0.408527,0.6570976 -1.001968,0.4273282 -0.511734,0.562613 -1.210532,1.3936482 -0.556887,2.1216094 0.30317,0.3586121 0.961115,1.0930154 0.260167,1.3528481 -0.430029,0.1610533 -1.533054,0.48316 -1.969533,0.2040009 -2.610277,-1.6749548 0.122558,2.4952528 0.182762,2.8087708 0.09031,0.375791 -0.01935,0.811708 -0.247267,1.020004 -0.169861,0.158906 -0.197813,0.150317 -0.567638,-0.178232 -0.954665,-0.852509 -1.32234,-0.685014 -1.163229,0.554023 0.0387,0.317812 -0.167711,1.183205 0,1.447333 0.258018,0.345728 3.031706,0.412296 2.433965,1.526786 -0.380576,0.702192 -2.380211,0.04509 -3.177916,0.65495 -0.249416,-0.365054 -0.668695,-0.702193 -1.122376,-0.66354 -0.694497,0.05154 -0.825656,1.133816 -1.072922,1.685692 -0.430029,-0.474571 -1.130977,-0.822446 -1.717967,-0.397265 -0.425729,0.337138 -0.371975,2.196767 0,2.570411 0.333273,0.35217 1.103025,0.0859 1.300838,0.536845 0.253718,0.538992 -1.18903,0.717224 -1.455648,1.131668 -0.393477,0.61415 0.89446,1.421564 1.300838,1.814534 0.208564,0.199706 1.849125,1.85963 0.251567,1.333522 -0.632143,-0.208296 -1.638411,-1.816682 -2.193149,-0.867541 -0.677296,1.142405 0.305321,3.034245 0.178462,4.32482 0.371976,0.05798 1.365343,0.05583 1.61906,0.296338 0.356924,0.373643 -1.294388,1.140257 -0.526785,1.885397 0.543986,0.58194 0.640743,1.084426 0.974015,1.863924 0.184913,0.457392 1.558856,1.795209 1.558856,2.07222 0,0.420886 -1.221283,-0.579792 -1.227733,-0.584087 -0.722449,-0.440212 -1.578207,0.01074 -2.345809,0.01074 -0.578389,0.01074 -0.606341,0.167496 -0.118258,0.80312 0.651494,0.871835 1.462099,0.83533 2.347959,1.26051 0.565488,0.27057 -0.03655,0.773057 -0.393477,0.773057 -0.283819,0 -0.726749,-0.414444 -0.907361,-0.556171 -0.417128,-0.324254 -1.193331,-1.290575 -1.76742,-1.350701 -0.569789,-0.06013 -0.131159,0.764466 0.07526,0.936257 -0.29242,0.742992 -0.621392,1.470954 -1.023469,2.162409 0.288119,0.629182 0.756851,0.603413 1.270736,0.951289 0.522485,0.337138 -0.477333,0.315664 -0.632143,0.356464 -0.371975,0.09234 -0.335423,1.084426 -0.402077,1.389354 0.05805,0.21259 0.210714,0.332844 0.455831,0.358612 0.189212,0.158906 0.197813,0.186822 0.07095,0.296338 -0.137609,0.128843 -1.277186,-0.0365 -1.565306,-0.01074 -0.879409,0.07086 -1.969533,-0.287748 -2.80594,0.07301 -0.946064,0.371497 0.07956,1.505312 0.707398,1.595502 0.539687,0.08375 1.315889,0.118106 1.816873,0.347875 0.0258,0.01288 -0.326822,1.041479 -0.326822,1.307753 0.0086,0.904047 0.187063,1.329227 0.645044,1.518197 0.662245,0.25339 0.827806,-0.07731 1.380393,0.425181 0.313922,0.285601 0.851458,0.631329 1.300839,0.405854 1.395444,-0.813856 2.756487,-2.271926 4.007871,-3.304815 0.58054,-0.478865 1.047121,-1.077983 1.756669,-1.251921 0.670846,-0.165348 1.02132,-1.878956 1.563156,-1.878956 -0.509584,0 -0.88801,2.497401 -1.234183,2.733612 -1.070773,0.730109 -1.866327,2.046451 -2.423214,3.17812 -0.249417,0.508928 -0.361225,1.475248 -0.769753,1.773734 -0.767602,0.592676 -1.414796,1.672807 -1.823323,2.548937 -0.354774,0.760172 -1.47285,3.334878 -0.174162,3.30052 0.320372,1.713608 0.528936,2.471632 -0.647194,3.729996 -0.855758,0.91693 -1.023469,5.074254 0.391326,5.473666 -1.816873,2.136641 -1.502951,4.442925 -2.492018,6.920999 -0.184913,0.44236 -1.216983,3.171677 -0.694498,3.362794 1.120226,0.414444 2.309257,-0.06013 3.375729,-0.416591 0.234366,-1.397943 -0.210714,-2.055041 0.29242,-3.358499 0.348324,-0.899752 0.634293,-1.878956 1.118076,-2.720728 0.382726,-0.667835 -0.0086,-1.397943 0.236516,-2.132347 0.204264,-0.599118 0.999818,-0.824592 1.225583,-1.565438 0.07955,-0.259833 0.488083,-1.906872 0.361225,-1.906872 -1.212683,-0.0451 -1.115926,-2.409358 -1.16968,-3.163087 0.763302,-0.135285 4.141181,-4.479431 4.409949,-4.22604 0.417128,0.672129 -2.285605,2.422242 -2.575874,2.770118 -0.608492,0.725813 -1.436298,3.459425 -0.860059,4.273281 0.249417,0.31996 1.066473,-1.069394 1.76957,-0.822445 1.154629,0.403707 2.487719,2.825949 3.018805,0.111664 0.169861,-0.869688 0.283819,-1.750114 0.399927,-2.628391 0.04945,-0.386528 0.279519,-2.497401 0.393477,-2.216094 l 0.120408,0.298485 c 0.324672,-0.693603 0.915962,-0.977056 1.608309,-1.241184 0.974016,-0.375791 0.866509,0.128843 -0.208564,0.953436 l -0.574089,0.446654 c -0.0043,0.788088 -0.122558,1.634155 0.307471,2.329906 0.165561,0.257685 2.182398,1.715754 2.135095,1.87466 0.0645,-0.231916 -2.836043,-0.551876 -3.337027,-0.534697 0.0172,0.880425 -0.184912,1.616976 -0.0602,2.518874 0.182763,1.266954 -0.984767,3.165236 0.169862,4.045661 0.718148,0.530402 1.838374,0.674276 2.304956,1.507459 0.28812,0.543287 0.311771,2.050746 -0.04085,2.587591 -0.29242,0.487454 -0.759001,0.307074 -1.087974,0.661392 -0.30317,0.324254 -0.490233,0.816004 -0.657944,1.213268 -0.513885,1.211122 -0.840707,2.497401 -1.462099,3.663427 -0.43218,0.811709 -1.189031,1.348553 -1.631961,2.123757 -0.199964,0.347875 -0.728899,3.588268 -0.713848,3.588268 -0.417129,0 -0.651494,-1.569733 -1.298688,-0.923372 -0.58914,0.588381 0.221465,3.042834 0.552587,3.729995 0.331122,0.691456 1.077223,1.142405 1.253535,1.911167 0.163411,0.712929 -0.04515,1.784471 1.092274,1.747966 1.32449,-0.03436 -0.105357,-1.795209 -0.346173,-2.235421 -0.399928,-0.730108 0.290269,-1.767292 0.971865,-2.097988 0.683747,-0.337139 1.004119,-0.287749 1.201932,0.178232 0.253717,0.618445 1.597558,1.234743 2.079191,1.735082 0.526786,0.545433 1.554555,2.102282 2.446866,2.102282 0.759001,0 0.677296,-1.881102 0.657944,-2.241862 -0.0258,-0.481013 -0.01935,-1.082278 -0.251567,-1.526786 -0.232215,-0.463834 0.09891,-1.090868 0.06236,-1.288426 0.043,0.317811 0.135459,0.657097 0.217164,0.972762 2.145846,-0.214738 3.177916,3.835216 4.459403,1.011415 2.350109,1.954114 2.304956,-1.546113 4.100328,-1.000679 0.238666,0.07945 0.636443,0.13958 0.89231,0.14817 1.543805,0.02362 0.204264,-1.915462 1.163229,-2.409358 1.094424,-0.609856 3.016655,0.663539 4.199235,0.446654 0.08601,-0.0021 0.172011,-0.0021 0.260167,-0.0043 -0.09891,0.285602 -0.791253,0.58194 -0.965415,0.931962 -0.412828,0.820299 -0.08386,0.292044 -1.001968,0.749435 -0.707398,0.365055 -0.900911,1.232595 -1.072923,1.94123 -0.238666,0.983499 -0.59129,0.962025 -1.135277,1.668512 -1.010568,1.305607 -0.582689,3.26831 -1.543804,4.661958 0.604191,1.224006 1.763119,2.078662 2.390962,3.283341 0.328972,0.672129 0.264468,1.473101 -0.122559,2.102283 0.414979,0.416592 0.825656,0.837478 1.232034,1.260511 0.283819,-0.0408 1.236334,-0.536845 1.352442,-0.388676 0.376275,0.596972 -1.61476,3.669864 0.477332,3.669864 1.075073,0 1.440598,-4.137992 2.900547,-2.458743 0.425728,-0.115958 2.117893,-0.846066 2.055539,-1.030741 0.0602,0.219033 -0.516035,0.702193 -0.675146,0.833183 0.247267,0.418738 0.868659,1.198237 0.73535,1.705011 -0.307471,1.24119 -1.735168,0.3307 -1.76742,1.95412 -0.0065,0.31566 0.488083,1.09301 0.29887,1.23045 -0.45583,0.35861 -1.954482,-0.009 -2.023287,0.79023 -0.0602,0.80741 -0.907361,3.55391 0.346174,3.85884 0.44078,0.1181 0.88156,0.23836 1.318039,0.36935 -0.709548,0.78164 -1.819023,1.64918 -2.132944,2.67563 -0.230066,0.76661 -0.369825,1.68784 -0.04085,2.45231 0.236516,0.54972 0.778353,0.96846 -0.13761,1.21756 -0.672995,0.17823 -1.300838,0.33499 -1.578207,1.03074 0.311772,0.4531 1.255686,1.4366 1.130977,1.99491 -0.15051,0.82674 -2.81024,-1.20897 -3.09836,-1.49028 -0.993367,0.34358 -2.006086,0.77521 -3.033856,0.99639 -0.503134,0.10737 -1.04282,0.10092 -1.556705,0.0773 -0.268768,-0.0129 -1.522303,-0.59267 -1.627661,-0.50678 -0.881559,1.10161 -1.173979,1.37432 -2.646829,1.43874 -1.367493,0.0558 -3.10051,0.33285 -3.795007,1.71576 -0.430029,0.83748 0.174162,1.73508 -0.240816,2.6198 -0.666546,1.50746 -2.906998,1.83386 -4.182034,2.5833 -0.634293,0.37364 -1.221283,0.88042 -1.352442,1.64059 -0.03655,0.204 -0.763302,2.02928 -0.958965,1.75441 0.09031,0.0451 0.178462,0.0859 0.268768,0.13099 1.006269,0.2856 1.453499,-1.3464 2.373761,-0.7344 0.653645,0.43377 1.425547,1.56544 1.586808,0.17823 0.129009,-1.06081 0.14836,-1.12093 0.556888,-1.52679 0.488083,-0.4853 1.133127,-0.71292 2.255503,-0.7709 1.932981,-0.11811 1.709365,0.74084 1.866326,2.25689 0.07956,0.77735 0.954665,1.13167 0.954665,1.90902 0,0.92767 -1.064322,1.52034 -1.051421,2.35997 0.01075,0.65065 0.700947,1.12522 0.845007,1.74581 0.105357,0.45095 -0.266618,1.12094 -0.393477,1.53753 -0.460131,1.51605 -0.705248,3.44439 -1.793221,4.68128 -0.249417,0.2856 -0.339723,0.33714 -0.488083,0.25983 -1.681414,-1.0608 -4.440051,3.70853 -5.609731,1.87252 -0.0172,-0.0279 -1.649162,1.69643 -1.997485,1.87681 -0.771903,0.37149 -1.604009,0.62274 -2.412464,0.89975 l -0.178462,-0.22977 c -0.367675,-0.46384 -0.963265,-0.59053 -1.242784,-0.2856 -0.423579,0.46813 -0.167712,1.20682 -0.778353,1.56544 -0.546137,0.31995 -2.554373,0.59482 -2.459767,1.52678 0.08171,0.63992 2.05984,0.48531 2.584476,1.00283 1.055721,1.11234 -1.109476,1.88539 -1.948033,1.88539 -2.425364,0 1.498652,1.43231 1.75882,1.67925 0.509584,0.48102 0.524635,1.32708 1.008418,1.73723 0.690197,0.58409 1.634111,0.22333 2.296356,-0.15461 0.679446,-0.39512 1.339541,-0.42733 1.999635,-0.71722 0.423579,-0.18468 0.399927,-1.20039 0.59129,-1.59336 0.311772,-0.59482 1.786772,-0.11381 2.294206,0.0129 0.776203,0.18252 1.780321,-1.1467 2.06414,-0.71508 0.221465,0.32211 -0.0258,0.83533 -0.247267,1.11878 0.313921,0.50679 0.976166,1.30776 1.657762,1.1918 0.629993,-0.11811 -0.503133,1.03503 -0.526785,1.11878 -0.07956,0.22762 0.387026,0.9019 0.765452,1.12093 0.724599,0.43807 1.380393,-0.25553 2.055539,-0.0301 1.152478,0.4123 2.135095,-1.10375 3.188666,-1.34855 0.178462,-0.0408 0.316072,0.009 0.516035,0.19756 0.866509,0.80526 0.507435,2.2118 1.279337,3.01921 0.397777,0.41659 0.905211,-0.0322 1.320189,0.16535 0.475183,0.22332 0.567639,1.21971 1.212683,1.52678 1.124526,0.56262 3.659548,0.67213 4.814176,0.23621 0.931013,-0.37793 1.281487,-1.40009 1.752369,-2.18388 0.339723,-0.56476 2.016837,-0.97491 2.595226,-1.27339 0.993367,-0.51108 1.881377,-0.91049 2.980102,-1.09731 0.761152,-1.32708 1.48145,-3.00633 2.732835,-3.93829 0.58269,-0.42304 0.576239,-0.1675 -0.04085,0.83318 -0.533236,0.85036 -1.354592,1.40224 -1.892128,2.17744 -0.414978,0.59697 -0.554738,2.39218 -1.171829,2.71858 -0.984767,0.51537 -1.449198,0.75802 -2.242602,1.63845 -0.485933,0.53899 -0.976167,1.07583 -1.726567,1.1875 -0.107508,1.08228 -0.07526,3.23395 -1.199782,3.80515 -0.59344,0.31352 -1.513702,0.10737 -2.171647,0.23621 -0.756851,0.14603 -1.500802,0.45095 -2.285605,0.40371 -1.072923,-0.0623 -1.300838,-1.02215 -2.440415,-1.08872 -1.46425,-0.088 -3.09621,-0.52396 -4.551859,-0.27057 -1.010569,0.17394 -3.822959,0.0537 -4.551859,0.76017 -1.120226,1.18321 0.546137,2.84098 -0.44723,3.88676 -1.545955,1.65133 -3.779956,-1.38291 -4.637864,0.5669 -0.666546,1.53538 0.236516,3.43151 -0.466582,4.9583 -0.380576,0.87398 -1.109475,1.17032 -1.872777,1.62127 -0.761152,0.4488 -0.870809,1.47954 -1.533054,2.02927 -0.599891,0.50678 -1.416946,-0.0773 -2.06414,0.36506 -1.229883,0.81815 -0.516035,2.55752 -1.520153,3.41433 -0.350474,0.28775 -0.905211,0.27486 -1.33309,0.1589 -0.58269,2.37071 -2.608127,3.23825 -4.457252,4.58036 -0.152661,0.11596 -0.888011,-0.66783 -1.094425,-0.73225 -0.608491,-0.22118 -2.231851,0.59267 -2.421064,1.28627 -0.268768,0.91908 -0.320371,1.85749 -0.178462,2.80019 0.649344,-0.11382 1.608309,-0.0107 2.173797,-0.32855 0.09891,-0.0515 0.307471,-0.36076 0.485933,-0.6979 0.7375,-1.38721 2.085642,-0.17609 3.128462,0.35002 0.253718,1.08657 0.408528,2.9505 1.786772,2.17959 1.496501,-0.80312 1.522303,-1.2691 1.232033,-3.07505 0.649344,-0.51966 1.285787,-1.07583 1.988885,-1.52249 0.565488,-0.35861 1.930831,-0.2405 2.221101,-0.62918 0.434329,-0.56905 -0.275219,-1.26266 0.14836,-1.8446 0.367675,-0.49175 1.363192,0.12885 1.948032,0.12885 0.690197,0 1.199781,-0.19327 1.821173,-0.4896 2.115744,-1.00498 2.747886,-1.4366 4.287391,0.57979 l 0.513885,-0.31781 c 0.989067,-0.61201 0.528936,0.42518 1.294387,0.65924 0.87081,0.23621 1.487901,0.0752 2.195299,-0.39941 0.574089,-0.38438 0.546137,1.50531 0.746101,1.77803 0.288119,0.39726 0.991217,0.71293 1.737318,0.77949 0.606341,0.058 0.666545,0.0387 1.128826,-0.26842 1.272886,-0.87828 0.774053,-2.05074 2.36516,-2.58759 0.597741,-0.22547 0.617092,-0.76232 0.06021,-1.32922 l -0.417129,-0.41445 c 0.593441,-0.86754 0.455831,-1.967 0.965416,-2.85172 0.481632,-0.83533 0.956815,-1.05006 0.851457,-2.11516 l 0.346174,0.14816 c 1.515853,0.61416 2.754337,-1.17031 4.222886,-1.21541 0.842858,-0.0279 0.928863,0.26413 1.696465,-0.21474 0.750401,-0.46813 1.756669,-0.18038 2.541473,0.0215 1.657762,0.41014 2.472667,1.42371 3.84016,2.48881 0.384876,0.29848 0.492383,1.23903 1.047121,1.23903 0.933163,0 0.344023,-1.46666 0.771903,-1.89398 0.511734,-0.52826 4.063775,0.70219 4.700218,1.20038 0.468732,-0.16964 1.872777,-0.43162 1.756669,-1.08228 -0.08601,-0.42303 0.13546,-0.46383 -0.043,-0.89331 -0.307471,-0.69575 -1.502952,0.0344 -1.597558,-0.74084 -0.04085,-0.32855 0.225765,-0.66569 0.455831,-0.58624 0.212864,0.0601 0.528936,0.37579 0.705248,0.55617 2.186698,-0.6936 4.257288,-0.59482 6.523542,-0.51537 0.670845,-0.55187 1.543804,-0.73011 2.227551,-1.27339 0.270918,-0.21689 0.371975,-0.78165 0.604191,-1.07584 0.356924,-0.4488 1.18473,0.74514 1.350291,1.02215 0.490234,0.87184 1.674964,-0.0129 2.470518,-0.0215 1.341691,-0.0279 1.803972,-0.0558 3.029555,0.61415 4.801276,-1.83386 8.862901,-2.45231 13.666327,-0.42733 2.309256,0.97491 2.9758,-2.71643 5.1324,-2.14093 0.7289,0.22118 1.75237,-0.93197 2.31141,-1.28199 0.97831,-0.61415 2.17164,-1.12093 3.35853,-0.7795 -0.16772,-0.0429 1.29438,-2.6971 1.79752,-3.00633 1.15248,-0.70434 2.47266,-1.38076 3.71545,-1.91331 1.46425,-0.59482 0.64719,-2.00565 0.27737,-3.06431 -0.30962,-0.87828 1.02347,-2.07437 0.54613,-2.40936 -0.66009,-0.45309 -1.63841,-0.0258 -2.38881,0.0344 -0.95896,0.0752 -2.07919,-0.0322 -2.99085,0.34358 -1.54595,0.63992 -2.77369,0.67213 -4.07453,-0.50678 -0.40422,0.28346 -1.17183,0.62274 -1.62981,0.27701 -0.15696,-0.10951 -0.15696,-0.13743 -0.0215,-0.33499 0.22362,-0.31996 1.87493,-0.30278 1.61046,-0.95558 -0.0473,-0.14602 -1.29224,-0.68931 -1.98673,-0.87828 -0.99337,-0.25124 -1.59971,1.00927 -2.48127,1.00927 -0.44078,0 0.7547,-1.29702 0.7547,-1.29702 0.62139,-0.54114 1.19763,0.006 1.73947,-0.51752 0.33327,-0.32854 0.49453,-1.0608 1.08152,-1.0608 1.13313,0 1.44705,0.95558 2.49202,-0.0773 0.77405,-0.76018 1.05357,-1.34856 1.05357,-2.27193 0.0108,-0.97062 -0.11181,-1.08872 -0.90736,-0.94055 -0.31392,0.058 -0.83211,0.17823 -1.14818,0.27701 -0.66654,0.19971 -0.88371,0.11166 -0.59559,-0.24695 0.66225,-0.76447 1.49865,-0.19541 1.89858,-1.39794 0.59344,-1.64489 1.79107,0.0494 2.84894,0.0494 1.72442,0 2.59738,-2.52747 1.68787,-3.81804 -0.68805,-0.96632 -0.7117,0.408 -1.26214,0.70219 -0.33757,0.18038 -1.55025,0.28131 -1.60831,0.13314 0.0129,0.0322 1.50295,-0.53685 1.70722,-0.82459 0.12256,-0.17609 0.50743,-0.55403 0.33972,-0.79453 -0.0538,-0.0795 -0.49883,-0.49175 -0.30962,-0.61201 0.54399,-0.30492 0.85146,1.10376 1.30944,1.03719 0.44723,0 0.89446,-0.0193 1.33954,-0.0387 0.26017,-0.50678 0.56549,-0.9792 0.94607,-1.40438 0.45368,-0.50464 1.97383,-1.20897 2.20819,-1.75656 0.43218,-0.93196 0.0387,-2.38144 0.19997,-3.395 0.16986,-1.0651 0.89876,-1.99491 1.07937,-3.08793 0.38273,-2.32346 0.0237,-4.71564 -0.22361,-7.03481 -1.77172,-1.83601 -3.77781,-3.47016 -6.12362,-4.51594 -1.29869,-0.57764 -3.44883,0.18038 -4.34544,-0.95128 -1.61476,0.25768 -3.38003,0.73655 -5.01199,0.45954 -1.01917,-0.17394 -1.10733,-0.3758 -1.3761,0.78379 -0.25586,1.11234 -0.27737,2.23542 -1.367493,2.85601 -0.838557,0.48101 -1.264285,0.16535 -1.866326,-0.51966 -0.352625,-0.40157 -2.34366,-1.68999 -2.324308,-1.79092 0.45153,-1.99062 2.683382,-2.63913 3.932617,-4.00701 -0.842858,-2.39218 -0.956816,-6.55594 -3.367129,-7.9818 -1.204081,-0.71078 -3.141363,-1.38721 -3.870262,-2.69066 -0.395627,-0.68502 -0.989067,-1.40224 -1.483601,-2.01854 -0.320371,-0.40156 -1.419096,-0.21903 -1.057871,-0.38009 1.130976,-0.49389 1.92653,0.85251 2.67048,1.58692 0.473033,0 3.919717,-0.16965 3.919717,0.35431 0,-3.42077 -4.667967,-5.49299 -4.844279,-8.97603 -0.0172,-0.36076 -0.129009,-1.04578 0.326822,-1.217565 0.258018,-0.09663 1.752369,-0.738697 0.617092,-0.962025 C 90.043832,98.678422 88.872002,97.27189 88.156003,95.927631 87.715224,95.098744 87.332498,93.288503 86.6165,92.646438 85.425318,91.574896 84.206186,90.40887 82.711834,89.781836 81.258336,89.17198 79.596273,89.30297 78.159976,88.751094 c -0.464432,-0.182527 -0.812755,-1.417269 -1.103025,-1.917608 -0.578389,-0.996384 -1.02777,-2.057188 -1.414796,-3.139467 -0.920262,-2.551085 -1.4879,-5.222423 -2.479118,-7.74774 -0.389176,-0.989941 -0.395627,-1.614828 -0.393476,-2.688516 0.0022,-0.45954 -0.307471,-0.796678 -0.326823,-1.232595 -0.02795,-0.569056 0.28382,-1.01571 0.176313,-1.619123 -0.0645,-0.369349 -0.470882,-2.748644 -0.924563,-2.871045 -0.640743,-0.201853 -1.857726,-1.002826 -1.905029,-1.765145 -0.0387,-0.448801 -0.73535,-0.199706 -1.038521,-0.395117 -0.498834,-0.317812 -0.698797,-1.054363 -0.997667,-1.53108 -0.359075,-0.569056 -0.87726,-1.011416 -1.189031,-1.610534 -0.391326,-0.749435 -0.621392,-1.881103 -1.492201,-2.246157 -0.793404,-0.347876 -1.219133,0.390822 -1.90718,0.148169 -0.59129,-0.216885 -0.59774,-1.118784 -1.380393,-1.385059 -0.793404,-0.27057 -1.821174,-0.163201 -2.115744,-1.193942 l -0.118258,-0.386528 c -0.842857,0 -2.285605,-0.264128 -2.997303,0.223327 -0.365525,0.251243 -0.109657,0.717224 -0.408528,0.992089 -0.505284,0.461686 -1.429847,1.054362 -2.126494,1.131668 -0.602041,0.0773 -0.999817,-0.543287 -1.369643,-0.942699 -0.950364,0.03865 -1.681414,-0.03221 -2.573724,-0.36076 -0.997668,-0.365054 -2.492019,0.459539 -3.315525,-0.412296 -0.197813,-0.219033 -0.208564,-0.246949 -0.05805,-0.465981 0.08816,-0.13958 0.29672,-0.268422 0.477333,-0.309223 0.414978,-0.07945 1.219132,0.455245 1.649161,0.59053 0.817056,0.259832 1.195481,0.236211 2.027588,-0.0021 0.791253,-0.225475 1.563156,-0.208296 2.038338,-0.983499 0.460131,-0.749435 0.778353,-1.964851 1.653462,-2.370705 0.991217,-0.487455 1.711516,0.472423 2.762937,-0.118106 0.466582,-0.26198 2.257653,-0.977057 2.388812,-1.520344 0.268769,-0.940551 -1.599708,-1.732934 -2.341508,-1.756555 -0.09676,-0.551876 -0.189213,-1.103752 -0.281669,-1.653481 -0.0022,-0.0064 -0.57624,-1.352848 -0.57624,-0.747287 0,0.543286 -4.861479,1.762997 -4.844278,1.685691 0.135459,-0.689308 1.883528,-0.468128 2.261953,-1.060804 0.309621,-0.481013 1.085824,-1.357143 1.720117,-1.378617 0.898761,-0.06872 1.644861,0.429476 2.470517,0.02792 1.184731,-0.575497 2.730685,-1.110194 3.257471,-2.426537 0.215015,-0.517518 0.184913,-0.758024 -0.0387,-1.269101 -0.236516,-0.530402 0.101057,-0.418738 0.242966,-0.858951 0.371975,-1.157436 0.496684,-1.333521 1.558856,-2.168851 0.707398,-0.560466 1.554555,-1.737229 1.816873,-2.606917 0.135459,-0.448802 -0.03225,-0.882572 0.0645,-1.324932 0.111807,-0.504634 0.586989,-1.004973 0.799853,-1.477396 1.001969,-2.226831 0.404228,-4.279725 1.960933,-6.308997 0.802005,-1.032889 2.453317,-2.615506 2.302807,-4.075723 -0.135459,-1.565439 -1.363193,-2.68637 -2.401713,-3.738585 -1.77172,0.341433 -3.569242,-0.09448 -5.353863,-0.126695 -1.339541,-0.02147 -2.575875,-0.133138 -3.906815,-0.246949 -1.483601,-0.128843 -2.638229,0.592676 -4.044424,0.680719 -1.315889,0 -2.277004,-1.473101 -3.515489,-1.586912 -0.754701,-0.07301 -1.180429,0.493897 -1.509402,1.08872 -0.14836,0.298486 -0.324672,0.579792 -0.526786,0.84392 -0.468731,0.463833 -1.014868,-0.244801 -1.431997,-0.09663 -0.825656,0.292043 -1.240634,1.150994 -2.246902,1.239037 -0.524636,0.04509 -1.075073,0.02792 -1.601858,0.02792 -0.597741,0.61415 -1.17828,1.288426 -1.834075,1.84245 -0.331122,0.279159 -2.373761,0.315665 -2.35871,0.27057 0.08816,-0.272717 0.941764,-0.244802 1.154629,-0.296339 0.268768,-0.06442 0.191362,-0.734403 0.369824,-0.974909 0.670846,-0.901899 1.776021,-1.254069 2.238302,-2.338495 -0.672995,-0.06227 -1.434147,-0.216885 -2.100692,-0.0816 -0.406378,0.08375 -2.578025,1.634155 -2.550073,1.677102 -0.425729,-0.427328 1.425547,-2.128051 1.720117,-2.299842 0.703097,-0.420886 1.001967,0.266275 1.717966,-0.328549 0.492383,-0.410149 1.436297,-1.118783 1.877077,-0.246948 l 0.178462,0.347875 c 0.374126,-0.386528 2.571575,-2.514579 2.152296,-2.926876 -0.782653,-0.788088 -2.782288,1.335669 -3.472485,0.277012 -0.14836,-0.238359 -0.14836,-0.287749 -0.0215,-0.526108 0.187062,-0.322106 1.388994,-0.758024 1.133126,-1.12952 -0.619242,-0.904046 0.7375,-1.823124 1.388994,-2.143084 0.677296,-0.337138 0.797705,-1.022151 1.449199,-1.35929 1.619059,-0.758024 3.747704,-2.445863 4.71742,-4.0563968 0.45583,-0.7107821 1.431997,-0.5733499 2.006086,-1.3549955 0.677296,-0.9298146 1.872777,-2.1473779 2.07704,-3.2854882 0.14836,-0.9641727 -1.023469,-0.2877487 -1.001968,-0.9341094 0.03225,-0.5411393 1.885678,-2.82380201 0.862209,-3.21247742 -0.348324,-0.1460217 -4.263739,-0.12454792 -4.255139,-0.14387432 -0.03655,0.07945298 0.08171,-0.21688517 0,0 l 0,0 0,0 z M 88.162427,108.16343 c 0.221465,0.12884 0.221465,0.12884 -0.217165,0.55617 -0.694497,0.67857 -0.799854,-0.015 -1.48575,-0.2491 -0.43433,-0.14817 -1.361043,0.97706 -1.685715,0.38653 -0.464431,-0.84177 0.432179,-0.49175 0.806305,-0.4488 0.847158,0.0988 1.739468,-0.70434 2.582325,-0.2448 0.221465,0.12884 -0.326822,-0.17823 0,0 l 0,0 0,0 z"
           id="path23" />
        <path
           inkscape:connector-curvature="0"
           d="m 17.835459,1.846745 c -1.616909,1.1338156 -2.702733,2.7765597 -4.631414,3.3971519 -0.627842,0.2018535 -2.081341,0.5153707 -2.081341,1.4022378 0,0.3908228 -0.939614,0.8761302 -1.2513847,1.2304476 L 9.6133017,7.6790235 C 8.3662172,6.7019666 7.7534256,9.7748644 7.626567,10.496383 c 0.1827625,0.309223 0.7159986,0.940552 0.7159986,1.27769 -0.1634111,0.03006 -0.3311224,0.02792 -0.4966837,-0.0086 -1.3438411,-0.152464 -0.5547376,0.99853 0.1053572,1.331374 0.4601312,0.22977 2.7478859,0.584087 1.8856778,1.505312 -0.3698251,0.39297 -1.0406705,-0.504634 -1.799672,-0.214738 -1.3975948,0.534697 -0.3547741,0.616298 0.2687682,1.067247 0.1892129,0.148169 0.1892129,0.148169 -0.049453,0.347875 -0.1483601,0.124548 -1.3029884,0.457392 -1.3029884,0.564761 0,0.648508 1.2126822,1.720049 1.6771137,2.143083 0.561188,-0.541139 3.8380096,-1.784471 3.4574336,-2.748644 -0.294569,-0.775203 1.924381,-0.828888 2.227552,-0.908341 1.060021,-0.277012 0.509584,-1.870366 1.612609,-2.067925 l 0.318221,-0.05798 c -0.0129,-0.410149 -0.0301,-0.848214 -0.107507,-1.247627 -0.0344,-0.191116 -0.793404,-1.120931 -0.799854,-1.075836 0.06665,-0.371496 0.651494,-0.21259 0.651494,-0.7021925 0.0065,-0.4509493 0.253717,-0.8632459 0.509585,-1.2175633 0.384876,-0.5368445 2.851093,-2.5253164 2.171647,-3.1459086 0.08601,0.079453 0.417128,-4.2625453 -0.836407,-3.4916366 -0.09891,0.068716 0.240817,-0.1481691 0,0 l 0,0 0,0 z"
           id="path25" />
        <path
           inkscape:connector-curvature="0"
           d="m 18.562208,7.6188969 c -0.507434,0.4037071 -1.019169,0.3908228 -1.143877,1.1595841 -0.0774,0.4380651 0.219315,0.7150769 0.726749,0.7064874 0.675146,-0.021474 1.092274,-0.5948237 1.281487,-1.8166818 0.111808,-0.7107821 -0.561188,-0.2877486 -0.864359,-0.04939 -0.238666,0.1889693 0.238667,-0.1889692 0,0 l 0,0 0,0 z"
           id="path27" />
        <path
           inkscape:connector-curvature="0"
           d="m 5.7731414,18.368671 c -0.3612245,0.356465 -0.5009839,1.215416 -1.0922741,1.271248 -0.7030976,0.06657 -1.3889941,-0.397265 -2.0684402,0.03006 -0.3655248,0.219032 -0.4945335,0.427328 -0.5869898,0.951288 -0.1849125,1.170321 1.4922012,1.062952 1.8039723,1.936935 0.2343659,0.66354 -0.4063775,1.052215 -0.6557944,1.574028 -0.2451167,0.515371 0.1870626,0.850362 -0.1118076,1.346406 -0.58914,0.983499 -0.017201,2.306284 -0.5676385,3.313404 -0.3956268,0.766614 0.0043,2.042157 -0.010751,2.926876 0.6106414,0.375792 1.4663994,1.060805 2.0963921,0.386529 C 5.3517128,31.300181 4.4443513,29.754069 5.1151968,28.76198 5.7322886,27.838608 5.4097668,27.632459 4.8786807,26.857256 4.394898,26.150769 5.5581268,26.064873 5.8096939,25.747061 6.0698615,25.414218 6.0505102,24.312613 6.2074708,23.874548 6.5686953,22.867428 7.08043,21.922581 7.5147595,20.947672 7.921137,20.032889 7.3986516,20.234742 6.8310131,19.538992 6.534293,19.178232 6.6504009,17.492541 5.7731414,18.368671 c -0.1010568,0.100927 0.1075073,-0.107369 0,0 l 0,0 0,0 z"
           id="path29" />
        <path
           inkscape:connector-curvature="0"
           d="m 15.642311,19.639919 c -1.705066,0.895456 0.163411,2.961234 -1.012719,4.026333 -0.169862,0.137432 -0.219315,0.128843 -0.73535,-0.188969 -0.636443,-0.380086 -0.645044,-0.798825 -0.853608,-1.45807 -0.0688,-0.268422 -0.683746,-0.227622 -0.872959,0.06013 -0.273069,0.446655 0.677296,2.282663 -0.156961,2.697107 0.05805,-0.04509 -0.178462,-0.751583 -0.339723,-0.822446 -0.649344,-0.300633 -1.077223,0.427328 -1.520153,0.79453 -0.4171281,0.347875 -0.4364794,0.732256 -0.0301,0.822445 1.02562,0.214738 1.115926,1.883251 1.945882,2.437274 0.679446,0.45095 1.339541,-2.162409 1.739468,-0.949141 0.307471,0.921226 -0.331122,1.743671 0.247267,2.647717 0.359074,0.530403 0.550437,0.135285 1.03207,0.313518 0.417128,0.154611 -0.0022,1.108047 0.290269,1.451627 0.460132,0.554024 2.180248,0.397265 2.393113,-0.367202 0.122558,-0.43377 -0.152661,-0.612002 -0.251567,-1.004972 -0.161261,-0.650656 0.425728,-1.264806 0.683746,-1.80165 0.507434,-1.050068 -0.498834,-1.649187 -0.389176,-2.712139 0.105357,-1.020004 0.913811,-2.437274 0.395626,-3.437952 -0.333272,-0.642066 -1.259985,-2.67778 -2.098542,-2.67778 -0.08816,0.01074 -0.29887,0.07945 -0.466581,0.169643 -0.776203,0.405854 0.167711,-0.09019 0,0 l 0,0 0,0 z"
           id="path31" />
        <path
           inkscape:connector-curvature="0"
           d="m 1.8405248,33.116863 c -0.3289723,0.137432 -0.6858965,0.277011 -0.795554,0.307075 -0.82995622,0.1632 -0.87510928,2.563969 -0.3870262,3.102961 0.13545919,0.124548 0.26876822,0.249096 0.4042274,0.371496 -0.38487608,-0.195411 1.9630831,-2.55538 2.3952624,-2.742202 l -0.090306,-0.427328 c -0.1892128,-0.820298 -0.634293,-0.998531 -1.5266035,-0.612002 -0.3289723,0.139579 0.8923105,-0.386529 0,0 l 0,0 0,0 z"
           id="path33" />
        <path
           inkscape:connector-curvature="0"
           d="m 16.040087,43.194507 c -0.776202,0.148169 -1.18258,0.317812 -1.292237,0.536845 -0.28597,0.601266 -1.03852,1.307753 -0.634293,2.031419 0.14406,0.274865 1.195481,0.165348 1.518003,0.326402 0.776202,0.377938 0.834256,0.476718 0.617092,1.041478 -0.230066,0.57335 -0.318222,1.251921 -0.715999,1.745818 -0.776203,1.009268 1.33094,0.01718 1.610459,0.386528 0.09031,0.128843 0.101057,0.246949 0.0215,0.455244 -0.13976,0.405855 -0.417129,0.465981 -0.786954,0.158906 -0.526785,-0.440212 -2.395262,-0.678571 -3.005903,-0.51537 -2.070591,0.528255 0.440779,1.75226 0.812755,2.239715 1.431997,-0.687161 2.986552,-1.198237 4.594861,-1.041478 0.494534,0.04724 1.296538,0.450949 1.741618,0.103074 0.449381,-0.35217 0.614942,-1.086574 1.17183,-1.241185 0.29887,-0.08375 0.952514,-0.133137 0.619242,-0.547581 -0.522486,-0.646361 -0.946065,-1.526786 -1.522304,-2.102283 -0.614941,-0.61415 -1.552405,-0.410149 -2.190998,-0.970615 -0.722449,-0.635624 -0.481633,-1.668513 -1.047121,-2.310579 -0.432179,-0.42518 -0.984767,-0.390822 -1.511553,-0.296338 -0.776202,0.148169 0.277369,-0.04939 0,0 l 0,0 0,0 z"
           id="path35" />
        <path
           inkscape:connector-curvature="0"
           d="m 20.090962,55.273508 c -1.18043,0.940552 -1.715816,2.119462 -2.700583,3.201741 -0.892311,0.968467 -0.629993,1.501017 -0.189213,2.647717 0.980467,0.152463 2.313557,-1.138111 2.588776,-2.020683 0.242966,-0.777351 2.335058,-4.372062 1.541654,-4.672694 -0.06881,-0.03006 -0.625692,0.358612 -1.240634,0.843919 -1.083673,0.863246 0.614942,-0.485307 0,0 l 0,0 0,0 z"
           id="path37" />
        <path
           inkscape:connector-curvature="0"
           d="m 14.511334,59.250452 c -0.715999,0.465981 -1.77387,0.358612 -2.373761,0.912636 -0.989067,0.912635 -0.7332,2.76797 -1.298688,3.949028 l 0.247267,0.08804 c 0.653644,0.253391 1.378243,-0.60556 1.799672,-0.99853 0.176312,-0.165348 0.961115,-1.380765 1.001968,-1.062952 0.07095,0.586234 -0.853608,1.582617 -0.13976,2.121609 0.414978,0.289896 -1.214832,1.084425 -0.765452,1.844597 0.354774,0.609856 3.891764,-1.185352 4.242238,-2.040009 0.247267,-0.60556 -0.421429,-1.713607 -0.559038,-2.32561 -0.217165,-0.979205 0.0064,-2.381442 -1.070773,-2.834539 -0.348323,-0.139579 -0.359074,-0.139579 -1.083673,0.345728 -0.488083,0.317812 0.724599,-0.485307 0,0 l 0,0 0,0 z"
           id="path39" />
        <path
           inkscape:connector-curvature="0"
           d="m 25.176057,64.913088 c -0.318222,1.062951 -0.359074,1.320637 -0.236516,1.35929 1.567456,0.52396 0.275218,2.969823 1.597558,3.779385 0.406378,0.249096 1.309439,0.268422 2.05769,0.0408 0.518185,-0.148169 0.526785,-0.158906 0.466581,-0.465981 -0.09031,-0.453096 0.116108,-1.520343 -0.14836,-1.786618 -0.698797,-0.697898 -0.468732,-1.90043 -0.700947,-2.778707 -0.13976,-0.530403 -0.621392,-1.110195 -1.17398,-1.206827 -1.462099,-0.257685 -1.421246,-0.39297 -1.862026,1.058658 -0.318222,1.060804 0.219315,-0.721519 0,0 l 0,0 0,0 z"
           id="path41" />
        <path
           inkscape:connector-curvature="0"
           d="m 13.834038,71.737455 c -0.283819,0.169643 -0.711698,0.659245 -0.505284,1.039331 0.135459,0.251243 0.920262,-0.661393 1.122376,-0.259833 0.0645,0.128843 0.264468,2.11302 0.89231,0.904046 0.178462,-0.345728 0.187063,-1.2691 0.0215,-1.496722 -0.318222,-0.416592 -1.012719,-0.504634 -1.530904,-0.186822 -0.365525,0.216885 0.518185,-0.317812 0,0 l 0,0 0,0 z"
           id="path43" />
        <path
           inkscape:connector-curvature="0"
           d="m 34.707653,113.93773 c -0.518185,0.13528 -1.064322,0.15246 -1.597558,0.14602 -0.09031,0.47672 -0.713849,3.77079 0,3.77079 0.44508,0 2.496319,2.63913 2.967201,1.7265 0.604191,-1.18321 2.117893,-1.61913 2.851093,-2.70785 0.44723,-0.65495 0.335423,-0.95988 -0.159111,-0.49819 -0.255867,0.2491 -0.655794,0.28131 -0.89231,0.0816 -0.677296,-0.54973 -0.782653,-2.35997 -1.382544,-2.60692 -0.255867,-0.10092 -1.249234,-0.0515 -1.786771,0.088 -0.268768,0.0687 0.537537,-0.13958 0,0 l 0,0 0,0 z"
           id="path45" />
        <path
           inkscape:connector-curvature="0"
           d="m 30.985751,115.95197 c 0,0.82674 0.860058,1.80165 1.748068,1.80165 0.101057,0 -0.0817,-1.93264 -0.556887,-2.11946 -0.365525,-0.15032 -0.797705,-0.18253 -1.191181,-0.15676 l 0,0.47457 c 0,0.72366 0,0 0,0 l 0,0 0,0 z"
           id="path47" />
        <path
           inkscape:connector-curvature="0"
           d="m 74.958382,173.8689 -1.17398,0.5669 0,0.35862 c 0,0.6893 2.986553,2.56611 3.786407,2.56611 1.272886,0 1.520153,-1.72434 2.461917,-2.35138 0.242967,-0.13958 -0.752551,-1.3872 -0.645044,-1.60838 0.113958,-0.17394 -1.709366,0.1632 -1.788921,0.16749 -1.191181,0.0837 -1.464249,-0.26627 -2.640379,0.30064 0,0 0.636443,-0.30708 0,0 l 0,0 0,0 z"
           id="path49" />
      </g>
      <circle
         style="fill:#fa8d3e"
         sodipodi:ry="4.5"
         sodipodi:rx="4.5"
         sodipodi:cy="63.5"
         sodipodi:cx="49.5"
         id="Oval-2"
         cx="49.5"
         cy="63.5"
         r="4.5"
         d="M 54,63.5 C 54,65.985281 51.985281,68 49.5,68 47.014719,68 45,65.985281 45,63.5 45,61.014719 47.014719,59 49.5,59 c 2.485281,0 4.5,2.014719 4.5,4.5 z" />
      <circle
         style="fill:#fa8d3e"
         sodipodi:ry="4.5"
         sodipodi:rx="4.5"
         sodipodi:cy="155.5"
         sodipodi:cx="89.5"
         id="Oval-2-Copy"
         cx="89.5"
         cy="155.5"
         r="4.5"
         d="m 94,155.5 c 0,2.48528 -2.014719,4.5 -4.5,4.5 -2.485281,0 -4.5,-2.01472 -4.5,-4.5 0,-2.48528 2.014719,-4.5 4.5,-4.5 2.485281,0 4.5,2.01472 4.5,4.5 z" />
      <circle
         style="fill:#fa8d3e"
         sodipodi:ry="4.5"
         sodipodi:rx="4.5"
         sodipodi:cy="149.5"
         sodipodi:cx="52.5"
         id="Oval-2-Copy-2"
         cx="52.5"
         cy="149.5"
         r="4.5"
         d="m 57,149.5 c 0,2.48528 -2.014719,4.5 -4.5,4.5 -2.485281,0 -4.5,-2.01472 -4.5,-4.5 0,-2.48528 2.014719,-4.5 4.5,-4.5 2.485281,0 4.5,2.01472 4.5,4.5 z" />
    </g>
  </g>
</svg>
