<?xml version="1.0" encoding="UTF-8" standalone="no"?>
<svg width="226px" height="200px" viewBox="0 0 226 200" version="1.1" xmlns="http://www.w3.org/2000/svg" xmlns:xlink="http://www.w3.org/1999/xlink" xmlns:sketch="http://www.bohemiancoding.com/sketch/ns">
    <!-- Generator: Sketch 3.3.3 (12072) - http://www.bohemiancoding.com/sketch -->
    <title>noun_50996_cc</title>
    <desc>Created with Sketch.</desc>
    <defs></defs>
    <g id="Page-1" stroke="none" stroke-width="1" fill="none" fill-rule="evenodd" sketch:type="MSPage">
        <g id="noun_50996_cc" sketch:type="MSLayerGroup" fill="#006D5B">
            <path d="M96.1038961,33.7662338 L96.1038961,200 L150.649351,200 L150.649351,171.428571 L174.025974,171.428571 L174.025974,200 L225.974026,200 L225.974026,33.7662338 L96.1038961,33.7662338 L96.1038961,33.7662338 Z M140.25974,124.675325 L114.285714,124.675325 L114.285714,101.298701 L140.25974,101.298701 L140.25974,124.675325 L140.25974,124.675325 Z M140.25974,77.9220779 L114.285714,77.9220779 L114.285714,54.5454545 L140.25974,54.5454545 L140.25974,77.9220779 L140.25974,77.9220779 Z M152.976623,166.233766 C152.976623,161.038961 156.890909,157.493506 161.714286,157.493506 C166.542857,157.493506 170.451948,161.038961 170.451948,166.233766 L152.976623,166.233766 L152.976623,166.233766 Z M176.623377,124.675325 L150.649351,124.675325 L150.649351,101.298701 L176.623377,101.298701 L176.623377,124.675325 L176.623377,124.675325 Z M176.623377,77.9220779 L150.649351,77.9220779 L150.649351,54.5454545 L176.623377,54.5454545 L176.623377,77.9220779 L176.623377,77.9220779 Z M210.38961,124.675325 L184.415584,124.675325 L184.415584,101.298701 L210.38961,101.298701 L210.38961,124.675325 L210.38961,124.675325 Z M210.38961,77.9220779 L184.415584,77.9220779 L184.415584,54.5454545 L210.38961,54.5454545 L210.38961,77.9220779 L210.38961,77.9220779 Z" id="Shape" sketch:type="MSShapeGroup"></path>
            <path d="M0,0 L0,200 L33.7662338,200 L33.7662338,171.428571 L57.1428571,171.428571 L57.1428571,200 L85.7142857,200 L85.7142857,0 L0,0 L0,0 Z M12.987013,23.3766234 L38.961039,23.3766234 L38.961039,46.7532468 L12.987013,46.7532468 L12.987013,23.3766234 L12.987013,23.3766234 Z M12.987013,67.5324675 L38.961039,67.5324675 L38.961039,90.9090909 L12.987013,90.9090909 L12.987013,67.5324675 L12.987013,67.5324675 Z M12.987013,137.662338 L12.987013,114.285714 L38.961039,114.285714 L38.961039,137.662338 L12.987013,137.662338 L12.987013,137.662338 Z M36.0805195,166.233766 C36.0805195,161.038961 39.9922078,157.493506 44.8181818,157.493506 C49.6467532,157.493506 53.5584416,161.038961 53.5584416,166.233766 L36.0805195,166.233766 L36.0805195,166.233766 Z M72.7272727,137.662338 L46.7532468,137.662338 L46.7532468,114.285714 L72.7272727,114.285714 L72.7272727,137.662338 L72.7272727,137.662338 Z M72.7272727,90.9090909 L46.7532468,90.9090909 L46.7532468,67.5324675 L72.7272727,67.5324675 L72.7272727,90.9090909 L72.7272727,90.9090909 Z M72.7272727,46.7532468 L46.7532468,46.7532468 L46.7532468,23.3766234 L72.7272727,23.3766234 L72.7272727,46.7532468 L72.7272727,46.7532468 Z" id="Shape" sketch:type="MSShapeGroup"></path>
        </g>
    </g>
</svg>